<svg xmlns="http://www.w3.org/2000/svg" xmlns:xlink="http://www.w3.org/1999/xlink" version="1.1" x="0px" y="0px" viewBox="0 0 100 125" enable-background="new 0 0 100 100" xml:space="preserve"><path d="M50,5C32.6,5,18.5,19.1,18.5,36.5c0,6.8,2.2,14.6,5.9,19.8L50,95l25.6-38.7c3.7-5.2,5.9-12.9,5.9-19.8  C81.5,19.1,67.4,5,50,5z M50,48.5c-6.6,0-12-5.4-12-12c0-6.6,5.4-12,12-12s12,5.4,12,12C62,43.1,56.6,48.5,50,48.5z"/><text x="0" y="115" fill="#000000" font-size="5px" font-weight="bold" font-family="'Helvetica Neue', Helvetica, Arial-Unicode, Arial, Sans-serif">Created by Kaique Amorim</text><text x="0" y="120" fill="#000000" font-size="5px" font-weight="bold" font-family="'Helvetica Neue', Helvetica, Arial-Unicode, Arial, Sans-serif">from the Noun Project</text></svg>