<?xml version="1.0" standalone="no"?>
<!DOCTYPE svg PUBLIC "-//W3C//DTD SVG 20010904//EN"
 "http://www.w3.org/TR/2001/REC-SVG-20010904/DTD/svg10.dtd">
<svg version="1.0" xmlns="http://www.w3.org/2000/svg"
 width="644.000000pt" height="644.000000pt" viewBox="0 0 644.000000 644.000000"
 preserveAspectRatio="xMidYMid meet">
<metadata>
Created by potrace 1.11, written by Peter Selinger 2001-2013
</metadata>
<g transform="translate(0.000000,644.000000) scale(0.100000,-0.100000)"
fill="#000000" stroke="none">
<path d="M3014 6219 c-556 -33 -1110 -219 -1574 -527 -306 -204 -602 -485
-811 -772 -321 -441 -515 -911 -601 -1463 -19 -121 -22 -182 -22 -417 0 -290
8 -397 50 -630 112 -618 409 -1194 848 -1649 250 -258 735 -463 1267 -536 164
-22 496 -30 658 -16 638 57 1160 294 1567 713 163 168 252 294 360 508 98 196
166 431 200 690 23 178 15 545 -16 719 -107 603 -468 1151 -975 1481 -44 28
-82 53 -84 56 -8 8 133 -43 222 -80 525 -218 957 -573 1207 -995 187 -314 299
-635 345 -984 17 -137 20 -404 4 -545 -33 -301 -144 -749 -255 -1024 -48 -120
-52 -138 -28 -138 23 0 237 220 353 365 404 503 641 1089 702 1738 17 187 7
584 -20 759 -107 692 -404 1295 -880 1782 -271 276 -526 462 -871 634 -268
134 -507 216 -803 276 -249 50 -575 72 -843 55z m240 -195 c26 -9 46 -20 44
-25 -2 -4 -91 -115 -198 -246 -371 -453 -486 -598 -533 -679 -26 -44 -47 -85
-47 -91 0 -18 237 -122 375 -163 77 -23 189 -62 250 -86 60 -24 113 -44 117
-44 4 0 101 62 216 138 115 76 217 142 227 146 18 7 125 -11 125 -20 0 -3 -67
-89 -150 -191 -82 -102 -150 -194 -150 -204 0 -15 57 -59 134 -104 13 -7 -11
-9 -78 -7 l-96 3 1 -33 c0 -18 10 -133 22 -255 13 -123 19 -223 14 -223 -14 0
-103 48 -115 63 -7 8 -57 117 -111 243 l-99 229 -107 22 c-58 12 -180 42 -271
68 -90 25 -201 50 -247 55 -45 5 -101 12 -124 16 l-43 6 0 -128 c0 -125 17
-314 81 -883 16 -150 28 -275 26 -278 -8 -7 -91 18 -108 33 -9 8 -58 127 -109
264 l-92 250 -36 0 c-42 0 -169 36 -178 51 -9 15 17 100 32 106 8 3 35 -2 61
-11 25 -9 50 -16 55 -16 16 0 6 37 -50 180 -55 139 -58 145 -87 148 -50 5
-149 33 -172 48 -21 13 -21 16 -8 60 7 25 16 49 19 52 3 3 31 -1 61 -8 30 -7
58 -10 62 -7 3 4 -8 42 -25 84 -16 43 -44 114 -61 159 -45 116 -58 125 -246
180 -170 49 -275 92 -350 144 -50 34 -108 107 -99 122 15 24 98 48 167 48 90
0 162 -16 355 -75 135 -41 158 -45 197 -37 55 12 307 188 303 211 -2 8 -23 21
-47 28 -25 7 -48 18 -52 24 -9 15 19 99 35 105 10 4 100 -24 181 -57 30 -11
35 -9 163 82 75 54 130 100 129 108 -1 8 -25 21 -54 29 -28 8 -54 20 -57 28
-3 7 2 34 10 59 11 32 21 45 34 45 17 0 90 -25 175 -60 30 -13 34 -11 245 148
118 88 220 161 226 161 6 1 32 -6 58 -15z"/>
<path d="M6281 4954 c0 -11 3 -14 6 -6 3 7 2 16 -1 19 -3 4 -6 -2 -5 -13z"/>
</g>
</svg>
