<svg id="Calque_1" data-name="Calque 1" xmlns="http://www.w3.org/2000/svg" xmlns:xlink="http://www.w3.org/1999/xlink" viewBox="0 0 2280 220"><defs><style>.cls-1{fill:#232323;}.cls-2{fill:url(#Dégradé_sans_nom_2);}</style><linearGradient id="Dégradé_sans_nom_2" x1="1878.97" y1="133.78" x2="2012.16" y2="133.78" gradientUnits="userSpaceOnUse"><stop offset="0" stop-color="#8ec5fc"/><stop offset="1" stop-color="#e0c3fc"/></linearGradient></defs><title>logo_uneanneedevoyages</title><path class="cls-1" d="M0,62.42H11.86v68.26a32.86,32.86,0,0,0,9.89,23.94,32.88,32.88,0,0,0,24,9.9,32.87,32.87,0,0,0,23.94-9.9,32.87,32.87,0,0,0,9.9-23.94V62.42H91.39V174.76H79.54V162Q65.26,176.38,45.7,176.37a43.74,43.74,0,0,1-32.23-13.46A43.73,43.73,0,0,1,0,130.68Z"/><path class="cls-1" d="M215.83,174.76H204V106.85a32.85,32.85,0,0,0-9.9-23.94A32.48,32.48,0,0,0,170.24,73a33.8,33.8,0,0,0-33.84,33.84v67.91H124.55V62.42H136.4V75.54q13.24-14.27,33.84-14.39a43.36,43.36,0,0,1,32.12,13.47,43.48,43.48,0,0,1,13.47,32.23Z"/><path class="cls-1" d="M298.13,61a56.19,56.19,0,0,1,22.44,4.6,57.46,57.46,0,0,1,30.62,30.62,56.24,56.24,0,0,1,4.61,22.45v.92H252.89a42.82,42.82,0,0,0,3.8,17.26,45.43,45.43,0,0,0,9.78,14.16,44.38,44.38,0,0,0,14.28,9.44,43.43,43.43,0,0,0,17.38,3.57A44.33,44.33,0,0,0,322,157.27a45.47,45.47,0,0,0,16.34-17.73l11.28,5a56.63,56.63,0,0,1-20.83,22.91,55.91,55.91,0,0,1-30.62,8.86,57.2,57.2,0,0,1-22.33-4.49A57,57,0,0,1,245.06,141,57.54,57.54,0,0,1,257.38,78,58.28,58.28,0,0,1,275.8,65.64,55.91,55.91,0,0,1,298.13,61ZM342,107.31a45.29,45.29,0,0,0-43.85-34A43.68,43.68,0,0,0,270.27,83a44.94,44.94,0,0,0-16,24.29Z"/><path class="cls-1" d="M447.72,176.26a55.18,55.18,0,0,1-40.63-16.92,55.16,55.16,0,0,1-16.92-40.63A55.3,55.3,0,0,1,407.09,78,55.18,55.18,0,0,1,447.72,61Q475,61,493.54,83V62.53h11.85V174.76H493.54V154.27Q475.35,176.26,447.72,176.26Zm0-103.48A45.78,45.78,0,0,0,402,118.59a45.76,45.76,0,1,0,91.51,0,45.78,45.78,0,0,0-45.82-45.81Z"/><path class="cls-1" d="M629.82,174.76H618V106.85a32.85,32.85,0,0,0-9.9-23.94A32.48,32.48,0,0,0,584.24,73a33.8,33.8,0,0,0-33.84,33.84v67.91H538.54V62.42H550.4V75.54q13.23-14.27,33.84-14.39a43.36,43.36,0,0,1,32.12,13.47,43.47,43.47,0,0,1,13.46,32.23Z"/><path class="cls-1" d="M754.26,174.76H742.4V106.85a32.85,32.85,0,0,0-9.9-23.94A32.48,32.48,0,0,0,708.67,73a33.8,33.8,0,0,0-33.84,33.84v67.91H663V62.42h11.85V75.54q13.24-14.27,33.84-14.39a43.36,43.36,0,0,1,32.12,13.47,43.48,43.48,0,0,1,13.47,32.23Z"/><path class="cls-1" d="M836.56,61A56.19,56.19,0,0,1,859,65.64a57.46,57.46,0,0,1,30.62,30.62,56.24,56.24,0,0,1,4.61,22.45v.92H791.32a42.66,42.66,0,0,0,3.8,17.26,45.43,45.43,0,0,0,9.78,14.16,44.38,44.38,0,0,0,14.28,9.44,43.43,43.43,0,0,0,17.38,3.57,44.28,44.28,0,0,0,23.82-6.79,45.42,45.42,0,0,0,16.35-17.73l11.28,5a56.59,56.59,0,0,1-20.84,22.91,55.86,55.86,0,0,1-30.61,8.86,57.2,57.2,0,0,1-22.33-4.49A57,57,0,0,1,783.49,141,57.54,57.54,0,0,1,795.81,78a58.28,58.28,0,0,1,18.42-12.32A55.91,55.91,0,0,1,836.56,61Zm43.85,46.27a45.29,45.29,0,0,0-43.85-34A43.66,43.66,0,0,0,808.7,83a44.94,44.94,0,0,0-16,24.29ZM837,35.6l9.78,6.79L871.55,6.94,861.76.14Z"/><path class="cls-1" d="M971.12,61a56.19,56.19,0,0,1,22.44,4.6,57.46,57.46,0,0,1,30.62,30.62,56.23,56.23,0,0,1,4.6,22.45v.92H925.88a42.82,42.82,0,0,0,3.8,17.26,45.43,45.43,0,0,0,9.78,14.16,44.38,44.38,0,0,0,14.28,9.44,43.46,43.46,0,0,0,17.38,3.57,44.28,44.28,0,0,0,23.82-6.79,45.42,45.42,0,0,0,16.35-17.73l11.28,5a56.63,56.63,0,0,1-20.83,22.91,55.91,55.91,0,0,1-30.62,8.86,57.2,57.2,0,0,1-22.33-4.49A57,57,0,0,1,918.05,141,57.54,57.54,0,0,1,930.37,78a58.28,58.28,0,0,1,18.42-12.32A55.91,55.91,0,0,1,971.12,61ZM1015,107.31a45.29,45.29,0,0,0-43.85-34A43.68,43.68,0,0,0,943.26,83a44.94,44.94,0,0,0-16,24.29Z"/><path class="cls-1" d="M1114.77,176.49a55.11,55.11,0,0,1-40.75-17,55.15,55.15,0,0,1-16.92-40.63A55.16,55.16,0,0,1,1074,78.19a55.11,55.11,0,0,1,40.75-17q26,0,45.7,22.1V3.37h11.85V174.76h-11.85V154.39Q1141.82,176.49,1114.77,176.49Zm0-103.37a45.6,45.6,0,0,0-45.81,45.7,45.76,45.76,0,1,0,91.51,0,45.6,45.6,0,0,0-45.7-45.7Z"/><path class="cls-1" d="M1250.83,61a56.15,56.15,0,0,1,22.44,4.6,57.46,57.46,0,0,1,30.62,30.62,56.24,56.24,0,0,1,4.61,22.45v.92H1205.59a42.82,42.82,0,0,0,3.8,17.26,45.43,45.43,0,0,0,9.78,14.16,44.38,44.38,0,0,0,14.28,9.44,43.46,43.46,0,0,0,17.38,3.57,44.28,44.28,0,0,0,23.82-6.79A45.35,45.35,0,0,0,1291,139.54l11.28,5a56.63,56.63,0,0,1-20.83,22.91,55.91,55.91,0,0,1-30.62,8.86,57.2,57.2,0,0,1-22.33-4.49A57,57,0,0,1,1197.76,141,57.54,57.54,0,0,1,1210.08,78a58.28,58.28,0,0,1,18.42-12.32A55.91,55.91,0,0,1,1250.83,61Zm43.85,46.27a45.29,45.29,0,0,0-43.85-34A43.68,43.68,0,0,0,1223,83a44.94,44.94,0,0,0-16,24.29Z"/><path class="cls-1" d="M1334.16,47.68h28.2l27.05,67,27.17-67h28.32l-55.49,129.17Z"/><path class="cls-1" d="M1475.4,157.27q-19.11-19.11-19.11-46.05T1475.4,65.3q19.1-19.11,46-19.11t45.93,19.11q19.11,19.1,19.11,45.92t-19.11,46.05q-19.11,19.11-45.93,19.1T1475.4,157.27Zm19-73.1a38.22,38.22,0,0,0,0,54.22,38.36,38.36,0,0,0,54.1,0,37.25,37.25,0,0,0,11.17-27.17,38.26,38.26,0,0,0-65.27-27Z"/><path class="cls-1" d="M1684.66,47.68h29.12L1655,193.07h29.12V220h-69.3l24-58.7L1592.81,47.68h29l31.43,77.59Z"/><path class="cls-1" d="M1789.18,176.37q-26.82,0-45.93-19.1t-19.1-45.93q0-26.94,19.1-46t45.93-19.11q27,0,38.33,11.28V47.68h26.82V174.76h-26.82v-9.67Q1816.23,176.39,1789.18,176.37Zm0-103.36A38.32,38.32,0,0,0,1751,111.34a38.12,38.12,0,0,0,38.22,38.21,37.26,37.26,0,0,0,27.17-11.16,36.84,36.84,0,0,0,11.16-27A38.31,38.31,0,0,0,1789.18,73Z"/><path class="cls-1" d="M2096.52,46.19q26.82,0,45.92,19.11t19.11,45.92l-.23,8.29H2059.11q1.48,9.43,11.51,19.92a37.73,37.73,0,0,0,45.93,4.25q8.85-5.28,15.65-18.53L2157,135.86q-10.36,20.71-25.78,30.39a62.87,62.87,0,0,1-34.65,10.12q-26.82,0-45.93-19.1t-19.22-46.05q0-26.82,19.22-45.92T2096.52,46.19Zm33.61,46.5q-2.88-5.86-11.28-12.43a38,38,0,0,0-44.66,0Q2066,86.93,2063,92.69Z"/><path class="cls-1" d="M2233.61,176.37a57,57,0,0,1-28.77-7.59q-15.78-9.33-22.22-31.43l25.67-7.25Q2211.74,142,2219,146a31.15,31.15,0,0,0,14.74,3.56c.69,0,1.45,0,2.3-.11s1.69-.19,2.53-.35a25.69,25.69,0,0,0,6.1-1.72,12.48,12.48,0,0,0,7.37-10.94,7.15,7.15,0,0,0-2.07-5.64q-4.5-5.4-15.77-6.1-28.09-1.83-40.75-14.62a29.91,29.91,0,0,1-7.48-12,32.69,32.69,0,0,1-1.84-11q0-19.11,15-30.73,13.13-10.12,31.54-10.13,21.87,0,36.6,15.54a65.34,65.34,0,0,1,12.78,21l-25,9.21-3.45-6.45a26,26,0,0,0-3.8-5.18A23.23,23.23,0,0,0,2230.39,73c-1.31.07-2.46.19-3.45.34a30.87,30.87,0,0,0-6.8,1.73q-9.21,3.57-9.2,12,0,4.49,6.79,7.37,6.67,2.64,18.3,3.45a56.3,56.3,0,0,1,22,5.64,44,44,0,0,1,12.44,9.56,33.8,33.8,0,0,1,8.28,25.43q-1.38,18.42-15.65,28.78-12.32,9.09-29.35,9.09Z"/><path class="cls-2" d="M2012.15,47.68h-64.46q-26.6,0-45.59,19t-18.87,45.47a62.48,62.48,0,0,0,10.24,34.76q9.78,15.42,21.41,21.06L1879,219.88h107.16V193h-55.94l11.63-16.58a40.73,40.73,0,0,0,5.87.35q26.58,0,45.58-19a62.14,62.14,0,0,0,18.88-45.58q.45-19.7-12-37.53h12Zm-37.87,37.87a36.15,36.15,0,0,1,10.65,21.16c-2.18,3.6-9.07,7.15-7.57,13.1.9,3.56-8.95,2.43-11.36,5.76s-8.3,1.1-9.66.45-6.59,1.5-6.13-2.13,3.63-3.84,7-5.34,8.32-6.45,5.91-7.1c-11.38-3-15.26-13.74-15.26-13.74-.68-.12-.51-7.55-3.46-7.76s-4.55.85-8.86,0-3.41-3.63-4.1-9.61a15.52,15.52,0,0,1-.1-2.12,37.12,37.12,0,0,1,16.31-3.6A36.26,36.26,0,0,1,1974.28,85.55Zm-53.19,53.3a36.4,36.4,0,0,1-11-26.62c2.84.33,6.15,1,6.35,2.62.35,2.79,0,6.27,2.44,7.31s3.13-4.18,5.22-2.78,7.66,2.73,7.66,5.19-1,6.29,0,7,5.22,5.57,5.22,6.27,1.47,4.23,1,5.59a21.29,21.29,0,0,1-2.46,4.44A36.47,36.47,0,0,1,1921.09,138.85Z"/></svg>