<svg id="Calque_1" data-name="Calque 1" xmlns="http://www.w3.org/2000/svg" viewBox="0 0 724 1000"><defs><style>.cls-1{fill:#232323;}</style></defs><title>logo_uneanneedevoyages</title><path class="cls-1" d="M724.11,0H361.82q-150,0-256.16,106.86Q-.47,212.25-.46,362.28q0,106.88,57.08,195.42,55.62,87.1,167.61,140.52L15.64,999.75H558.7V923.64H159.82l142-204.19q38.78,5.85,60,5.85,150,0,256.16-106.85Q724.11,513,724.11,362.28q-2.94-172-136.86-286.16H724.11Zm-565,565.75Q74.94,480.9,74.92,362.37c22,1.75,55.42,6.64,57.11,20.22,2.54,20.28,0,45.64,17.75,53.25s22.83-30.43,38-20.29,55.79,19.92,55.79,37.85-7.6,45.84,0,50.91,38,40.57,38,45.65,10.72,30.86,7.53,40.72c-2.44,7.52-13.93,29.56-25.83,42Q205.89,612.12,159.09,565.75ZM624.48,245.5c.88,22.66,1,41.64,6.3,48.8,28.55,38.87-69.54,65.61-54.64,124.4,6.56,25.94-65.24,17.71-82.78,42s-60.43,8-70.37,3.3-48,10.88-44.69-15.55,26.47-28,51.32-38.88,60.65-47,43.05-51.75C389.8,335.58,361.53,257.74,361.53,257.74c-5-.94-3.72-55-25.24-56.58s-33.13,6.22-64.57,0-24.83-26.44-29.8-70c-2.3-20.19.38-28,4.9-32q52.79-23,115-23.08,118.56,0,202.73,83.43Q603.63,199,624.48,245.5Z"/></svg>