<?xml version="1.0" encoding="UTF-8" standalone="no"?>
<svg width="28px" height="32px" viewBox="0 0 28 32" version="1.1" xmlns="http://www.w3.org/2000/svg" xmlns:xlink="http://www.w3.org/1999/xlink">
    <!-- Generator: Sketch 47.1 (45422) - http://www.bohemiancoding.com/sketch -->
    <title>calendar</title>
    <desc>Created with Sketch.</desc>
    <defs></defs>
    <g id="Page-1" stroke="none" stroke-width="1" fill="none" fill-rule="evenodd">
        <g id="BON-PLAN-RYANAIR" transform="translate(-271.000000, -387.000000)" fill-rule="nonzero" fill="#31CCCD">
            <g id="calendar" transform="translate(271.000000, 387.000000)">
                <path d="M20.7098621,2.24561404 C20.4853793,0.966175439 19.5106897,0 18.3448276,0 C18.0778621,0 17.862069,0.250947368 17.862069,0.561403509 C17.862069,0.871859649 18.0778621,1.12280702 18.3448276,1.12280702 C19.1433103,1.12280702 19.7931034,1.87845614 19.7931034,2.80701754 C19.7931034,3.73557895 19.1433103,4.49122807 18.3448276,4.49122807 C18.0778621,4.49122807 17.862069,4.74217544 17.862069,5.05263158 C17.862069,5.36308772 18.0778621,5.61403509 18.3448276,5.61403509 C19.5102069,5.61403509 20.4853793,4.64785965 20.7098621,3.36842105 L27.0344828,3.36842105 L27.0344828,8.42105263 L0.965517241,8.42105263 L0.965517241,3.36842105 L7.72413793,3.36842105 L9.17241379,3.36842105 C9.43937931,3.36842105 9.65517241,3.11747368 9.65517241,2.80701754 C9.65517241,2.4965614 9.43937931,2.24561404 9.17241379,2.24561404 L8.29572414,2.24561404 C8.49558621,1.59326316 9.02662069,1.12280702 9.65517241,1.12280702 C10.4536552,1.12280702 11.1034483,1.87845614 11.1034483,2.80701754 C11.1034483,3.73557895 10.4536552,4.49122807 9.65517241,4.49122807 C9.3882069,4.49122807 9.17241379,4.74217544 9.17241379,5.05263158 C9.17241379,5.36308772 9.3882069,5.61403509 9.65517241,5.61403509 C10.9861379,5.61403509 12.0689655,4.35480702 12.0689655,2.80701754 C12.0689655,1.25922807 10.9861379,0 9.65517241,0 C8.4897931,0 7.51462069,0.966175439 7.29013793,2.24561404 L0,2.24561404 L0,9.54385965 L0,32 L28,32 L28,9.54385965 L28,2.24561404 L20.7098621,2.24561404 Z M27.0344828,30.877193 L0.965517241,30.877193 L0.965517241,9.54385965 L27.0344828,9.54385965 L27.0344828,30.877193 Z" id="Shape"></path>
                <path d="M12.4,1.12 C13.0616,1.12 13.6,1.87376 13.6,2.8 C13.6,3.72624 13.0616,4.48 12.4,4.48 C12.1788,4.48 12,4.73032 12,5.04 C12,5.34968 12.1788,5.6 12.4,5.6 C13.5028,5.6 14.4,4.34392 14.4,2.8 C14.4,1.25608 13.5028,0 12.4,0 C12.1788,0 12,0.25032 12,0.56 C12,0.86968 12.1788,1.12 12.4,1.12 Z" id="Shape"></path>
                <path d="M15.6,1.12 C16.2616,1.12 16.8,1.87376 16.8,2.8 C16.8,3.72624 16.2616,4.48 15.6,4.48 C15.3788,4.48 15.2,4.73032 15.2,5.04 C15.2,5.34968 15.3788,5.6 15.6,5.6 C16.7028,5.6 17.6,4.34392 17.6,2.8 C17.6,1.25608 16.7028,0 15.6,0 C15.3788,0 15.2,0.25032 15.2,0.56 C15.2,0.86968 15.3788,1.12 15.6,1.12 Z" id="Shape"></path>
                <circle id="Oval" cx="10.8" cy="14" r="1"></circle>
                <circle id="Oval" cx="14" cy="14" r="1"></circle>
                <circle id="Oval" cx="17.2" cy="14" r="1"></circle>
                <circle id="Oval" cx="21.2" cy="14" r="1"></circle>
                <circle id="Oval" cx="24.4" cy="14" r="1"></circle>
                <circle id="Oval" cx="3.6" cy="18" r="1"></circle>
                <circle id="Oval" cx="7.6" cy="18" r="1"></circle>
                <circle id="Oval" cx="10.8" cy="18" r="1"></circle>
                <circle id="Oval" cx="14" cy="18" r="1"></circle>
                <circle id="Oval" cx="17.2" cy="18" r="1"></circle>
                <circle id="Oval" cx="21.2" cy="18" r="1"></circle>
                <circle id="Oval" cx="24.4" cy="18" r="1"></circle>
                <circle id="Oval" cx="3.6" cy="22" r="1"></circle>
                <circle id="Oval" cx="7.6" cy="22" r="1"></circle>
                <circle id="Oval" cx="10.8" cy="22" r="1"></circle>
                <circle id="Oval" cx="14" cy="22" r="1"></circle>
                <circle id="Oval" cx="17.2" cy="22" r="1"></circle>
                <circle id="Oval" cx="21.2" cy="22" r="1"></circle>
                <circle id="Oval" cx="24.4" cy="22" r="1"></circle>
                <circle id="Oval" cx="3.6" cy="26.8" r="1"></circle>
                <circle id="Oval" cx="7.6" cy="26.8" r="1"></circle>
                <circle id="Oval" cx="10.8" cy="26.8" r="1"></circle>
                <circle id="Oval" cx="14" cy="26.8" r="1"></circle>
                <circle id="Oval" cx="17.2" cy="26.8" r="1"></circle>
            </g>
        </g>
    </g>
</svg>