<?xml version="1.0" encoding="UTF-8" standalone="no"?>
<svg width="19px" height="21px" viewBox="0 0 19 21" version="1.1" xmlns="http://www.w3.org/2000/svg" xmlns:xlink="http://www.w3.org/1999/xlink">
    <!-- Generator: Sketch 47.1 (45422) - http://www.bohemiancoding.com/sketch -->
    <title>crossed-knife-and-fork</title>
    <desc>Created with Sketch.</desc>
    <defs></defs>
    <g id="Page-1" stroke="none" stroke-width="1" fill="none" fill-rule="evenodd">
        <g id="RESULTAT-RECHERCHE" transform="translate(-209.000000, -854.000000)" fill-rule="nonzero" fill="#32CCCD">
            <g id="crossed-knife-and-fork" transform="translate(209.000000, 854.000000)">
                <path d="M16.6599993,17.9045303 C15.8761133,16.7468781 4.40075357,2.18552824 2.68059678,0.186774802 C2.44183607,-0.0908725436 2.15731085,-0.00384168909 2.05081327,0.0973789786 C1.86579213,0.273096166 1.7548776,0.52957704 2.14221961,2.06645206 C2.37423219,2.98725269 4.18530454,8.12065413 4.80245066,9.59556696 C6.05821419,12.596003 6.86197647,12.497029 7.32244355,12.554143 C7.54733994,12.5820497 7.76610167,12.5312028 7.95517169,12.4066872 C8.47011448,12.0680237 8.64188478,11.9692862 8.84077024,11.8548217 C8.91058259,11.8147355 8.98505728,11.7718113 9.07830401,11.7165893 C9.63496245,12.5956482 10.3221663,13.9594075 10.9893712,15.2834353 C11.8871164,17.0650846 12.8155348,18.9075136 13.5573371,19.8609508 C14.0290919,20.4669741 14.5392497,20.6452928 14.8842626,20.6879805 C15.5445967,20.7698084 16.2275063,20.4287799 16.6244183,19.8190909 C17.0272197,19.2002968 17.0408386,18.4665652 16.6599993,17.9045303 Z M15.9231048,19.3946972 C15.6974722,19.7415199 15.3312334,19.9382853 14.9901467,19.8959524 C14.7224304,19.8628428 14.4560638,19.6848789 14.2202477,19.3816899 C13.5260503,18.4897419 12.6154224,16.6824327 11.7346089,14.9344842 C10.9299878,13.3377755 10.1700269,11.8295166 9.54834115,10.943481 C9.47901957,10.8447435 9.37190852,10.7853828 9.25804935,10.771193 C9.16443454,10.7596046 9.0661574,10.7786426 8.98076303,10.8318544 C8.70274054,11.0048519 8.02437058,11.394717 7.48844726,11.7472156 C7.46390865,11.7634157 7.44955356,11.7649529 7.42832766,11.7624697 C7.14429321,11.9041313 7.12625733,11.6961323 6.64689552,11.0690608 C5.87454267,10.0591009 3.69428689,4.1259852 3.06364453,2.17725085 C2.81899456,1.42152505 3.07959463,1.83823257 3.2712412,2.07591194 C5.34303631,4.64474113 15.2049823,17.2163244 15.9665381,18.3409854 C16.2081208,18.6973862 16.102482,19.1190601 15.9231048,19.3946972 Z" id="Shape"></path>
                <path d="M18.7175287,4.30163968 C18.5801904,4.13447291 18.3542535,4.1304749 18.2130033,4.2927691 C17.3021723,5.33699916 16.4526625,6.35524217 15.7700943,7.17345977 C15.5957518,7.38260563 15.4359995,7.57401033 15.2913661,7.74654942 L14.618419,6.95069568 L17.462136,3.69006919 C17.6035977,3.52789993 17.6068752,3.26078294 17.4696426,3.09374111 C17.33241,2.92669928 17.1065789,2.92257633 16.9651173,3.08487052 L14.1137879,6.35411773 L13.4802767,5.60486579 L16.3410156,2.324749 C16.4824773,2.16245481 16.4858605,1.89546274 16.3486279,1.72854585 C16.2113953,1.56137909 15.9853528,1.55738108 15.8441026,1.71955033 L12.9758571,5.00828783 L12.3587334,4.27840125 L15.4583078,0.724170945 C15.5997694,0.562001691 15.6031526,0.29500963 15.4658143,0.12809274 C15.3285817,-0.0391989637 15.1027506,-0.0430720353 14.9613947,0.119097219 L11.3941934,4.20931065 C10.4825166,5.25454022 10.5529302,6.78965087 11.5462277,8.20544593 L9.51744805,10.5667702 C9.37598642,10.7289394 9.37260318,10.9959315 9.50983576,11.1628484 C9.56502483,11.2300649 9.63469838,11.2709196 9.70722654,11.2851625 C9.81517297,11.3064019 9.92988587,11.2687956 10.0144668,11.1718439 L12.0447266,8.80877052 C12.4444773,9.20207469 12.9170733,9.46232011 13.4135635,9.55977159 C13.4774221,9.57251525 13.5420208,9.58226039 13.6066195,9.58925691 C14.2546152,9.66047145 14.8483734,9.44632808 15.2360713,9.00179941 C15.483682,8.71806569 15.8341643,8.29777496 16.2781086,7.7656649 C16.9582451,6.95057074 17.8045831,5.93595094 18.7098107,4.89821764 C18.8512723,4.73579851 18.8546555,4.46880645 18.7175287,4.30163968 Z M14.7390526,8.39647581 C14.5046576,8.66496713 14.1060699,8.79702637 13.6725926,8.74930014 C13.1717677,8.69432751 12.6903964,8.4139671 12.3180288,7.96044292 C11.5885182,7.07188534 11.0918166,5.80164281 11.847653,4.86723306 L14.785995,8.34237775 C14.7699246,8.36086854 14.7542771,8.37898452 14.7390526,8.39647581 Z" id="Shape"></path>
                <path d="M9.26830287,13.8878052 C9.09508599,13.7443142 8.8300418,13.7589065 8.67620931,13.9203484 C6.98864947,15.6900708 3.92616512,18.8164144 2.89282828,19.6706433 C2.37914207,20.0953258 1.56996824,19.9240399 1.13667753,19.4973887 C0.683505397,19.051281 0.751847781,18.4863503 1.32418418,17.9468983 C2.77739178,16.5781168 4.91824801,15.0107179 6.53299215,13.8757608 C6.71788937,13.7458198 6.75479425,13.5007617 6.61537579,13.3283177 C6.47595733,13.1558737 6.21302554,13.1215934 6.02800407,13.2515344 C4.39250869,14.4010838 2.21959367,15.9919926 0.727990076,17.3970231 C-0.358281049,18.4204533 -0.0588171494,19.4575493 0.527684762,20.0347561 C0.859083194,20.3607667 1.32840898,20.5954018 1.82693561,20.6725325 C2.38162725,20.7583492 2.97247822,20.6494859 3.4493838,20.2551462 C4.64351163,19.268081 8.08001521,15.7220349 9.30321962,14.4391859 C9.45705211,14.2782073 9.44139549,14.0309488 9.26830287,13.8878052 Z" id="Shape"></path>
            </g>
        </g>
    </g>
</svg>