<?xml version="1.0" encoding="UTF-8" standalone="no"?>
<svg width="35px" height="32px" viewBox="0 0 35 32" version="1.1" xmlns="http://www.w3.org/2000/svg" xmlns:xlink="http://www.w3.org/1999/xlink">
    <!-- Generator: Sketch 47.1 (45422) - http://www.bohemiancoding.com/sketch -->
    <title>flower</title>
    <desc>Created with Sketch.</desc>
    <defs></defs>
    <g id="Page-1" stroke="none" stroke-width="1" fill="none" fill-rule="evenodd">
        <g id="FICHES-PRATIQUES" transform="translate(-65.000000, -538.000000)" fill-rule="nonzero" fill="#32CCCD">
            <g id="Group-2" transform="translate(42.000000, 433.000000)">
                <g id="flower" transform="translate(23.000000, 105.000000)">
                    <path d="M33.2673638,10.0781626 C31.3263682,8.96478466 28.1843669,7.89350924 24.2390747,9.11181864 C24.0277759,9.17711654 23.8190065,9.24761228 23.6135182,9.32311095 C23.6256862,9.11396275 23.6317702,8.90345011 23.6317702,8.69222277 C23.6317702,4.75297256 21.6030011,2.25164062 19.9010581,0.846988555 C18.5322986,-0.28263265 16.4715373,-0.282307785 15.1074263,0.847833204 C13.4051415,2.25833284 11.3759622,4.76414793 11.3759622,8.69222277 C11.3759622,8.90351508 11.3820462,9.11428761 11.3942142,9.32356576 C11.1883158,9.2478072 10.9791361,9.17711654 10.7673588,9.11175366 C6.8257581,7.89448383 3.69585642,8.95536357 1.76436268,10.0597752 C0.206452856,10.9508154 -0.424230605,12.826587 0.297507524,14.4231694 C1.18515382,16.3867845 3.0651046,18.9812878 6.98031861,20.190371 C7.19305294,20.2560588 7.4070861,20.3159639 7.62152941,20.3699565 C7.47947866,20.5353778 7.34166619,20.7054772 7.20857052,20.879605 C6.44034802,21.8846079 5.87248682,22.9609512 5.52064119,24.0787473 C5.41235996,24.4228445 5.61798492,24.7851342 5.97994773,24.8881164 C6.34184218,24.9910337 6.72308234,24.7955299 6.83143193,24.4515626 C7.13891233,23.474628 7.6382091,22.53005 8.31551364,21.6440777 C8.58389249,21.2928985 8.87366782,20.961471 9.17909744,20.6547333 C9.62124579,20.7053473 10.049859,20.7290625 10.4641851,20.7290625 C13.7388035,20.7290625 16.1204436,19.27711 17.2587637,18.4017933 C17.7701601,19.713209 18.4948377,22.5331688 16.9177872,25.5516211 C16.9125235,25.5616919 16.908422,25.5720226 16.9037735,25.5822234 C16.8998771,25.5889806 16.8950919,25.595088 16.8914005,25.6020402 C16.6454435,26.0669872 16.3512248,26.5247222 16.0167425,26.9622507 C13.8981492,29.7338055 11.1200248,30.5193945 9.16248612,30.6903385 C8.01924417,30.7901371 6.96432252,30.0707556 6.70776984,29.0163082 L6.69915656,28.980768 C6.6158265,28.6305633 6.25010392,28.4104996 5.88110009,28.4898317 C5.51257478,28.5689689 5.28124671,28.9170944 5.36457677,29.267364 L5.37489903,29.3101163 C5.78485011,30.9942174 7.46649038,32.1443701 9.28765211,31.9853161 C11.5268313,31.7897473 14.7039693,30.8920798 17.1236173,27.7265935 C17.2555508,27.5540251 17.3819473,27.3785329 17.5026015,27.2008317 C17.6231875,27.3785979 17.7496523,27.5540901 17.8815175,27.7265935 C20.3011654,30.8920798 23.4783718,31.7896823 25.7174826,31.9853161 C25.8300705,31.995127 25.9423166,32 26.053674,32 C27.7413982,32 29.2455092,30.8903905 29.630099,29.310896 C30.1383508,27.2236372 30.2328235,24.0666623 27.7967009,20.8797349 C27.6636053,20.7056722 27.5258611,20.5356377 27.3839471,20.3703463 C27.5988006,20.3162888 27.8131755,20.2563186 28.0263884,20.190501 C31.9068758,18.9921383 33.8014555,16.359041 34.7075588,14.3611202 C35.4167189,12.7971542 34.7975881,10.9559483 33.2673638,10.0781626 Z M14.8269478,18.3691118 C13.0081103,19.2872458 11.075181,19.6108115 9.08182207,19.3307128 C9.07259356,19.3294133 9.06336505,19.3291534 9.05413653,19.3281788 C9.04702716,19.3269443 9.04032794,19.3247353 9.03321857,19.3236957 C8.49235931,19.2451433 7.94391216,19.12059 7.4030529,18.9536093 C3.97524112,17.8950686 2.33058327,15.626535 1.55463616,13.9098824 C1.10161868,12.9077383 1.49509516,11.7316614 2.469968,11.1743227 C4.15741882,10.2094731 6.89343387,9.28289264 10.3447613,10.3487753 C10.7752885,10.4817751 11.1920072,10.6400494 11.5896536,10.8191151 C12.3547999,14.5192645 14.9579927,16.5749464 16.3413811,17.4296017 C15.974428,17.7056722 15.4633735,18.0478852 14.8269478,18.3691118 Z M17.0307169,16.3000455 C15.8059222,15.5247872 13.4758251,13.648236 12.8850635,10.3251901 C12.8834912,10.3164187 12.8809619,10.3081022 12.8791162,10.2995257 C12.8780224,10.2913391 12.8781592,10.2832175 12.8767236,10.2750959 C12.7888818,9.76343321 12.7442432,9.23091421 12.7442432,8.69228774 C12.7443115,5.25319997 14.518442,3.0613346 16.0066253,1.82814637 C16.8589982,1.12188947 18.1477088,1.12221434 19.0040465,1.82899102 C20.4910677,3.05620173 22.2635576,5.24312915 22.2635576,8.69228774 C22.2635576,9.12162956 22.2348466,9.54681311 22.178792,9.9608213 C18.711195,11.7959197 17.4584414,14.7853941 17.0307169,16.3000455 Z M28.2971598,29.0175427 C28.0406071,30.0708856 26.9856855,30.7897473 25.842717,30.6902735 C23.8851783,30.5192645 21.1069856,29.7336755 18.9884606,26.9621857 C18.7213806,26.6126957 18.4802771,26.2502112 18.2684998,25.8813592 C19.9415268,22.4579949 19.1057653,19.3379248 18.5147986,17.8729777 C19.9794663,17.8161263 23.0074441,18.0311221 25.5346213,20.3642389 C25.5530784,20.3869145 25.5729709,20.4088104 25.5948459,20.4292769 C25.9858615,20.7963745 26.3542501,21.2051199 26.6897578,21.6440777 C28.8227749,24.4343448 28.7411539,27.1939445 28.2971598,29.0175427 Z M33.4509771,13.8462738 C32.6567097,15.597752 30.9974913,17.9054643 27.6035857,18.9535443 C27.1740155,19.0862192 26.7397285,19.1916055 26.3081075,19.2689234 C23.4005105,16.7014489 20.0221909,16.4926256 18.3741834,16.5741018 C18.5001697,16.1457345 18.7021032,15.5833279 19.0182653,14.9679683 C19.921976,13.2089533 21.2856769,11.8673901 23.0714285,10.9803132 C23.0792898,10.9764148 23.0864676,10.9718017 23.0940554,10.9676435 C23.1026004,10.963875 23.1114871,10.9612111 23.1198953,10.9571178 C23.604153,10.7198363 24.1229322,10.5151712 24.661809,10.3487753 C28.1159391,9.28198302 30.8634386,10.2183744 32.560323,11.1916705 C33.5079888,11.7351699 33.8908696,12.8763563 33.4509771,13.8462738 Z" id="Shape"></path>
                    <path d="M6.20102009,27.0000987 C5.6349157,26.9926828 5.16232283,27.4041672 5.14937508,27.9295513 L5.14721712,28.0321371 C5.13735217,28.5575212 5.58980409,28.9908728 6.15755265,28.9999049 C6.16361548,29 6.16957556,29 6.17574115,29 C6.73526891,29 7.19388643,28.5848077 7.20354587,28.0650331 L7.20560106,27.9731907 C7.21875433,27.4479016 6.76897417,27.0121732 6.20102009,27.0000987 Z" id="Shape"></path>
                    <path d="M25.6193831,12.538993 C25.3589429,12.050559 24.7403335,11.8594805 24.2373155,12.1103897 C24.2343385,12.111888 24.2282817,12.1148845 24.2253047,12.1164826 C23.7246478,12.3721863 23.5320638,12.9726905 23.7924012,13.4610246 C23.9750276,13.8037274 24.3340181,14 24.7058408,14 C24.8639322,14 25.0243847,13.9645411 25.1744688,13.8896279 C25.1774458,13.8881296 25.1835026,13.8851331 25.1864796,13.883535 C25.6870339,13.6279312 25.8797205,13.027427 25.6193831,12.538993 Z" id="Shape"></path>
                    <path d="M31.506406,11.7820618 C29.8738331,11.068233 28.1367493,10.8415667 26.3435811,11.1082254 C25.9461771,11.1673474 25.6784453,11.4989054 25.7456153,11.8487586 C25.8128582,12.1985475 26.1886745,12.434265 26.5869537,12.3751431 C28.0697252,12.1543825 29.5064768,12.3421478 30.8570234,12.9327255 C30.9613885,12.9783669 31.0720986,13 31.1811312,13 C31.4495923,13 31.7079159,12.86911 31.8354002,12.6432782 C32.0147389,12.3254575 31.8674172,11.939913 31.506406,11.7820618 Z" id="Shape"></path>
                </g>
            </g>
        </g>
    </g>
</svg>