<?xml version="1.0" encoding="UTF-8" standalone="no"?>
<svg width="24px" height="29px" viewBox="0 0 24 29" version="1.1" xmlns="http://www.w3.org/2000/svg" xmlns:xlink="http://www.w3.org/1999/xlink">
    <!-- Generator: Sketch 47.1 (45422) - http://www.bohemiancoding.com/sketch -->
    <title>hourglass</title>
    <desc>Created with Sketch.</desc>
    <defs></defs>
    <g id="Page-1" stroke="none" stroke-width="1" fill="none" fill-rule="evenodd">
        <g id="BON-PLAN-RYANAIR" transform="translate(-75.000000, -387.000000)" fill-rule="nonzero" fill="#31CCCD">
            <g id="hourglass" transform="translate(75.000000, 387.000000)">
                <ellipse id="Oval" cx="12" cy="12.5666667" rx="1" ry="1"></ellipse>
                <ellipse id="Oval" cx="13.44" cy="11.6" rx="1" ry="1"></ellipse>
                <ellipse id="Oval" cx="10.56" cy="11.6" rx="1" ry="1"></ellipse>
                <ellipse id="Oval" cx="9.12" cy="10.6333333" rx="1" ry="1"></ellipse>
                <ellipse id="Oval" cx="14.88" cy="10.6333333" rx="1" ry="1"></ellipse>
                <ellipse id="Oval" cx="16.32" cy="9.66666667" rx="1" ry="1"></ellipse>
                <ellipse id="Oval" cx="7.68" cy="9.66666667" rx="1" ry="1"></ellipse>
                <ellipse id="Oval" cx="12" cy="10.6333333" rx="1" ry="1"></ellipse>
                <ellipse id="Oval" cx="12" cy="16.4333333" rx="1" ry="1"></ellipse>
                <ellipse id="Oval" cx="12" cy="17.8833333" rx="1" ry="1"></ellipse>
                <ellipse id="Oval" cx="12" cy="19.3333333" rx="1" ry="1"></ellipse>
                <ellipse id="Oval" cx="12" cy="20.7833333" rx="1" ry="1"></ellipse>
                <ellipse id="Oval" cx="12" cy="22.2333333" rx="1" ry="1"></ellipse>
                <ellipse id="Oval" cx="12" cy="23.6833333" rx="1" ry="1"></ellipse>
                <path d="M23.52,28.0333333 L22.08,28.0333333 L22.08,26.1 L19.68,26.1 L19.68,21.1593667 C19.68,19.8543667 19.03584,18.6421667 17.95728,17.9181333 L12.86544,14.5 L17.95728,11.0818667 C19.03584,10.3578333 19.68,9.14563333 19.68,7.84063333 L19.68,2.9 L22.08,2.9 L22.08,0.966666667 L23.52,0.966666667 C23.78496,0.966666667 24,0.750616667 24,0.483333333 C24,0.21605 23.78496,0 23.52,0 L22.08,0 L21.6,0 L2.4,0 L1.92,0 L0.48,0 C0.21504,0 0,0.21605 0,0.483333333 C0,0.750616667 0.21504,0.966666667 0.48,0.966666667 L1.92,0.966666667 L1.92,2.9 L4.32,2.9 L4.32,7.84063333 C4.32,9.14563333 4.96416,10.3578333 6.04272,11.0818667 L11.13456,14.5 L6.04272,17.9181333 C4.96416,18.6421667 4.32,19.8543667 4.32,21.1593667 L4.32,26.1 L1.92,26.1 L1.92,28.0333333 L0.48,28.0333333 C0.21504,28.0333333 0,28.2493833 0,28.5166667 C0,28.78395 0.21504,29 0.48,29 L1.92,29 L2.4,29 L21.6,29 L22.08,29 L23.52,29 C23.78496,29 24,28.78395 24,28.5166667 C24,28.2493833 23.78496,28.0333333 23.52,28.0333333 Z M2.88,1.93333333 L2.88,0.966666667 L21.12,0.966666667 L21.12,1.93333333 L19.68,1.93333333 L4.32,1.93333333 L2.88,1.93333333 Z M6.57504,10.2776 C5.76432,9.73288333 5.28,8.8218 5.28,7.84063333 L5.28,2.9 L18.72,2.9 L18.72,7.84063333 C18.72,8.8218 18.23568,9.73288333 17.42496,10.2776 L12,13.9190333 L6.57504,10.2776 Z M5.28,21.1593667 C5.28,20.1782 5.76432,19.2671167 6.57504,18.7224 L12,15.0809667 L17.42496,18.7224 C18.23568,19.2671167 18.72,20.1782 18.72,21.1593667 L18.72,26.1 L5.28,26.1 L5.28,21.1593667 Z M2.88,27.0666667 L4.32,27.0666667 L19.68,27.0666667 L21.12,27.0666667 L21.12,28.0333333 L2.88,28.0333333 L2.88,27.0666667 Z" id="Shape"></path>
            </g>
        </g>
    </g>
</svg>