<?xml version="1.0" encoding="UTF-8" standalone="no"?>
<svg width="24px" height="34px" viewBox="0 0 24 34" version="1.1" xmlns="http://www.w3.org/2000/svg" xmlns:xlink="http://www.w3.org/1999/xlink">
    <!-- Generator: Sketch 47.1 (45422) - http://www.bohemiancoding.com/sketch -->
    <title>location-pin</title>
    <desc>Created with Sketch.</desc>
    <defs></defs>
    <g id="Page-1" stroke="none" stroke-width="1" fill="none" fill-rule="evenodd">
        <g id="FICHES-PRATIQUES" transform="translate(-71.000000, -432.000000)" stroke="#FFFFFF" fill-rule="nonzero" fill="#32CCCD">
            <g id="Group-2" transform="translate(42.000000, 433.000000)">
                <g id="location-pin" transform="translate(30.000000, 0.000000)">
                    <path d="M11,0 C4.93461764,0 0,4.87184641 0,10.8601535 C0,13.2665557 1.43498328,16.9262504 4.51600393,22.3773206 C6.61843509,26.0967733 8.71117398,29.2384343 8.79945934,29.3707744 L10.3120467,31.634356 C10.4645516,31.8626475 10.7229462,32 11,32 C11.2770538,32 11.5354484,31.8626475 11.6879533,31.634356 L13.2004747,29.3709045 C13.2879029,29.2400617 15.3654111,26.1255457 17.4839961,22.3773206 C20.5650167,16.9265107 22,13.2668161 22,10.8601535 C22,4.87184641 17.0653824,0 11,0 Z M16.0446612,21.5842565 C13.9555486,25.2800794 11.9108755,28.3457083 11.8247,28.4745332 L11,29.7086875 L10.1755637,28.4748587 C10.0889267,28.3449923 8.02856132,25.2518929 5.95533884,21.5842565 C3.09743817,16.5278631 1.64834506,12.9197245 1.64834506,10.8601535 C1.64834506,5.76919415 5.84344918,1.62739889 11,1.62739889 C16.1565508,1.62739889 20.3516549,5.76919415 20.3516549,10.8601535 C20.3516549,12.9199849 18.9025618,16.5279933 16.0446612,21.5842565 Z" id="Shape"></path>
                    <path d="M11.5,5 C7.91586486,5 5,7.69163243 5,11 C5,14.3083676 7.91586486,17 11.5,17 C15.0841351,17 18,14.3083676 18,11 C18,7.69163243 15.0841351,5 11.5,5 Z M11.5,15.3783784 C8.88454054,15.3783784 6.75675676,13.4142703 6.75675676,11 C6.75675676,8.58572973 8.88454054,6.62162162 11.5,6.62162162 C14.1155297,6.62162162 16.2432432,8.58572973 16.2432432,11 C16.2432432,13.4142703 14.1155297,15.3783784 11.5,15.3783784 Z" id="Shape"></path>
                </g>
            </g>
        </g>
    </g>
</svg>