<?xml version="1.0" encoding="UTF-8" standalone="no"?>
<svg width="37px" height="35px" viewBox="0 0 37 35" version="1.1" xmlns="http://www.w3.org/2000/svg" xmlns:xlink="http://www.w3.org/1999/xlink">
    <!-- Generator: Sketch 47.1 (45422) - http://www.bohemiancoding.com/sketch -->
    <title>money</title>
    <desc>Created with Sketch.</desc>
    <defs></defs>
    <g id="Page-1" stroke="none" stroke-width="1" fill="none" fill-rule="evenodd">
        <g id="FICHES-PRATIQUES" transform="translate(-269.000000, -537.000000)" fill-rule="nonzero" fill="#32CCCD">
            <g id="Group-2" transform="translate(42.000000, 433.000000)">
                <g id="money" transform="translate(227.000000, 104.000000)">
                    <path d="M31.7429587,11.666667 C31.7425686,11.666667 31.7421005,11.666667 31.7417105,11.666667 L0.534885289,11.666667 C0.239824757,11.6663645 0.000312373653,11.8979072 3.05401362e-07,12.1838949 C3.05401362e-07,12.184273 3.05401362e-07,12.1847267 3.05401362e-07,12.1851048 L3.05401362e-07,26.7037844 C-0.00031176285,26.9897721 0.238576484,27.2219197 0.533637016,27.2222222 C0.534027101,27.2222222 0.534495203,27.2222222 0.534885289,27.2222222 L21.7555264,27.2222222 C22.050899,27.2222222 22.2904114,26.9900746 22.2904114,26.7037844 C22.2904114,26.4174942 22.050899,26.1853465 21.7555264,26.1853465 L1.06977027,26.1853465 L1.06977027,12.7035427 L31.2068255,12.7035427 L31.2068255,13.9999398 C31.2065134,14.2859275 31.4454017,14.5180751 31.7404622,14.5183776 C31.7408523,14.5183776 31.7413204,14.5183776 31.7417105,14.5183776 C32.036771,14.5186801 32.2762834,14.2871374 32.2765954,14.0011496 C32.2765954,14.0007716 32.2765954,14.0003178 32.2765954,13.9999398 L32.2765954,12.1851048 C32.2769075,11.8991171 32.0380193,11.6670451 31.7429587,11.666667 Z" id="Shape"></path>
                    <path d="M27.9311052,9.12756937 L3.4392807,3.9009325 C3.30335107,3.87211341 3.1609158,3.89548809 3.04312544,3.96597509 C2.92548814,4.03704284 2.84229247,4.14934294 2.81167769,4.27841183 L1.58708647,9.5050487 C1.52417309,9.77349458 1.70265726,10.0394723 1.98569091,10.0991431 C2.26872456,10.1588139 2.54915595,9.9895289 2.61206932,9.72108302 L3.72216127,4.98168486 L27.7008821,10.0985624 C27.7388444,10.1069105 27.7776487,10.1110482 27.816606,10.1107578 C28.1063749,10.1102497 28.3408841,9.88702874 28.3404249,9.61219476 C28.3399656,9.37982719 28.1700536,9.17874686 27.9311052,9.12756937 Z" id="Shape"></path>
                    <path d="M24.861425,6.01297378 L9.87307311,0.0396432883 C9.61257243,-0.0642179956 9.31241507,0.0424806203 9.18610698,0.283952505 L7.93707766,2.6732847 C7.79601541,2.92282058 7.89312744,3.23455377 8.1540965,3.36947637 C8.4149875,3.50439897 8.74090609,3.41151368 8.88196834,3.16190313 C8.88751091,3.15212181 8.89274122,3.14211648 8.89758121,3.13196182 L8.89758121,3.13315648 L9.92240977,1.17151475 L24.4479963,6.96026933 C24.7215337,7.06943194 25.0358207,6.94593333 25.1499507,6.68430146 C25.2640808,6.42281891 25.1349624,6.12221106 24.861425,6.01297378 Z" id="Shape"></path>
                    <path d="M25.4194781,14 L20.2400964,14 C19.9312716,14 19.6808511,14.1741378 19.6808511,14.3888889 C19.6808511,14.60364 19.9312716,14.7777778 20.2400964,14.7777778 L25.4194781,14.7777778 C25.7283029,14.7777778 25.9787234,14.60364 25.9787234,14.3888889 C25.9787234,14.1741378 25.7283029,14 25.4194781,14 Z" id="Shape"></path>
                    <path d="M15.7446809,14 C12.7012273,14 10.2340426,16.4375489 10.2340426,19.4444444 C10.2371736,22.4500253 12.702558,24.8857955 15.7446809,24.8888889 C18.7881344,24.8888889 21.2553191,22.45134 21.2553191,19.4444444 C21.2553191,16.4375489 18.7881344,14 15.7446809,14 Z M15.7446809,23.8989899 C13.2545612,23.8989899 11.2359768,21.9046528 11.2359768,19.4444444 C11.2387165,16.9853961 13.2557353,14.9926057 15.7446809,14.989899 C18.2348005,14.989899 20.2533849,16.9842361 20.2533849,19.4444444 C20.2533849,21.9046528 18.2348005,23.8989899 15.7446809,23.8989899 Z" id="Shape"></path>
                    <path d="M30.3085106,15.5555556 C27.0844294,15.5555556 23.6170213,16.3163194 23.6170213,17.9861111 L23.6170213,32.5694444 C23.6170213,34.2392361 27.0844294,35 30.3085106,35 C33.5325919,35 37,34.2392361 37,32.5694444 L37,17.9861111 C37,16.3163194 33.5325919,15.5555556 30.3085106,15.5555556 Z M35.7833656,32.5603299 C35.6915097,32.8975694 33.8671663,33.7847222 30.3085106,33.7847222 C26.7498549,33.7847222 24.9255116,32.8975694 24.8336557,32.5694444 L24.8336557,31.6142361 C26.1281547,32.265625 28.2663897,32.5694444 30.3085106,32.5694444 C32.3506315,32.5694444 34.4894749,32.2625868 35.7833656,31.6136285 L35.7833656,32.5603299 Z M35.7833656,30.1297743 C35.6915097,30.4670139 33.8671663,31.3541667 30.3085106,31.3541667 C26.7498549,31.3541667 24.9255116,30.4670139 24.8336557,30.1388889 L24.8336557,29.1836806 C26.1281547,29.8350694 28.2663897,30.1388889 30.3085106,30.1388889 C32.3506315,30.1388889 34.4894749,29.8320313 35.7833656,29.1830729 L35.7833656,30.1297743 Z M35.7833656,27.6992188 C35.6915097,28.0364583 33.8671663,28.9236111 30.3085106,28.9236111 C26.7498549,28.9236111 24.9255116,28.0364583 24.8336557,27.7083333 L24.8336557,26.753125 C26.1281547,27.4045139 28.2663897,27.7083333 30.3085106,27.7083333 C32.3506315,27.7083333 34.4894749,27.4014757 35.7833656,26.7525174 L35.7833656,27.6992188 Z M35.7833656,25.2686632 C35.6915097,25.6059028 33.8671663,26.4930556 30.3085106,26.4930556 C26.7498549,26.4930556 24.9255116,25.6059028 24.8336557,25.2777778 L24.8336557,24.3225694 C26.1281547,24.9739583 28.2663897,25.2777778 30.3085106,25.2777778 C32.3506315,25.2777778 34.4894749,24.9709201 35.7833656,24.3219618 L35.7833656,25.2686632 Z M35.7833656,22.8381076 C35.6915097,23.1753472 33.8671663,24.0625 30.3085106,24.0625 C26.7498549,24.0625 24.9255116,23.1753472 24.8336557,22.8472222 L24.8336557,21.8920139 C26.1281547,22.5403646 28.2663897,22.8472222 30.3085106,22.8472222 C32.3506315,22.8472222 34.4894749,22.5403646 35.7833656,21.8914063 L35.7833656,22.8381076 Z M35.7833656,20.4075521 C35.6915097,20.7447917 33.8671663,21.6319444 30.3085106,21.6319444 C26.7498549,21.6319444 24.9255116,20.7447917 24.8336557,20.4166667 L24.8336557,19.4614583 C26.1281547,20.109809 28.2663897,20.4166667 30.3085106,20.4166667 C32.3506315,20.4166667 34.4894749,20.109809 35.7833656,19.4608507 L35.7833656,20.4075521 Z M30.3085106,19.2013889 C26.7553298,19.2013889 24.9315948,18.3166667 24.8336557,17.9970486 L24.8336557,17.9934028 C24.9315948,17.6549479 26.7553298,16.7708333 30.3085106,16.7708333 C33.8367505,16.7708333 35.6617021,17.6421875 35.7833656,17.9861111 C35.6617021,18.3300347 33.8367505,19.2013889 30.3085106,19.2013889 Z" id="Shape"></path>
                    <path d="M10.4801716,23.8352247 L5.7074616,23.8352247 L3.44454419,21.4254443 L3.44454419,17.4296351 L5.9436031,15.0536655 L10.4801716,15.0536655 C10.778979,15.0536655 11.0212766,14.817759 11.0212766,14.5268334 C11.0212766,14.2359077 10.778979,14.0000013 10.4801716,14.0000013 L5.72387786,14.0000013 C5.58244552,13.9996939 5.44645896,14.05333 5.34504124,14.1493831 L2.5246026,16.8278048 C2.41923866,16.947679 2.36146608,17.1003651 2.36170285,17.2581227 L2.36170285,21.6301527 C2.36170285,21.7616302 2.41213548,21.8883435 2.50313519,21.9854724 L5.0684905,24.7173764 C5.17101316,24.8266464 5.31607602,24.8889657 5.46816314,24.8888888 L10.4801716,24.8888888 C10.778979,24.8888888 11.0212766,24.6529824 11.0212766,24.3620567 C11.0212766,24.0711311 10.7790579,23.8352247 10.4801716,23.8352247 Z" id="Shape"></path>
                    <path d="M15.679078,18.4506173 L15.0230496,18.4506173 C14.8190248,18.4506173 14.6950355,18.345358 14.6950355,18.2993827 C14.6950355,18.2534074 14.8190248,18.1481481 15.0230496,18.1481481 L16.6631206,18.1481481 C17.0254122,18.1481481 17.3191489,17.877287 17.3191489,17.5432099 C17.3191489,17.2091327 17.0254122,16.9382716 16.6631206,16.9382716 L16.0070922,16.9382716 C16.0070922,16.6041944 15.7133555,16.3333333 15.3510638,16.3333333 C14.9887722,16.3333333 14.6950355,16.6041944 14.6950355,16.9382716 L14.6950355,16.9654938 C13.967418,17.0602423 13.4161902,17.6194321 13.3829787,18.296358 C13.4299668,19.0895077 14.1625864,19.6989074 15.0230496,19.6604938 L15.679078,19.6604938 C15.8831028,19.6604938 16.0070922,19.7657531 16.0070922,19.8117284 C16.0070922,19.8577037 15.8831028,19.962963 15.679078,19.962963 L14.0390071,19.962963 C13.6767154,19.962963 13.3829787,20.2338241 13.3829787,20.5679012 C13.3829787,20.9019784 13.6767154,21.1728395 14.0390071,21.1728395 L14.6950355,21.1728395 C14.6950355,21.5069167 14.9887722,21.7777778 15.3510638,21.7777778 C15.7133555,21.7777778 16.0070922,21.5069167 16.0070922,21.1728395 L16.0070922,21.1456173 C16.7347097,21.0508688 17.2859375,20.491679 17.3191489,19.8147531 C17.2721609,19.0216034 16.5395412,18.4122037 15.679078,18.4506173 Z" id="Shape"></path>
                </g>
            </g>
        </g>
    </g>
</svg>