<?xml version="1.0" encoding="UTF-8" standalone="no"?>
<svg width="43px" height="41px" viewBox="0 0 43 41" version="1.1" xmlns="http://www.w3.org/2000/svg" xmlns:xlink="http://www.w3.org/1999/xlink">
    <!-- Generator: Sketch 47.1 (45422) - http://www.bohemiancoding.com/sketch -->
    <title>stethoscope</title>
    <desc>Created with Sketch.</desc>
    <defs></defs>
    <g id="Page-1" stroke="none" stroke-width="1" fill="none" fill-rule="evenodd">
        <g id="FICHES-PRATIQUES" transform="translate(-63.000000, -645.000000)" fill-rule="nonzero" fill="#32CCCD">
            <g id="Group-2" transform="translate(42.000000, 433.000000)">
                <g id="stethoscope" transform="translate(22.000000, 213.000000)">
                    <path d="M40.9503272,21.8534854 C40.647359,19.7563191 38.9984162,18.1088139 36.89942,17.8061098 L36.89942,16.5649124 C36.89942,13.1403544 34.293911,10.3520979 31.091178,10.3520979 C27.9806935,10.3520979 25.3765511,13.0556963 25.2829359,16.3792107 L25.2829359,29.8405363 C25.2829359,34.1417156 22.0644865,37.6345463 18.1080487,37.6345463 C14.1516109,37.6345463 10.9331615,34.1369365 10.9331615,29.8405363 L10.9331615,28.6751216 C11.9239793,28.6751216 12.9831293,27.9575756 12.9831293,25.9442141 L12.9831293,24.227156 C17.3686937,23.1068012 20.4996778,19.3442935 20.4996778,15.078616 L20.4996778,13.6551305 L19.1330326,13.6551305 L19.1043331,4.76944029 C19.0944249,3.12466592 17.913131,1.72029676 16.2931439,1.42749227 C15.9437098,0.35791529 14.7925675,-0.226157545 13.7219718,0.123057248 C12.6514616,0.4721867 12.0668791,1.62232545 12.4163986,2.69198777 C12.7658327,3.76156475 13.916975,4.34563759 14.9875707,3.99642279 C15.5607929,3.80944097 16.0217794,3.37855498 16.246678,2.81957235 C17.1220996,3.0684263 17.7285484,3.86414446 17.7356379,4.77353665 L17.7663874,13.6551305 L16.3997422,13.6551305 L16.3997422,15.0984151 C16.3452473,17.4731951 14.751739,19.5369078 12.4665374,20.1922402 C11.243817,20.5798584 9.93098349,20.5798584 8.70826313,20.1922402 C6.42570942,19.5346889 4.83578858,17.4713176 4.78325815,15.0984151 L4.78325815,13.6551305 L2.73329037,13.6551305 L2.73329037,4.77968119 C2.73721948,3.85689049 3.35835971,3.05059006 4.25026653,2.8106969 C4.66615374,3.86849685 5.8615412,4.38907608 6.92026415,3.97355144 C7.97898709,3.5580268 8.50002057,2.36359615 8.08413335,1.30588155 C7.66824614,0.248166946 6.47277326,-0.272497632 5.41413574,0.143027009 C4.84048642,0.368241534 4.39786421,0.838213642 4.20790053,1.42407864 C2.57023252,1.70365529 1.3711722,3.11971615 1.36664519,4.77968119 L1.36664519,13.6551305 L0,13.6551305 L0,15.0752024 C0,19.3456589 3.13303409,23.1095321 7.51654853,24.227156 L7.51654853,25.9442141 C7.51654853,27.9575756 8.57569854,28.6751216 9.5665163,28.6751216 L9.5665163,29.8405363 C9.5665163,34.8927152 13.3979061,39 18.1080487,39 C22.8181914,39 26.6495811,34.8879361 26.6495811,29.8405363 L26.6495811,16.4188088 C26.7179134,13.8278604 28.7118487,11.7195998 31.091178,11.7195998 C33.5402062,11.7195998 35.5327748,13.8934022 35.5327748,16.5669606 L35.5327748,17.8061098 C32.9181264,18.1831457 31.1045028,20.6065701 31.4818677,23.2189391 C31.8592326,25.8313081 34.2847715,27.6433506 36.89942,27.2663147 C39.5140685,26.8892788 41.3276921,24.4657691 40.9503272,21.8534854 Z M14.3497745,2.73150059 C13.9724096,2.73150059 13.6664519,2.42580963 13.6664519,2.04877372 C13.6664519,1.67173781 13.9724096,1.36604685 14.3497745,1.36604685 C14.7271394,1.36604685 15.0330971,1.67173781 15.0330971,2.04877372 C15.0330971,2.42580963 14.7271394,2.73150059 14.3497745,2.73150059 Z M6.14990334,1.36604685 C6.52726824,1.36604685 6.83322593,1.67173781 6.83322593,2.04877372 C6.83322593,2.42580963 6.52726824,2.73150059 6.14990334,2.73150059 C5.77253844,2.73150059 5.46658075,2.42580963 5.46658075,2.04877372 C5.46658075,1.67173781 5.77253844,1.36604685 6.14990334,1.36604685 Z M1.36664519,15.0752024 L1.36664519,15.0205842 L3.41661297,15.0205842 L3.41661297,15.0984151 C3.46786216,18.0658021 5.44377485,20.6554704 8.29416964,21.4907867 C9.78782741,21.9633191 11.391073,21.9633191 12.8847308,21.4907867 C15.7364922,20.6565798 17.7141987,18.0668262 17.7663874,15.0984151 L17.7663874,15.0205842 L19.1330326,15.0205842 L19.1330326,15.0752024 C19.1330326,18.8732119 16.2029453,22.2151599 12.1631422,23.0235086 C11.2145196,23.2133066 10.2428348,23.2609268 9.28020414,23.164833 C8.96331329,23.1341103 8.64830157,23.0864901 8.33653564,23.0221431 C4.29673247,22.2151599 1.36664519,18.8732119 1.36664519,15.0752024 Z M9.5665163,27.3096678 C8.95152597,27.3096678 8.88319371,26.3538502 8.88319371,25.9442141 L8.88319371,24.4954677 C8.93785952,24.502295 8.99389197,24.5050259 9.0492411,24.5104877 C9.11757336,24.5179977 9.18590562,24.5234595 9.25423788,24.529604 C9.57744947,24.5582786 9.90339434,24.5773949 10.2320725,24.5780776 L10.2662386,24.5780776 C10.5942335,24.5780776 10.919495,24.5582786 11.2406567,24.529604 C11.3089889,24.5234595 11.3814211,24.5179977 11.4518033,24.5104877 C11.5057858,24.5043431 11.5618183,24.502295 11.6158008,24.4954677 L11.6158008,25.9442141 C11.6158008,26.3538502 11.5474685,27.3096678 10.9324782,27.3096678 L9.5665163,27.3096678 Z M36.2160974,25.9442141 C34.3291875,25.9442141 32.7994845,24.4158447 32.7994845,22.5305798 C32.7994845,20.6453149 34.3291875,19.1169454 36.2160974,19.1169454 C38.1030074,19.1169454 39.6327104,20.6453149 39.6327104,22.5305798 C39.6304896,24.4149913 38.1020678,25.9419952 36.2160974,25.9442141 Z" id="Shape" stroke="#FFFFFF" stroke-width="0.5"></path>
                    <path d="M36,20 C34.8954167,20 34,20.8954167 34,22 C34,23.1045833 34.8954167,24 36,24 C37.1045833,24 38,23.1045833 38,22 C38,20.8954167 37.1045833,20 36,20 Z M36,22.6666667 C35.6318333,22.6666667 35.3333333,22.3681667 35.3333333,22 C35.3333333,21.6318333 35.6318333,21.3333333 36,21.3333333 C36.3681667,21.3333333 36.6666667,21.6318333 36.6666667,22 C36.6666667,22.3681667 36.3681667,22.6666667 36,22.6666667 Z" id="Shape"></path>
                </g>
            </g>
        </g>
    </g>
</svg>