<?xml version="1.0" encoding="UTF-8" standalone="no"?>
<svg width="29px" height="34px" viewBox="0 0 29 34" version="1.1" xmlns="http://www.w3.org/2000/svg" xmlns:xlink="http://www.w3.org/1999/xlink">
    <!-- Generator: Sketch 47.1 (45422) - http://www.bohemiancoding.com/sketch -->
    <title>visa</title>
    <desc>Created with Sketch.</desc>
    <defs></defs>
    <g id="Page-1" stroke="none" stroke-width="1" fill="none" fill-rule="evenodd">
        <g id="FICHES-PRATIQUES" transform="translate(-274.000000, -432.000000)" stroke="#FFFFFF" stroke-width="0.5" fill="#32CCCD" fill-rule="nonzero">
            <g id="Group-2" transform="translate(42.000000, 433.000000)">
                <g id="visa" transform="translate(233.000000, 0.000000)">
                    <path d="M25.2574861,2.27965022 L8.63671809,0.0187179132 C7.53695662,-0.131454712 6.51795913,0.638521295 6.3674029,1.73462977 L6.00487934,4.37630278 C5.96586882,4.65950711 6.16503581,4.92071647 6.4498431,4.9592456 C6.73282177,4.9983815 6.99675233,4.79981992 7.03545808,4.5163122 L7.39798164,1.87494258 C7.47112637,1.3447877 7.96500567,0.971479793 8.49606687,1.04474583 L25.1168349,3.30552645 C25.64942,3.37833742 26.0236771,3.86859795 25.9508372,4.39860114 L22.6937634,28.1255726 C22.6206187,28.6557275 22.1258251,29.0285803 21.5956782,28.9557693 L20.4852498,28.8048383 C20.1986139,28.7649439 19.9383405,28.9641123 19.8996348,29.2474683 C19.8606243,29.5306726 20.0597913,29.791882 20.3442938,29.8304111 L21.4547222,29.9813422 C21.5467626,29.9937807 21.6383459,30 21.7288625,30 C22.7199736,30 23.5865862,29.269615 23.7241898,28.2654303 L26.9812635,4.53861056 C27.1318198,3.44280547 26.3584667,2.42951947 25.2574861,2.27965022 Z" id="Shape"></path>
                    <path d="M18.0627678,4 L1.93723221,4 C0.868934705,4 0,4.90142251 0,6.00898428 L0,29.9910157 C0,31.0988813 0.869227671,32 1.93723221,32 L18.0627678,32 C19.1307723,32 19.999707,31.0988813 20,29.9910157 L20,6.00898428 C20,4.90111869 19.1307723,4 18.0627678,4 Z M19.0001099,29.9911676 C19.0001099,30.5270993 18.5795584,30.9630755 18.0629143,30.9630755 L1.93723221,30.9630755 C1.42044164,30.9630755 1.00003662,30.5269474 1.00003662,29.9911676 L1.00003662,6.00913619 C1.00003662,5.4732045 1.42058813,5.03722833 1.93723221,5.03722833 L18.0627678,5.03722833 C18.5795584,5.03722833 18.9999634,5.47335641 18.9999634,6.00913619 L18.9999634,29.9911676 L19.0001099,29.9911676 Z" id="Shape"></path>
                    <path d="M15.4783074,25 L4.52169261,25 C4.23371462,25 4,25.2239965 4,25.5 C4,25.7760035 4.23371462,26 4.52169261,26 L15.4783074,26 C15.7665911,26 16,25.7760035 16,25.5 C16,25.2239965 15.7664382,25 15.4783074,25 Z" id="Shape"></path>
                    <path d="M10.461587,28 L4.538413,28 C4.24120524,28 4,28.2239965 4,28.5 C4,28.7760035 4.24120524,29 4.538413,29 L10.461587,29 C10.7591103,29 11,28.7760035 11,28.5 C11,28.2239965 10.7587948,28 10.461587,28 Z" id="Shape"></path>
                    <path d="M18.4999009,9 L2.49995261,9 C2.22397525,9 2,9.2239756 2,9.49995339 L2,19.5000466 C2,19.7760244 2.22397525,20 2.49995261,20 L18.5000474,20 C18.7763177,20 19,19.7760244 19,19.5000466 L19,9.49995339 C19,9.2239756 18.7760247,9 18.4999009,9 Z M17.9999483,18.9999467 L2.99990522,18.9999467 L2.99990522,9.99990678 L17.9999483,9.99990678 L17.9999483,18.9999467 Z" id="Shape"></path>
                    <path d="M9.49989929,9 L2.49995422,9 C2.22397598,9 2,9.22397773 2,9.49995815 L2,15.5000419 C2,15.7760223 2.22397598,16 2.49995422,16 L9.50004578,16 C9.77631699,16 10,15.7760223 10,15.5000419 L10,9.49995815 C10,9.22397773 9.77602402,9 9.49989929,9 Z M8.99994507,15.0000837 L2.99990845,15.0000837 L2.99990845,9.99991629 L8.99994507,9.99991629 L8.99994507,15.0000837 Z" id="Shape"></path>
                    <path d="M6.9761431,12.4910091 C6.91091186,12.2826029 6.7240679,12.1413431 6.51281574,12.1413431 L6.13670127,12.1413431 C5.88219952,12.1413431 5.65824369,11.972365 5.57959509,11.7209731 L5.4634064,11.349666 C5.39817516,11.1412597 5.21104572,11 5.00007905,11 C4.78911237,11 4.60198293,11.1411115 4.53675169,11.349666 L4.42056301,11.7212696 C4.3419144,11.9726615 4.11795857,12.1416396 3.86345682,12.1416396 L3.48719961,12.1416396 C3.27623293,12.1416396 3.08910349,12.2827511 3.02387225,12.4913056 C2.95864102,12.6997119 3.03015272,12.9281287 3.20101004,13.0569375 L3.50532733,13.2863919 C3.71115544,13.4417331 3.79665547,13.7149144 3.71800686,13.9664545 L3.60181818,14.3377616 C3.53672968,14.5461679 3.60809865,14.7745847 3.77895596,14.9033935 C3.94967054,15.0322022 4.18119148,15.0322022 4.35162058,14.9033935 L4.65608061,14.6736426 C4.86247967,14.5180049 5.13896306,14.5185978 5.34479117,14.6736426 L5.64910846,14.903097 C5.73432301,14.9675755 5.83481052,14.9997406 5.93529803,14.9997406 C6.03564281,14.9997406 6.13627306,14.9674273 6.22134487,14.903097 C6.39205945,14.7742883 6.46371389,14.5458714 6.39848265,14.3374651 L6.28200849,13.9661581 C6.20350263,13.7147661 6.28900265,13.4414367 6.4949735,13.2860954 L6.79929079,13.056641 C6.96971989,12.9278323 7.04137434,12.6994154 6.9761431,12.4910091 Z M5.29083623,13.572617 C5.19463086,13.5539405 5.09742632,13.5443058 4.99993631,13.5443058 C4.90273177,13.5443058 4.80524176,13.5539405 4.70903638,13.572617 C4.6846282,13.3711774 4.62353636,13.1764079 4.52947205,12.998388 C4.70632436,12.9118238 4.86619086,12.791464 4.99993631,12.6435341 C5.13396723,12.791464 5.29354825,12.9119721 5.47040056,12.998388 C5.37633626,13.1765561 5.31538716,13.3713256 5.29083623,13.572617 Z" id="Shape"></path>
                    <path d="M18.5000439,11 L9.49995605,11 C9.2239768,11 9,11.2239965 9,11.5 C9,11.7760035 9.2239768,12 9.49995605,12 L18.5000439,12 C18.7763161,12 18.9999999,11.7760035 18.9999999,11.5 C19.0001464,11.2239965 18.7761696,11 18.5000439,11 Z" id="Shape"></path>
                    <path d="M18.5000439,13 L9.49995605,13 C9.2239768,13 9,13.2239965 9,13.5 C9,13.7760035 9.2239768,14 9.49995605,14 L18.5000439,14 C18.7763162,14 19,13.7760035 19,13.5 C19,13.2239965 18.7761697,13 18.5000439,13 Z" id="Shape"></path>
                    <path d="M18.5000439,15 L9.49995605,15 C9.2239768,15 9,15.2239965 9,15.5 C9,15.7760035 9.2239768,16 9.49995605,16 L18.5000439,16 C18.7763162,16 19,15.7760035 19,15.5 C19,15.2239965 18.7761697,15 18.5000439,15 Z" id="Shape"></path>
                    <path d="M18.4999009,18 L2.49995261,18 C2.22397525,18 2,18.2239965 2,18.5 C2,18.7760035 2.22397525,19 2.49995261,19 L18.5000474,19 C18.7763177,19 19,18.7760035 19,18.5 C19,18.2239965 18.7760247,18 18.4999009,18 Z" id="Shape"></path>
                </g>
            </g>
        </g>
    </g>
</svg>