<svg width="340" height="152" viewBox="0 0 340 152" fill="none" xmlns="http://www.w3.org/2000/svg">
<g filter="url(#filter0_d)">
<mask id="mask0" mask-type="alpha" maskUnits="userSpaceOnUse" x="10" y="5" width="320" height="133">
<rect width="319.067" height="131.793" rx="13" transform="translate(10.4668 5.20703)" fill="#C4C4C4" fill-opacity="0.35"/>
</mask>
<g mask="url(#mask0)">
<rect width="338.559" height="169.303" transform="translate(10.4668 -5.94458)" fill="url(#paint0_linear)"/>
<path d="M112.288 22H115.84L124.144 2.2H119.056L114.064 15.208L109.072 2.2H103.984L112.288 22ZM122.341 15.856C122.341 19.648 125.317 22.36 129.757 22.36C134.005 22.36 137.101 19.648 137.101 15.856C137.101 12.016 133.837 9.328 129.757 9.328C125.605 9.328 122.341 12.016 122.341 15.856ZM126.853 15.856C126.853 14.152 128.125 12.952 129.733 12.952C131.317 12.952 132.589 14.152 132.589 15.856C132.589 17.536 131.389 18.736 129.733 18.736C128.005 18.736 126.853 17.536 126.853 15.856ZM141.233 2.08C139.841 2.08 138.713 3.208 138.713 4.6C138.713 5.992 139.841 7.12 141.233 7.12C142.625 7.12 143.753 5.992 143.753 4.6C143.753 3.208 142.625 2.08 141.233 2.08ZM139.049 9.688H143.297V22H139.049V9.688ZM146.292 22H150.54V15.52C150.54 15.208 150.852 13.024 153.06 13.024C154.476 13.024 155.268 13.696 155.268 13.696L157.044 10.096C157.044 10.096 155.94 9.328 154.356 9.328C151.932 9.328 150.588 11.464 150.588 11.464H150.54V9.688H146.292V22ZM179.207 15.832C179.207 12.232 176.687 9.328 173.087 9.328C171.407 9.328 169.967 10.072 169.055 11.08H169.007V9.688H164.807V28.24H169.055V20.824C170.063 21.808 171.431 22.36 173.087 22.36C176.687 22.36 179.207 19.432 179.207 15.832ZM174.695 15.832C174.695 17.536 173.423 18.736 171.815 18.736C170.231 18.736 168.959 17.536 168.959 15.832C168.959 14.152 170.159 12.952 171.815 12.952C173.543 12.952 174.695 14.152 174.695 15.832ZM181.19 22H185.438V1.36H181.19V22ZM192.323 9.688H188.075V16.576C188.075 20.704 190.139 22.36 194.747 22.36C199.355 22.36 201.419 20.704 201.419 16.576V9.688H197.171V15.544C197.171 17.968 196.523 18.904 194.747 18.904C192.971 18.904 192.323 17.968 192.323 15.544V9.688ZM209.323 9.328C206.083 9.328 203.947 10.768 203.947 13.288C203.947 15.136 205.195 16 206.443 16.648C207.835 17.368 209.179 17.44 209.179 18.328C209.179 19.144 208.459 19.216 207.859 19.216C206.491 19.216 204.811 17.8 204.811 17.8L203.083 20.704C203.083 20.704 204.859 22.36 207.835 22.36C210.355 22.36 213.667 21.784 213.667 18.16C213.667 15.64 211.555 14.728 209.923 14.224C208.867 13.888 208.003 13.696 208.003 13.048C208.003 12.472 208.387 12.304 209.323 12.304C210.619 12.304 212.059 13.072 212.059 13.072L213.451 10.288C213.451 10.288 211.699 9.328 209.323 9.328Z" transform="translate(11 57)" fill="#A2A1A1"/>
</g>
</g>
<defs>
<filter id="filter0_d" x="0.466797" y="0.207031" width="339.067" height="151.793" filterUnits="userSpaceOnUse" color-interpolation-filters="sRGB">
<feFlood flood-opacity="0" result="BackgroundImageFix"/>
<feColorMatrix in="SourceAlpha" type="matrix" values="0 0 0 0 0 0 0 0 0 0 0 0 0 0 0 0 0 0 255 0"/>
<feOffset dy="5"/>
<feGaussianBlur stdDeviation="5"/>
<feColorMatrix type="matrix" values="0 0 0 0 0.0414847 0 0 0 0 0.0414847 0 0 0 0 0.0414847 0 0 0 0.25 0"/>
<feBlend mode="normal" in2="BackgroundImageFix" result="effect1_dropShadow"/>
<feBlend mode="normal" in="SourceGraphic" in2="effect1_dropShadow" result="shape"/>
</filter>
<linearGradient id="paint0_linear" x2="1" gradientUnits="userSpaceOnUse" gradientTransform="translate(2.05305 141.445) scale(282.96 141.5) rotate(-90)">
<stop stop-color="#D0DBDC"/>
<stop offset="1" stop-color="#C4C4C4" stop-opacity="0"/>
</linearGradient>
</defs>
</svg>
