<?xml version="1.0" encoding="UTF-8"?>
<svg width="24px" height="24px" viewBox="0 0 24 24" version="1.1" xmlns="http://www.w3.org/2000/svg" xmlns:xlink="http://www.w3.org/1999/xlink">
    <!-- Generator: Sketch 50.2 (55047) - http://www.bohemiancoding.com/sketch -->
    <title>noun_1150990_cc</title>
    <desc>Created with Sketch.</desc>
    <defs></defs>
    <g id="Page-1" stroke="none" stroke-width="1" fill="none" fill-rule="evenodd">
        <g id="PAGE-ARTICLE" transform="translate(-129.000000, -1135.000000)" fill="#9B9B9B" fill-rule="nonzero">
            <g id="social-medias" transform="translate(127.000000, 1005.000000)">
                <g id="noun_1150990_cc" transform="translate(2.000000, 130.000000)">
                    <path d="M17.6470588,6.26949473e-16 L6.35294118,6.26949473e-16 C2.84430865,0 6.26949473e-16,2.84430865 0,6.35294118 L0,17.6470588 C-1.88084842e-15,21.1556914 2.84430865,24 6.35294118,24 L17.6470588,24 C19.3319636,24 20.947859,23.3306742 22.1392666,22.1392666 C23.3306742,20.947859 24,19.3319636 24,17.6470588 L24,6.35294118 C24,2.84430865 21.1556914,0 17.6470588,6.26949473e-16 Z M22.5882353,17.6470588 C22.5882353,20.3759952 20.3759952,22.5882353 17.6470588,22.5882353 L6.35294118,22.5882353 C3.62400477,22.5882353 1.41176471,20.3759952 1.41176471,17.6470588 L1.41176471,6.35294118 C1.41176471,3.62400477 3.62400477,1.41176471 6.35294118,1.41176471 L17.6470588,1.41176471 C20.3759952,1.41176471 22.5882353,3.62400477 22.5882353,6.35294118 L22.5882353,17.6470588 Z" id="Shape"></path>
                    <path d="M11.5,6 C8.46243388,6 6,8.46243388 6,11.5 C6,14.5375661 8.46243388,17 11.5,17 C14.5375661,17 17,14.5375661 17,11.5 C17,10.0413093 16.4205374,8.64236278 15.3890873,7.6109127 C14.3576372,6.57946262 12.9586907,6 11.5,6 Z M11.5,15.625 C9.22182541,15.625 7.375,13.7781746 7.375,11.5 C7.375,9.22182541 9.22182541,7.375 11.5,7.375 C13.7781746,7.375 15.625,9.22182541 15.625,11.5 C15.625,12.594018 15.190403,13.6432279 14.4168155,14.4168155 C13.6432279,15.190403 12.594018,15.625 11.5,15.625 Z" id="Shape"></path>
                    <path d="M17.5,4 C16.6715729,4 16,4.67157288 16,5.5 C16,6.32842712 16.6715729,7 17.5,7 C18.3284271,7 19,6.32842712 19,5.5 C19,4.67157288 18.3284271,4 17.5,4 Z" id="Shape"></path>
                </g>
            </g>
        </g>
    </g>
</svg>