<?xml version="1.0" encoding="UTF-8"?>
<svg width="54px" height="82px" viewBox="0 0 54 82" version="1.1" xmlns="http://www.w3.org/2000/svg" xmlns:xlink="http://www.w3.org/1999/xlink">
    <!-- Generator: Sketch 48.2 (47327) - http://www.bohemiancoding.com/sketch -->
    <title>fiche pratique</title>
    <desc>Created with Sketch.</desc>
    <defs></defs>
    <g id="Desktop-HD" stroke="none" stroke-width="1" fill="none" fill-rule="evenodd" transform="translate(-540.000000, -837.000000)">
        <g id="Concept" transform="translate(112.000000, 807.000000)" fill-rule="nonzero">
            <g id="fiche-pratique" transform="translate(428.734375, 30.000000)">
                <g id="Group">
                    <g transform="translate(3.843750, 24.343750)" id="Shape">
                        <path d="M9.61257813,6.4088125 C7.84701563,6.4088125 6.41025391,4.97205078 6.41025391,3.20648828 C6.41025391,1.44092578 7.84701563,0.0041640625 9.61257813,0.0041640625 C11.3781406,0.0041640625 12.8149023,1.44092578 12.8149023,3.20648828 C12.8149023,4.97205078 11.3781406,6.4088125 9.61257813,6.4088125 Z M9.61257813,1.28493359 C8.55298438,1.28493359 7.69118359,2.14673437 7.69118359,3.20632812 C7.69118359,4.26576172 8.55298438,5.12772266 9.61257813,5.12772266 C10.6720117,5.12772266 11.5339727,4.26576172 11.5339727,3.20632812 C11.5339727,2.14689453 10.6720117,1.28493359 9.61257813,1.28493359 Z" fill="#000000"></path>
                        <path d="M40.3550508,49.960582 L4.48869922,49.960582 C4.13475391,49.960582 3.84823437,49.6740625 3.84823437,49.3201172 L3.84823437,46.7582578 C3.84823437,46.4043125 4.13475391,46.117793 4.48869922,46.117793 L40.3548906,46.117793 C40.7089961,46.117793 40.9953555,46.4043125 40.9953555,46.7582578 L40.9953555,49.3201172 C40.9955156,49.6740625 40.7091563,49.960582 40.3550508,49.960582 Z M5.12916406,48.6796523 L39.7144258,48.6796523 L39.7144258,47.3987227 L5.12916406,47.3987227 L5.12916406,48.6796523 Z" fill="#000000"></path>
                        <g transform="translate(0.000000, 5.125000)" fill="#000000">
                            <g transform="translate(8.968750, 0.000000)">
                                <path d="M0.6431875,17.9358984 C0.518105469,17.9358984 0.391742188,17.899543 0.281074219,17.8233086 C-0.0104101562,17.6231133 -0.0842421875,17.2241641 0.115953125,16.9326797 L7.16106641,6.68508203 C7.36238281,6.39295703 7.76085156,6.319125 8.05169531,6.51996094 C8.34317969,6.72063672 8.41701172,7.11910547 8.21681641,7.41058984 L1.17170313,17.6580273 C1.04710156,17.8383633 0.847066406,17.9358984 0.6431875,17.9358984 Z"></path>
                                <path d="M10.8931875,12.3469258 C10.6893086,12.3469258 10.4891133,12.2500312 10.3646719,12.0692148 L7.16106641,7.41091016 C6.96087109,7.11942578 7.03470312,6.72095703 7.3261875,6.52028125 C7.61767187,6.31944531 8.01678125,6.39327734 8.21681641,6.68540234 L11.4204219,11.343707 C11.6206172,11.6351914 11.5467852,12.0336602 11.2553008,12.2344961 C11.1444727,12.3105703 11.0182695,12.3469258 10.8931875,12.3469258 Z"></path>
                                <path d="M9.60969531,17.9358984 C9.48957813,17.9358984 9.36817969,17.9021055 9.26007422,17.8308359 C8.963625,17.638168 8.88034375,17.2403398 9.07429297,16.945332 L19.9628359,0.293085938 C20.1555039,-0.00336328125 20.553332,-0.0853632812 20.8483398,0.107304688 C21.1449492,0.300613281 21.2287109,0.697800781 21.0334805,0.993609375 L10.1462188,17.6456953 C10.0236992,17.8333984 9.81853906,17.9358984 9.60969531,17.9358984 Z"></path>
                                <path d="M31.3863008,17.9358984 C31.1785781,17.9358984 30.973418,17.8332383 30.8508984,17.6456953 L19.9629961,0.993609375 C19.7677656,0.697800781 19.8516875,0.300613281 20.1481367,0.107304688 C20.4433047,-0.0860039062 20.8409727,-0.00336328125 21.0336406,0.293085938 L31.921543,16.945332 C32.1167734,17.2405 32.0328516,17.638168 31.7365625,17.8308359 C31.6289375,17.9021055 31.506418,17.9358984 31.3863008,17.9358984 Z"></path>
                            </g>
                            <path d="M44.1978398,20.4977578 L0.645910156,20.4977578 C0.291964844,20.4977578 0.0054453125,20.2112383 0.0054453125,19.857293 C0.0054453125,19.5033477 0.291964844,19.2168281 0.645910156,19.2168281 L44.1978398,19.2168281 C44.5519453,19.2168281 44.8383047,19.5033477 44.8383047,19.857293 C44.8383047,20.2112383 44.5519453,20.4977578 44.1978398,20.4977578 Z"></path>
                        </g>
                        <path d="M40.3550508,34.5894258 L4.48869922,34.5894258 C4.13475391,34.5894258 3.84823437,34.3029062 3.84823437,33.9489609 C3.84823437,33.5950156 4.13475391,33.3084961 4.48869922,33.3084961 L40.3548906,33.3084961 C40.7089961,33.3084961 40.9953555,33.5950156 40.9953555,33.9489609 C40.9953555,34.3029062 40.7091562,34.5894258 40.3550508,34.5894258 Z" fill="#15DAB6"></path>
                        <path d="M40.3550508,37.1512852 L4.48869922,37.1512852 C4.13475391,37.1512852 3.84823437,36.8647656 3.84823437,36.5108203 C3.84823437,36.156875 4.13475391,35.8703555 4.48869922,35.8703555 L40.3548906,35.8703555 C40.7089961,35.8703555 40.9953555,36.156875 40.9953555,36.5108203 C40.9953555,36.8647656 40.7091562,37.1512852 40.3550508,37.1512852 Z" fill="#15DAB6"></path>
                        <path d="M31.3883828,39.7131445 L13.4553672,39.7131445 C13.1014219,39.7131445 12.8149023,39.426625 12.8149023,39.0726797 C12.8149023,38.7187344 13.1014219,38.4322148 13.4553672,38.4322148 L31.388543,38.4322148 C31.7426484,38.4322148 32.0290078,38.7187344 32.0290078,39.0726797 C32.0290078,39.426625 31.7424883,39.7131445 31.3883828,39.7131445 Z" fill="#15DAB6"></path>
                    </g>
                    <path d="M51.8843789,81.9900703 L0.646871094,81.9900703 C0.292925781,81.9900703 0.00640625,81.7035508 0.00640625,81.3496055 L0.00640625,12.1789219 C0.00640625,11.8249766 0.292925781,11.538457 0.646871094,11.538457 C1.00081641,11.538457 1.28733594,11.8249766 1.28733594,12.1789219 L1.28733594,80.7091406 L51.2439141,80.7091406 L51.2439141,12.1789219 C51.2439141,11.8249766 51.5302734,11.538457 51.8843789,11.538457 C52.2384844,11.538457 52.5248437,11.8249766 52.5248437,12.1789219 L52.5248437,81.3496055 C52.5248437,81.7033906 52.2384844,81.9900703 51.8843789,81.9900703 Z" id="Shape" fill="#15DAB6"></path>
                    <path d="M49.3225195,79.4280508 L3.20873047,79.4280508 C2.85478516,79.4280508 2.56826562,79.1415312 2.56826562,78.7875859 L2.56826562,14.7407812 C2.56826562,14.3868359 2.85478516,14.1003164 3.20873047,14.1003164 C3.56267578,14.1003164 3.84919531,14.3868359 3.84919531,14.7407812 L3.84919531,78.1471211 L48.6820547,78.1471211 L48.6820547,14.7407812 C48.6820547,14.3868359 48.9684141,14.1003164 49.3225195,14.1003164 C49.676625,14.1003164 49.9629844,14.3868359 49.9629844,14.7407812 L49.9629844,78.7875859 C49.9629844,79.1415312 49.676625,79.4280508 49.3225195,79.4280508 Z" id="Shape" fill="#15DAB6"></path>
                    <path d="M16.0181875,16.6621758 L10.8944687,16.6621758 C10.5405234,16.6621758 10.2540039,16.3756562 10.2540039,16.0217109 L10.2540039,10.8979922 C10.2540039,10.5440469 10.5405234,10.2575273 10.8944687,10.2575273 L16.0181875,10.2575273 C16.3721328,10.2575273 16.6586523,10.5440469 16.6586523,10.8979922 L16.6586523,16.0217109 C16.6586523,16.3758164 16.3721328,16.6621758 16.0181875,16.6621758 Z M11.5347734,15.3812461 L15.3775625,15.3812461 L15.3775625,11.538457 L11.5347734,11.538457 L11.5347734,15.3812461 Z" id="Shape" fill="#000000"></path>
                    <path d="M41.6369414,16.6621758 L36.5132227,16.6621758 C36.1591172,16.6621758 35.8727578,16.3756562 35.8727578,16.0217109 L35.8727578,10.8979922 C35.8727578,10.5440469 36.1591172,10.2575273 36.5132227,10.2575273 L41.6369414,10.2575273 C41.9910469,10.2575273 42.2774062,10.5440469 42.2774062,10.8979922 L42.2774062,16.0217109 C42.2774062,16.3758164 41.9910469,16.6621758 41.6369414,16.6621758 Z M37.1535273,15.3812461 L40.9963164,15.3812461 L40.9963164,11.538457 L37.1535273,11.538457 L37.1535273,15.3812461 Z" id="Shape" fill="#000000"></path>
                    <path d="M8.33244922,15.3812461 L3.20873047,15.3812461 C2.85478516,15.3812461 2.56826562,15.0947266 2.56826562,14.7407812 C2.56826562,14.3868359 2.85478516,14.1003164 3.20873047,14.1003164 L8.33244922,14.1003164 C8.68639453,14.1003164 8.97291406,14.3868359 8.97291406,14.7407812 C8.97291406,15.0947266 8.68655469,15.3812461 8.33244922,15.3812461 Z" id="Shape" fill="#15DAB6"></path>
                    <path d="M49.3225195,15.3812461 L44.1988008,15.3812461 C43.8446953,15.3812461 43.5583359,15.0947266 43.5583359,14.7407812 C43.5583359,14.3868359 43.8446953,14.1003164 44.1988008,14.1003164 L49.3225195,14.1003164 C49.676625,14.1003164 49.9629844,14.3868359 49.9629844,14.7407812 C49.9629844,15.0947266 49.676625,15.3812461 49.3225195,15.3812461 Z" id="Shape" fill="#15DAB6"></path>
                    <path d="M33.9512031,15.3812461 L18.5798867,15.3812461 C18.2259414,15.3812461 17.9394219,15.0947266 17.9394219,14.7407812 C17.9394219,14.3868359 18.2259414,14.1003164 18.5798867,14.1003164 L33.9512031,14.1003164 C34.3053086,14.1003164 34.591668,14.3868359 34.591668,14.7407812 C34.591668,15.0947266 34.3053086,15.3812461 33.9512031,15.3812461 Z" id="Shape" fill="#15DAB6"></path>
                    <path d="M8.33244922,12.8193867 L0.646871094,12.8193867 C0.292925781,12.8193867 0.00640625,12.5328672 0.00640625,12.1789219 C0.00640625,11.8249766 0.292925781,11.538457 0.646871094,11.538457 L8.33244922,11.538457 C8.68639453,11.538457 8.97291406,11.8249766 8.97291406,12.1789219 C8.97291406,12.5328672 8.68655469,12.8193867 8.33244922,12.8193867 Z" id="Shape" fill="#15DAB6"></path>
                    <path d="M33.9512031,12.8193867 L18.5798867,12.8193867 C18.2259414,12.8193867 17.9394219,12.5328672 17.9394219,12.1789219 C17.9394219,11.8249766 18.2259414,11.538457 18.5798867,11.538457 L33.9512031,11.538457 C34.3053086,11.538457 34.591668,11.8249766 34.591668,12.1789219 C34.591668,12.5328672 34.3053086,12.8193867 33.9512031,12.8193867 Z" id="Shape" fill="#15DAB6"></path>
                    <path d="M51.8843789,12.8193867 L44.1988008,12.8193867 C43.8446953,12.8193867 43.5583359,12.5328672 43.5583359,12.1789219 C43.5583359,11.8249766 43.8446953,11.538457 44.1988008,11.538457 L51.8843789,11.538457 C52.2384844,11.538457 52.5248438,11.8249766 52.5248438,12.1789219 C52.5248438,12.5328672 52.2384844,12.8193867 51.8843789,12.8193867 Z" id="Shape" fill="#15DAB6"></path>
                    <path d="M13.4563281,11.2181445 C13.1023828,11.2181445 12.8158633,10.931625 12.8158633,10.5776797 L12.8158633,0.650554688 C12.8158633,0.296609375 13.1023828,0.0100898438 13.4563281,0.0100898438 C13.8102734,0.0100898438 14.096793,0.296609375 14.096793,0.650554688 L14.096793,10.5778398 C14.096793,10.9317852 13.8102734,11.2181445 13.4563281,11.2181445 Z" id="Shape" fill="#000000"></path>
                    <path d="M39.0749219,11.538457 C38.7208164,11.538457 38.434457,11.2519375 38.434457,10.8979922 L38.434457,0.650554688 C38.434457,0.296609375 38.7208164,0.0100898438 39.0749219,0.0100898438 C39.4290273,0.0100898438 39.7153867,0.296609375 39.7153867,0.650554688 L39.7153867,10.8979922 C39.7153867,11.2519375 39.4290273,11.538457 39.0749219,11.538457 Z" id="Shape" fill="#000000"></path>
                </g>
            </g>
        </g>
    </g>
</svg>