<?xml version="1.0" encoding="UTF-8"?>
<svg width="91px" height="82px" viewBox="0 0 91 82" version="1.1" xmlns="http://www.w3.org/2000/svg" xmlns:xlink="http://www.w3.org/1999/xlink">
    <!-- Generator: Sketch 48.2 (47327) - http://www.bohemiancoding.com/sketch -->
    <title>computer logo</title>
    <desc>Created with Sketch.</desc>
    <defs></defs>
    <g id="Desktop-HD" stroke="none" stroke-width="1" fill="none" fill-rule="evenodd" transform="translate(-1138.000000, -837.000000)">
        <g id="Concept" transform="translate(112.000000, 807.000000)" fill-rule="nonzero">
            <g id="computer-logo" transform="translate(1025.000000, 30.000000)">
                <g id="Group">
                    <g transform="translate(0.825000, 54.938442)" id="Shape">
                        <path d="M34.7156102,22.6132501 C34.6687484,22.6132501 34.6220629,22.6091949 34.5766105,22.5994977 C34.1939652,22.5222725 33.9462676,22.1518386 34.0234309,21.7702969 L35.4326297,14.7186524 C35.509793,14.334466 35.8936715,14.0893908 36.261166,14.1650291 C36.6438113,14.2422543 36.891509,14.6125119 36.8145219,14.9940535 L35.4051469,22.045698 C35.3374969,22.3817509 35.044523,22.6132501 34.7156102,22.6132501 Z" fill="#000000"></path>
                        <path d="M55.8343898,22.6132501 C55.505477,22.6132501 55.2125031,22.3819272 55.1450293,22.045698 L53.7356543,14.9940535 C53.658491,14.6125119 53.9063648,14.242078 54.2890102,14.1650291 C54.6510434,14.0878039 55.0405594,14.334466 55.1175465,14.7186524 L56.5265691,21.7702969 C56.6037324,22.1518386 56.3560348,22.5224488 55.9733895,22.5994977 C55.9281133,22.6090186 55.8812516,22.6132501 55.8343898,22.6132501 Z" fill="#000000"></path>
                        <path d="M45.275,8.50696376 C43.7213402,8.50696376 42.4566023,7.24262215 42.4566023,5.68630596 C42.4566023,4.12998978 43.7213402,2.86564817 45.275,2.86564817 C46.8286598,2.86564817 48.0933977,4.12998978 48.0933977,5.68630596 C48.0933977,7.24262215 46.8286598,8.50696376 45.275,8.50696376 Z M45.275,4.27597706 C44.4973773,4.27597706 43.8658012,4.90964653 43.8658012,5.68630596 C43.8658012,6.46314171 44.4973773,7.09663486 45.275,7.09663486 C46.0526227,7.09663486 46.6841988,6.46314171 46.6841988,5.68630596 C46.6841988,4.90947022 46.0526227,4.27597706 45.275,4.27597706 Z" fill="#000000"></path>
                        <path d="M89.6652035,1.45796396 L0.884796484,1.45796396 C0.495456641,1.45796396 0.180108984,1.14253974 0.180108984,0.752711357 C0.180108984,0.363059292 0.495280469,0.0476350642 0.884796484,0.0476350642 L89.6652035,0.0476350642 C90.0547195,0.0476350642 90.369891,0.363059292 90.369891,0.752711357 C90.369891,1.14253974 90.0547195,1.45796396 89.6652035,1.45796396 Z" fill="#15DAB6"></path>
                    </g>
                    <path d="M62.3058746,81.8047182 L29.8830266,81.8047182 C29.4935105,81.8047182 29.1783391,81.489294 29.1783391,81.0996419 C29.1783391,80.7098135 29.4935105,80.3943893 29.8830266,80.3943893 L62.3058746,80.3943893 C62.6953906,80.3943893 63.0105621,80.7098135 63.0105621,81.0996419 C63.0105621,81.489294 62.6953906,81.8047182 62.3058746,81.8047182 Z" id="Shape" fill="#15DAB6"></path>
                    <path d="M86.262607,66.2907477 L5.93739297,66.2907477 C3.21800391,66.2907477 1.00510898,64.0760782 1.00510898,61.3546847 L1.00510898,4.94082345 C1.00510898,2.21925364 3.21800391,0.00458414194 5.93739297,0.00458414194 L86.2624309,0.00458414194 C88.9819961,0.00458414194 91.1947148,2.21942995 91.1947148,4.94082345 L91.1947148,61.3546847 C91.194891,64.0762545 88.9819961,66.2907477 86.262607,66.2907477 Z M5.93739297,1.41491304 C3.99421719,1.41491304 2.41430781,2.99679464 2.41430781,4.94082345 L2.41430781,61.3546847 C2.41430781,63.2992424 3.99421719,64.8804188 5.93739297,64.8804188 L86.2624309,64.8804188 C88.2056066,64.8804188 89.785516,63.2992424 89.785516,61.3546847 L89.785516,4.94082345 C89.785516,2.99679464 88.2056066,1.41491304 86.2624309,1.41491304 L5.93739297,1.41491304 Z" id="Shape" fill="#15DAB6"></path>
                    <path d="M86.262607,69.0895426 L5.93739297,69.0895426 C3.17114219,69.0895426 1.00510898,66.9215961 1.00510898,64.1533033 L1.00510898,61.3326455 C1.00510898,60.9428172 1.32028047,60.6273929 1.70979648,60.6273929 C2.0993125,60.6273929 2.41448398,60.9428172 2.41448398,61.3326455 L2.41448398,64.1533033 C2.41448398,66.1311843 3.96127305,67.6790374 5.93756914,67.6790374 L86.262607,67.6790374 C88.2389031,67.6790374 89.7856922,66.1311843 89.7856922,64.1533033 L89.7856922,61.3546847 C89.7856922,60.9648563 90.1008637,60.6494321 90.4902035,60.6494321 C90.8797195,60.6494321 91.194891,60.9648563 91.194891,61.3546847 L91.194891,64.1533033 C91.194891,66.9217724 89.0288578,69.0895426 86.262607,69.0895426 Z" id="Shape" fill="#15DAB6"></path>
                    <path d="M29.8830266,81.8047182 C29.4935105,81.8047182 29.1783391,81.489294 29.1783391,81.0996419 C29.1783391,79.1549078 30.7582484,77.5737315 32.7014242,77.5737315 C33.0909402,77.5737315 33.4061117,77.8891557 33.4061117,78.2789841 C33.4061117,78.6686362 33.0909402,78.9840604 32.7014242,78.9840604 C31.5358711,78.9840604 30.5875379,79.9329778 30.5875379,81.0996419 C30.5875379,81.489294 30.2725426,81.8047182 29.8830266,81.8047182 Z" id="Shape" fill="#15DAB6"></path>
                    <path d="M62.3058746,81.8047182 C61.9165348,81.8047182 61.6013633,81.489294 61.6013633,81.0996419 C61.6013633,79.9329778 60.6530301,78.9840604 59.487477,78.9840604 C59.0979609,78.9840604 58.7829656,78.6686362 58.7829656,78.2789841 C58.7829656,77.8891557 59.0979609,77.5737315 59.487477,77.5737315 C61.4306527,77.5737315 63.0105621,79.1549078 63.0105621,81.0996419 C63.0105621,81.489294 62.6953906,81.8047182 62.3058746,81.8047182 Z" id="Shape" fill="#15DAB6"></path>
                    <path d="M59.487477,78.9840604 L32.7014242,78.9840604 C32.3119082,78.9840604 31.9967367,78.6686362 31.9967367,78.2789841 C31.9967367,77.8891557 32.3119082,77.5737315 32.7014242,77.5737315 L59.487477,77.5737315 C59.876993,77.5737315 60.1919883,77.8891557 60.1919883,78.2789841 C60.1919883,78.6686362 59.876993,78.9840604 59.487477,78.9840604 Z" id="Shape" fill="#15DAB6"></path>
                    <path d="M86.262607,52.1874587 L5.93739297,52.1874587 C5.54787695,52.1874587 5.23270547,51.8720344 5.23270547,51.4822061 L5.23270547,4.94082345 C5.23270547,4.55099507 5.54787695,4.23574715 5.93739297,4.23574715 L86.2624309,4.23574715 C86.6519469,4.23574715 86.9671184,4.55099507 86.9671184,4.94082345 L86.9671184,51.4822061 C86.9672945,51.8720344 86.652123,52.1874587 86.262607,52.1874587 Z M6.6419043,50.7771298 L85.5579195,50.7771298 L85.5579195,5.64607605 L6.6419043,5.64607605 L6.6419043,50.7771298 Z" id="Shape" fill="#15DAB6"></path>
                    <path d="M31.3033242,43.725309 C31.1231004,43.725309 30.9427004,43.6563705 30.8051102,43.5186699 C30.5299297,43.2432688 30.5299297,42.7970202 30.8051102,42.5216191 L60.3984617,12.9045359 C60.6736422,12.6291347 61.1197094,12.6291347 61.3948898,12.9045359 C61.6700703,13.179937 61.6700703,13.6261856 61.3948898,13.9015867 L31.8013621,43.5186699 C31.6637719,43.6563705 31.483548,43.725309 31.3033242,43.725309 Z" id="Shape" fill="#000000"></path>
                    <path d="M45.3953125,40.9046512 C45.2150887,40.9046512 45.0348648,40.8357127 44.8970984,40.6980121 C44.621918,40.422611 44.621918,39.9763624 44.8970984,39.7009613 L57.5798879,27.0078249 C57.8550684,26.7324237 58.3011355,26.7324237 58.576316,27.0078249 C58.8514965,27.283226 58.8514965,27.7296509 58.576316,28.0050521 L45.8933504,40.6980121 C45.7559363,40.8357127 45.5755363,40.9046512 45.3953125,40.9046512 Z" id="Shape" fill="#000000"></path>
                    <path d="M34.1217219,29.62202 C33.941498,29.62202 33.761098,29.5530815 33.6235078,29.415381 C33.3483273,29.1399798 33.3483273,28.6935549 33.6235078,28.4181538 L46.3064734,15.7251937 C46.5816539,15.4497925 47.0277211,15.4497925 47.3027254,15.7251937 C47.5779059,16.0005948 47.5779059,16.4468434 47.3027254,16.7222445 L34.6199359,29.415381 C34.4823457,29.5530815 34.3019457,29.62202 34.1217219,29.62202 Z" id="Shape" fill="#000000"></path>
                </g>
            </g>
        </g>
    </g>
</svg>