<?xml version="1.0" encoding="UTF-8"?>
<svg width="63px" height="82px" viewBox="0 0 63 82" version="1.1" xmlns="http://www.w3.org/2000/svg" xmlns:xlink="http://www.w3.org/1999/xlink">
    <!-- Generator: Sketch 48.2 (47327) - http://www.bohemiancoding.com/sketch -->
    <title>logo mook</title>
    <desc>Created with Sketch.</desc>
    <defs></defs>
    <g id="Desktop-HD" stroke="none" stroke-width="1" fill="none" fill-rule="evenodd" transform="translate(-224.000000, -837.000000)">
        <g id="Concept" transform="translate(112.000000, 807.000000)" fill-rule="nonzero">
            <g id="logo-mook" transform="translate(112.000000, 30.000000)">
                <g id="Group">
                    <g fill="#15DAB6" id="Shape">
                        <path d="M61.9469342,76.8661914 L4.47748563,76.8661914 C4.12460081,76.8661914 3.83893975,76.5796719 3.83893975,76.2257266 L3.83893975,0.650554688 C3.83893975,0.296609375 4.12460081,0.0100898438 4.47748563,0.0100898438 L61.9469342,0.0100898438 C62.2999787,0.0100898438 62.5854801,0.296609375 62.5854801,0.650554688 L62.5854801,76.2258867 C62.5854801,76.5796719 62.2999787,76.8661914 61.9469342,76.8661914 Z M5.11603151,75.5852617 L61.3083883,75.5852617 L61.3083883,1.29101953 L5.11603151,1.29101953 L5.11603151,75.5852617 Z"></path>
                        <path d="M61.9469342,79.4280508 L5.75457739,79.4280508 C5.40169257,79.4280508 5.11603151,79.1415313 5.11603151,78.7875859 C5.11603151,78.4336406 5.40169257,78.1471211 5.75457739,78.1471211 L61.9469342,78.1471211 C62.2999787,78.1471211 62.5854801,78.4336406 62.5854801,78.7875859 C62.5854801,79.1415313 62.2999787,79.4280508 61.9469342,79.4280508 Z"></path>
                        <path d="M61.9469342,81.9900703 L0.646210347,81.9900703 C0.293325527,81.9900703 0.00766446668,81.7035508 0.00766446668,81.3496055 C0.00766446668,80.9956602 0.293325527,80.7091406 0.646210347,80.7091406 L61.9469342,80.7091406 C62.2999787,80.7091406 62.5854801,80.9956602 62.5854801,81.3496055 C62.5854801,81.7035508 62.2999787,81.9900703 61.9469342,81.9900703 Z"></path>
                        <path d="M0.646210347,81.9900703 C0.293325527,81.9900703 0.00766446668,81.7035508 0.00766446668,81.3496055 L0.00766446668,5.77427344 C0.00766446668,5.42032813 0.293325527,5.13380859 0.646210347,5.13380859 C0.999095167,5.13380859 1.28475623,5.42032813 1.28475623,5.77427344 L1.28475623,81.3496055 C1.28475623,81.7033906 0.999095167,81.9900703 0.646210347,81.9900703 Z"></path>
                        <path d="M0.646210347,81.9900703 C0.512720886,81.9900703 0.377954013,81.94875 0.263306366,81.8624258 C-0.0185224611,81.6497383 -0.0760059613,81.2482266 0.134926549,80.9655508 L3.96620183,75.841832 C4.17936981,75.5589961 4.57983819,75.5015 4.86038961,75.7129062 C5.14237811,75.9255937 5.19970194,76.3271055 4.9889291,76.6097812 L1.15765382,81.7335 C1.03150947,81.9011836 0.839578454,81.9900703 0.646210347,81.9900703 Z"></path>
                        <path d="M0.646210347,6.41473828 C0.512720886,6.41473828 0.377954013,6.37341797 0.263306366,6.28709375 C-0.0185224611,6.07440625 -0.0760059613,5.67289453 0.134926549,5.39021875 L3.96620183,0.2665 C4.17936981,-0.0161757813 4.57983819,-0.0725507813 4.86038961,0.137734375 C5.14237811,0.350421875 5.19970194,0.751933594 4.9889291,1.03460937 L1.15749415,6.15816797 C1.03150947,6.32585156 0.839578454,6.41473828 0.646210347,6.41473828 Z"></path>
                        <path d="M50.4531084,53.8092969 L19.8027464,53.8092969 C19.4498616,53.8092969 19.1642006,53.5227773 19.1642006,53.168832 C19.1642006,52.8148867 19.4498616,52.5283672 19.8027464,52.5283672 L50.4531084,52.5283672 C50.8061529,52.5283672 51.0916542,52.8148867 51.0916542,53.168832 C51.0916542,53.5227773 50.8061529,53.8092969 50.4531084,53.8092969 Z"></path>
                        <path d="M50.4531084,57.6522461 L19.8027464,57.6522461 C19.4498616,57.6522461 19.1642006,57.3657266 19.1642006,57.0117812 C19.1642006,56.6578359 19.4498616,56.3713164 19.8027464,56.3713164 L50.4531084,56.3713164 C50.8061529,56.3713164 51.0916542,56.6578359 51.0916542,57.0117812 C51.0916542,57.3657266 50.8061529,57.6522461 50.4531084,57.6522461 Z"></path>
                        <path d="M44.0674899,61.4950352 L26.1882052,61.4950352 C25.8353204,61.4950352 25.5496594,61.2085156 25.5496594,60.8545703 C25.5496594,60.500625 25.8353204,60.2141055 26.1882052,60.2141055 L44.0674899,60.2141055 C44.4205344,60.2141055 44.7060358,60.500625 44.7060358,60.8545703 C44.7060358,61.2085156 44.4205344,61.4950352 44.0674899,61.4950352 Z"></path>
                        <path d="M8.30876091,73.0234023 C7.95587609,73.0234023 7.67021503,72.7368828 7.67021503,72.3829375 L7.67021503,3.21241406 C7.67021503,2.85846875 7.95587609,2.57194922 8.30876091,2.57194922 C8.66164573,2.57194922 8.94730679,2.85846875 8.94730679,3.21241406 L8.94730679,72.3830977 C8.94730679,72.7368828 8.66180541,73.0234023 8.30876091,73.0234023 Z"></path>
                    </g>
                    <g transform="translate(20.438578, 16.656250)" fill="#000000" id="Shape">
                        <path d="M14.6892697,29.4674688 C6.59144135,29.4674688 0.00255482223,22.8587813 0.00255482223,14.7366172 C0.00255482223,6.61445313 6.59144135,0.005765625 14.6892697,0.005765625 C22.7870981,0.005765625 29.3759847,6.61429297 29.3759847,14.7366172 C29.3759847,22.8589414 22.7870981,29.4674688 14.6892697,29.4674688 Z M14.6892697,1.28685547 C7.29481584,1.28685547 1.27980626,7.31994141 1.27980626,14.7366172 C1.27980626,22.153293 7.29481584,28.1863789 14.6892697,28.1863789 C22.0837237,28.1863789 28.0987332,22.1531328 28.0987332,14.7366172 C28.0988929,7.32010156 22.0837237,1.28685547 14.6892697,1.28685547 Z"></path>
                        <path d="M8.30381094,24.34375 C8.17654886,24.34375 8.04928678,24.3062734 7.93719395,24.2273164 C7.64913775,24.0247188 7.57792208,23.6256094 7.7813498,23.3354063 L12.251171,16.9307578 C12.4533213,16.6405547 12.8497977,16.5704063 13.1402491,16.7744453 C13.428465,16.977043 13.499521,17.3761523 13.2962529,17.6661953 L8.82643176,24.0708438 C8.70284224,24.2486172 8.50468384,24.34375 8.30381094,24.34375 Z"></path>
                        <path d="M13.6667022,19.2200313 C13.4658293,19.2200313 13.2675112,19.1248984 13.1428039,18.9460039 L12.2498935,17.6650742 C12.0477432,17.3761523 12.1189589,16.9759219 12.4082925,16.7733242 C12.6937939,16.5731289 13.0941026,16.6394336 13.2973707,16.9321992 L14.1904407,18.2131289 C14.3924313,18.5020508 14.3212157,18.9024414 14.0320417,19.1050391 C13.9210666,19.1823945 13.7938046,19.2200313 13.6667022,19.2200313 Z"></path>
                        <path d="M13.412178,24.34375 C13.2849159,24.34375 13.1576538,24.3062734 13.0454013,24.2273164 C12.7573451,24.0247188 12.6862891,23.6256094 12.8895572,23.3354063 L21.8291995,10.5261094 C22.0299127,10.2371875 22.4278263,10.1670391 22.7184373,10.3697969 C23.0064935,10.5723945 23.0775495,10.9715039 22.8742815,11.2615469 L13.9346391,24.0708438 C13.8112093,24.2486172 13.6130509,24.34375 13.412178,24.34375 Z"></path>
                        <path d="M26.8218011,17.9391016 C26.6209283,17.9391016 26.4227699,17.8439688 26.29934,17.6663555 L21.8295188,11.261707 C21.6262508,10.9715039 21.6973068,10.5725547 21.985363,10.369957 C22.2746966,10.1671992 22.6727699,10.2373477 22.8746008,10.5262695 L27.344422,16.930918 C27.54769,17.2211211 27.476634,17.6202305 27.1884181,17.8228281 C27.076006,17.9014648 26.9489036,17.9391016 26.8218011,17.9391016 Z"></path>
                        <path d="M9.5809027,12.8153828 C7.81999148,12.8153828 6.3881733,11.3792617 6.3881733,9.61305859 C6.3881733,7.84685547 7.81999148,6.41073438 9.5809027,6.41073438 C11.3418139,6.41073438 12.7736321,7.84685547 12.7736321,9.61305859 C12.7736321,11.3792617 11.3418139,12.8153828 9.5809027,12.8153828 Z M9.5809027,7.69150391 C8.52448371,7.69150391 7.66526506,8.55330469 7.66526506,9.61289844 C7.66526506,10.672332 8.52448371,11.534293 9.5809027,11.534293 C10.637162,11.534293 11.4965403,10.672332 11.4965403,9.61289844 C11.4965403,8.55346484 10.637162,7.69150391 9.5809027,7.69150391 Z"></path>
                    </g>
                </g>
            </g>
        </g>
    </g>
</svg>