<?xml version="1.0" encoding="UTF-8"?>
<svg width="48px" height="82px" viewBox="0 0 48 82" version="1.1" xmlns="http://www.w3.org/2000/svg" xmlns:xlink="http://www.w3.org/1999/xlink">
    <!-- Generator: Sketch 48.2 (47327) - http://www.bohemiancoding.com/sketch -->
    <title>mobile</title>
    <desc>Created with Sketch.</desc>
    <defs></defs>
    <g id="Desktop-HD" stroke="none" stroke-width="1" fill="none" fill-rule="evenodd" transform="translate(-851.000000, -837.000000)">
        <g id="Concept" transform="translate(112.000000, 807.000000)" fill-rule="nonzero">
            <g id="mobile" transform="translate(739.000000, 30.000000)">
                <g id="Group">
                    <path d="M41.0253797,3.84807422 C40.6728031,3.84807422 40.3801101,3.56155469 40.3801101,3.20744922 C40.3801101,2.85334375 40.660314,2.56682422 41.0128907,2.56682422 L41.0253797,2.56682422 C41.3806783,2.56682422 41.6658459,2.85334375 41.6658459,3.20744922 C41.6658459,3.56155469 41.3805182,3.84807422 41.0253797,3.84807422 Z" id="Shape" fill="#000000"></path>
                    <path d="M38.4638354,3.84807422 C38.1112587,3.84807422 37.8185657,3.56155469 37.8185657,3.20744922 C37.8185657,2.85334375 38.0987697,2.56682422 38.4513463,2.56682422 L38.4638354,2.56682422 C38.819134,2.56682422 39.1043015,2.85334375 39.1043015,3.20744922 C39.1043015,3.56155469 38.8189738,3.84807422 38.4638354,3.84807422 Z" id="Shape" fill="#000000"></path>
                    <path d="M40.9877524,79.4331758 L6.40674306,79.4331758 C3.22842977,79.4331758 0.643188135,76.847293 0.643188135,73.6681914 L0.643188135,5.76962891 C0.643188135,2.59052734 3.22842977,0.00464453125 6.40674306,0.00464453125 L40.9879125,0.00464453125 C44.1662258,0.00464453125 46.7514674,2.59052734 46.7514674,5.76962891 L46.7514674,73.6680313 C46.7513073,76.8471328 44.1660656,79.4331758 40.9877524,79.4331758 Z M6.40674306,1.28573438 C3.93518417,1.28573438 1.92396033,3.29761719 1.92396033,5.76962891 L1.92396033,73.6680312 C1.92396033,76.1402031 3.93518417,78.1519258 6.40674306,78.1519258 L40.9879125,78.1519258 C43.4596315,78.1519258 45.4706952,76.140043 45.4706952,73.6680312 L45.4706952,5.76962891 C45.4706952,3.29745703 43.4594714,1.28573438 40.9879125,1.28573438 L6.40674306,1.28573438 Z" id="Shape" fill="#15DAB6"></path>
                    <path d="M40.9877524,81.9953555 L6.40674306,81.9953555 C3.22842977,81.9953555 0.643188135,79.4094727 0.643188135,76.2303711 C0.643188135,75.8764258 0.929636623,75.5899063 1.28365429,75.5899063 C1.63767196,75.5899063 1.92412044,75.8764258 1.92412044,76.2303711 C1.92412044,78.7027031 3.93534428,80.7142656 6.40690317,80.7142656 L40.9880726,80.7142656 C43.4597916,80.7142656 45.4708553,78.702543 45.4708553,76.2303711 C45.4708553,75.8764258 45.7573038,75.5899063 46.1113215,75.5899063 C46.465179,75.5899063 46.7516275,75.8764258 46.7516275,76.2303711 C46.7513073,79.4093125 44.1660656,81.9953555 40.9877524,81.9953555 Z" id="Shape" fill="#15DAB6"></path>
                    <path d="M46.1110012,76.8709961 C45.7569836,76.8709961 45.4705351,76.5844766 45.4705351,76.2303711 L45.4705351,73.6681914 C45.4705351,73.3140859 45.7569836,73.0277266 46.1110012,73.0277266 C46.4648588,73.0277266 46.7513073,73.3140859 46.7513073,73.6681914 L46.7513073,76.2303711 C46.7513073,76.5844766 46.4648588,76.8709961 46.1110012,76.8709961 Z" id="Shape" fill="#000000"></path>
                    <path d="M1.28349417,76.8709961 C0.929636623,76.8709961 0.643028019,76.5844766 0.643028019,76.2303711 L0.643028019,73.6681914 C0.643028019,73.3140859 0.929476506,73.0277266 1.28349417,73.0277266 C1.63751184,73.0277266 1.92396033,73.3140859 1.92396033,73.6681914 L1.92396033,76.2303711 C1.92396033,76.5844766 1.63751184,76.8709961 1.28349417,76.8709961 Z" id="Shape" fill="#000000"></path>
                    <path d="M43.5494569,6.41025391 L3.84503856,6.41025391 C3.49118101,6.41025391 3.2045724,6.12373438 3.2045724,5.76962891 C3.2045724,5.41552344 3.49102089,5.12900391 3.84503856,5.12900391 L43.5494569,5.12900391 C43.9033144,5.12900391 44.1897629,5.41552344 44.1897629,5.76962891 C44.1897629,6.12373438 43.9033144,6.41025391 43.5494569,6.41025391 Z" id="Shape" fill="#15DAB6"></path>
                    <path d="M43.5494569,67.9030469 L3.84503856,67.9030469 C3.49118101,67.9030469 3.2045724,67.6166875 3.2045724,67.262582 C3.2045724,66.9084766 3.49102089,66.6221172 3.84503856,66.6221172 L43.5494569,66.6221172 C43.9033144,66.6221172 44.1897629,66.9084766 44.1897629,67.262582 C44.1897629,67.6166875 43.9033144,67.9030469 43.5494569,67.9030469 Z" id="Shape" fill="#15DAB6"></path>
                    <path d="M23.6978882,76.8709961 C21.579066,76.8709961 19.8555716,75.1469141 19.8555716,73.0277266 C19.8555716,70.9083789 21.579066,69.184457 23.6978882,69.184457 C25.8160699,69.184457 27.5395643,70.9083789 27.5395643,73.0277266 C27.5395643,75.1469141 25.8159097,76.8709961 23.6978882,76.8709961 Z M23.6978882,70.4653867 C22.28518,70.4653867 21.1363438,71.6138672 21.1363438,73.0275664 C21.1363438,74.4412656 22.28518,75.5897461 23.6978882,75.5897461 C25.1105964,75.5897461 26.2587921,74.4412656 26.2587921,73.0275664 C26.2587921,71.6138672 25.1105964,70.4653867 23.6978882,70.4653867 Z" id="Shape" fill="#000000"></path>
                    <path d="M28.1800304,3.84807422 L19.214465,3.84807422 C18.8606074,3.84807422 18.5741589,3.56155469 18.5741589,3.20744922 C18.5741589,2.85334375 18.8606074,2.56682422 19.214465,2.56682422 L28.1800304,2.56682422 C28.533888,2.56682422 28.8203365,2.85334375 28.8203365,3.20744922 C28.8203365,3.56155469 28.533888,3.84807422 28.1800304,3.84807422 Z" id="Shape" fill="#000000"></path>
                    <path d="M46.7513073,15.378043 C46.3974497,15.378043 46.1110012,15.0915234 46.1110012,14.737418 L46.1110012,12.1752383 C46.1110012,11.821293 46.3974497,11.5347734 46.7513073,11.5347734 C47.1053249,11.5347734 47.3917734,11.821293 47.3917734,12.1752383 L47.3917734,14.7375781 C47.3917734,15.0913633 47.1053249,15.378043 46.7513073,15.378043 Z" id="Shape" fill="#000000"></path>
                    <path d="M0.643188135,16.6591328 C0.289170469,16.6591328 0.00272198116,16.3726133 0.00272198116,16.0185078 L0.00272198116,13.4563281 C0.00272198116,13.1023828 0.289170469,12.8157031 0.643188135,12.8157031 C0.997045686,12.8157031 1.28365429,13.1022227 1.28365429,13.4563281 L1.28365429,16.0185078 C1.28349417,16.3726133 0.997045686,16.6591328 0.643188135,16.6591328 Z" id="Shape" fill="#000000"></path>
                    <path d="M46.7513073,26.9078516 C46.3974497,26.9078516 46.1110012,26.621332 46.1110012,26.2672266 L46.1110012,18.5806875 C46.1110012,18.226582 46.3974497,17.9400625 46.7513073,17.9400625 C47.1053249,17.9400625 47.3917734,18.226582 47.3917734,18.5806875 L47.3917734,26.2672266 C47.3917734,26.6214922 47.1053249,26.9078516 46.7513073,26.9078516 Z" id="Shape" fill="#000000"></path>
                    <g transform="translate(8.326060, 23.062500)" fill="#000000" id="Shape">
                        <path d="M0.642227436,30.7485586 C0.478428217,30.7485586 0.314468882,30.6859375 0.189417865,30.5608555 C-0.0606841681,30.3106914 -0.0606841681,29.9053359 0.189417865,29.6551719 L29.6474985,0.189785156 C29.8976005,-0.0603789063 30.3028555,-0.0603789063 30.5529575,0.189785156 C30.8030596,0.439949219 30.8030596,0.845464844 30.5529575,1.09562891 L1.09487689,30.5608555 C0.969825874,30.6860977 0.806026655,30.7485586 0.642227436,30.7485586 Z"></path>
                        <path d="M14.7307215,26.9052891 C14.5669223,26.9052891 14.4031231,26.842668 14.277912,26.7175859 C14.0278099,26.4674219 14.0278099,26.0619063 14.277912,25.8117422 L25.8048617,14.2819336 C26.0549637,14.0317695 26.4603788,14.0317695 26.7104808,14.2819336 C26.9605829,14.5320977 26.9605829,14.9374531 26.7104808,15.1876172 L15.183371,26.7175859 C15.0584801,26.8428281 14.8945208,26.9052891 14.7307215,26.9052891 Z"></path>
                        <path d="M4.48454401,16.6564102 C4.32074479,16.6564102 4.15678546,16.5937891 4.03173444,16.468707 C3.78163241,16.218543 3.78163241,15.8131875 4.03173444,15.5630234 L15.5588443,4.03305469 C15.8089463,3.78289063 16.2143614,3.78289063 16.4643033,4.03305469 C16.7144053,4.28321875 16.7144053,4.68857422 16.4643033,4.93889844 L4.93735358,16.468707 C4.81230257,16.5937891 4.64834323,16.6564102 4.48454401,16.6564102 Z"></path>
                    </g>
                </g>
            </g>
        </g>
    </g>
</svg>