<?xml version="1.0" encoding="UTF-8"?>
<svg width="40px" height="27px" viewBox="0 0 40 27" version="1.1" xmlns="http://www.w3.org/2000/svg" xmlns:xlink="http://www.w3.org/1999/xlink">
    <!-- Generator: Sketch 48.2 (47327) - http://www.bohemiancoding.com/sketch -->
    <title>mail</title>
    <desc>Created with Sketch.</desc>
    <defs></defs>
    <g id="Desktop-HD" stroke="none" stroke-width="1" fill="none" fill-rule="evenodd" transform="translate(-931.000000, -2811.000000)">
        <g id="CONTACT" transform="translate(900.000000, 2585.000000)" fill="#92F4E2" fill-rule="nonzero">
            <g id="mail" transform="translate(31.000000, 226.000000)">
                <g id="Group">
                    <g>
                        <path d="M36.6666667,0 L3.33333333,0 C1.4932979,0.00220407756 0.00220407756,1.4932979 4.4408921e-16,3.33333333 L4.4408921e-16,23.3333333 C0.00220407756,25.1733688 1.4932979,26.6644626 3.33333333,26.6666667 L36.6666667,26.6666667 C38.5067021,26.6644626 39.9977959,25.1733688 40,23.3333333 L40,3.33333333 C39.9977959,1.4932979 38.5067021,0.00220407756 36.6666667,0 Z M38.6666667,23.3333333 C38.6666667,24.4379028 37.7712362,25.3333333 36.6666667,25.3333333 L3.33333333,25.3333333 C2.22876383,25.3333333 1.33333333,24.4379028 1.33333333,23.3333333 L1.33333333,3.33333333 C1.33333333,2.22876383 2.22876383,1.33333333 3.33333333,1.33333333 L36.6666667,1.33333333 C37.7712362,1.33333333 38.6666667,2.22876383 38.6666667,3.33333333 L38.6666667,23.3333333 Z" id="Shape"></path>
                        <path d="M37.238,2.99 C37.0483436,2.67451352 36.6388816,2.57244647 36.3233333,2.762 L21.7146667,11.5266667 C20.6598339,12.1619994 19.3401661,12.1619994 18.2853333,11.5266667 L3.67666667,2.762 C3.36176868,2.58042425 2.959456,2.68457586 2.77222422,2.99614408 C2.58499245,3.3077123 2.68186313,3.7118399 2.99,3.90466667 L17.6,12.67 C19.0768317,13.5578497 20.9231683,13.5578497 22.4,12.67 L37.01,3.90466667 C37.3254865,3.71501028 37.4275535,3.30554829 37.238,2.99 Z" id="Shape"></path>
                        <path d="M3.33333333,5.33333333 C2.9651435,5.33333333 2.66666667,5.63181017 2.66666667,6 L2.66666667,23.3333333 C2.66666667,23.7015232 2.9651435,24 3.33333333,24 C3.70152317,24 4,23.7015232 4,23.3333333 L4,6 C4,5.63181017 3.70152317,5.33333333 3.33333333,5.33333333 Z" id="Shape"></path>
                        <path d="M36.6666667,5.33333333 C36.2984768,5.33333333 36,5.63181017 36,6 L36,23.3333333 C36,23.7015232 36.2984768,24 36.6666667,24 C37.0348565,24 37.3333333,23.7015232 37.3333333,23.3333333 L37.3333333,6 C37.3333333,5.63181017 37.0348565,5.33333333 36.6666667,5.33333333 Z" id="Shape"></path>
                    </g>
                </g>
            </g>
        </g>
    </g>
</svg>