<?xml version="1.0" encoding="UTF-8"?>
<svg width="51px" height="39px" viewBox="0 0 51 39" version="1.1" xmlns="http://www.w3.org/2000/svg" xmlns:xlink="http://www.w3.org/1999/xlink">
    <!-- Generator: Sketch 48.2 (47327) - http://www.bohemiancoding.com/sketch -->
    <title>Map</title>
    <desc>Created with Sketch.</desc>
    <defs></defs>
    <g id="Desktop-HD" stroke="none" stroke-width="1" fill="none" fill-rule="evenodd" transform="translate(-926.000000, -2651.000000)">
        <g id="CONTACT" transform="translate(900.000000, 2585.000000)" fill="#92F4E2" fill-rule="nonzero">
            <g id="adresse" transform="translate(26.000000, 66.000000)">
                <g id="Map">
                    <g id="Group">
                        <path d="M22.2838409,6.41005343 C22.9476237,5.53226895 23.9844932,5.01639653 25.0849991,5.01639653 C26.185505,5.01639653 27.2223745,5.53226895 27.8861573,6.41005343 C28.1510321,6.77916159 28.3272854,7.20434403 28.401236,7.65259705 C28.4639035,8.06009534 28.814244,8.36109714 29.2265324,8.36166636 C29.2693729,8.3616506 29.3121469,8.35829577 29.3544659,8.35163236 C29.8106289,8.28127785 30.1235127,7.85461817 30.0535012,7.3984024 C29.939796,6.69198933 29.6642007,6.02146 29.2482728,5.43926397 C28.2703375,4.1213322 26.7261272,3.34427435 25.0849991,3.34427435 C23.4438709,3.34427435 21.8996607,4.1213322 20.9217254,5.43926397 C20.5057974,6.02146 20.2302021,6.69198933 20.1164969,7.3984024 C20.0654004,7.84531098 20.3770173,8.25255983 20.8217412,8.32007864 C21.2664651,8.38759745 21.6849127,8.09118836 21.7687622,7.64925239 C21.843205,7.20216692 22.0194368,6.77818067 22.2838409,6.41005343 Z" id="Shape"></path>
                        <path d="M28.4296656,11.7063329 C28.4296656,9.85912458 26.9322074,8.36166636 25.0849991,8.36166636 C23.2377908,8.36166636 21.7403325,9.85912458 21.7403325,11.7063329 C21.7403325,13.5535412 23.2377908,15.0509995 25.0849991,15.0509995 C26.9322074,15.0509995 28.4296656,13.5535412 28.4296656,11.7063329 Z M23.4126658,11.7063329 C23.4126658,10.7827287 24.1613949,10.0339996 25.0849991,10.0339996 C26.0086032,10.0339996 26.7573324,10.7827287 26.7573324,11.7063329 C26.7573324,12.6299371 26.0086032,13.3786662 25.0849991,13.3786662 C24.1613949,13.3786662 23.4126658,12.6299371 23.4126658,11.7063329 Z" id="Shape"></path>
                        <path d="M34.2828321,16.7233327 C35.6682383,16.7233327 36.791332,17.8464264 36.791332,19.2318326 C36.791332,19.6936347 37.1656965,20.0679993 37.6274986,20.0679993 C38.0893007,20.0679993 38.4636653,19.6936347 38.4636653,19.2318326 C38.4636653,17.8464264 39.5867589,16.7233327 40.9721652,16.7233327 C41.4339673,16.7233327 41.8083318,16.3489682 41.8083318,15.8871661 C41.8083318,15.425364 41.4339673,15.0509995 40.9721652,15.0509995 C39.5867589,15.0509995 38.4636653,13.9279058 38.4636653,12.5424995 C38.4636653,12.0806975 38.0893007,11.7063329 37.6274986,11.7063329 C37.1656965,11.7063329 36.791332,12.0806975 36.791332,12.5424995 C36.791332,13.9279058 35.6682383,15.0509995 34.2828321,15.0509995 C33.82103,15.0509995 33.4466654,15.425364 33.4466654,15.8871661 C33.4466654,16.3489682 33.82103,16.7233327 34.2828321,16.7233327 Z M37.6274986,15.0509995 C37.8655621,15.3676133 38.1470515,15.6491026 38.4636653,15.8871661 C38.1470515,16.1252295 37.8655621,16.4067189 37.6274986,16.7233327 C37.3894352,16.4067189 37.1079458,16.1252295 36.791332,15.8871661 C37.1079458,15.6491026 37.3894352,15.3676133 37.6274986,15.0509995 Z" id="Shape"></path>
                        <path d="M7.52549973,8.36166636 C8.91090597,8.36166636 10.0339996,9.48476003 10.0339996,10.8701663 C10.0339996,11.3319684 10.4083642,11.7063329 10.8701663,11.7063329 C11.3319684,11.7063329 11.7063329,11.3319684 11.7063329,10.8701663 C11.7063329,10.2048707 11.9706205,9.56682396 12.4410555,9.09638897 C12.9114905,8.62595399 13.5495373,8.36166636 14.2148328,8.36166636 C14.6766349,8.36166636 15.0509995,7.98730181 15.0509995,7.52549973 C15.0509995,7.06369764 14.6766349,6.68933309 14.2148328,6.68933309 C12.8294266,6.68933309 11.7063329,5.56623943 11.7063329,4.18083318 C11.7063329,3.7190311 11.3319684,3.34466654 10.8701663,3.34466654 C10.4083642,3.34466654 10.0339996,3.7190311 10.0339996,4.18083318 C10.0339996,5.56623943 8.91090597,6.68933309 7.52549973,6.68933309 C7.06369764,6.68933309 6.68933309,7.06369764 6.68933309,7.52549973 C6.68933309,7.98730181 7.06369764,8.36166636 7.52549973,8.36166636 Z M10.8701663,6.68933309 C11.1082297,7.00594689 11.3897191,7.28743627 11.7063329,7.52549973 C11.3897191,7.76356318 11.1082297,8.04505256 10.8701663,8.36166636 C10.6321028,8.04505256 10.3506134,7.76356318 10.0339996,7.52549973 C10.3506134,7.28743627 10.6321028,7.00594689 10.8701663,6.68933309 Z" id="Shape"></path>
                        <path d="M0.836166636,38.4636653 L49.3338315,38.4636653 C49.6158089,38.46352 49.8787214,38.3212648 50.033106,38.0853058 C50.1874906,37.8493468 50.2125512,37.5514685 50.0997602,37.293032 L44.2465937,23.9143658 C44.1136649,23.6097876 43.8129871,23.412837 43.4806651,23.4126658 L28.5785033,23.4126658 L33.0101865,10.6293503 C33.8525604,8.22652702 33.4652598,5.56352297 31.9733398,3.50019354 C30.3675208,1.30152177 27.8084833,0.00164279771 25.0858353,0.00164279771 C22.3631872,0.00164279771 19.8041497,1.30152177 18.1983307,3.50019354 C16.7064107,5.56352297 16.3191101,8.22652702 17.161484,10.6293503 L21.5914949,23.4126658 L6.68933309,23.4126658 C6.35701106,23.412837 6.05633324,23.6097876 5.92340445,23.9143658 L0.0702379974,37.293032 C-0.0425530082,37.5514685 -0.0174924434,37.8493468 0.13689217,38.0853058 C0.291276783,38.3212648 0.554189253,38.46352 0.836166636,38.4636653 Z M18.741839,10.0816611 C18.0778472,8.19010602 18.3837463,6.09318205 19.5604461,4.47014684 C20.8524274,2.71255061 22.9036325,1.67459231 25.0849991,1.67459231 C27.2663657,1.67459231 29.3175707,2.71255061 30.609552,4.47014684 C31.7862519,6.09318205 32.0921509,8.19010602 31.4281592,10.0816611 L25.0849991,28.3845126 L18.741839,10.0816611 Z M26.840949,28.4296656 L40.7464002,28.4296656 L42.9413376,33.4466654 L7.22949674,33.4466654 L9.42443416,28.4296656 L23.3290491,28.4296656 L24.2939854,31.2124282 C24.4105502,31.5492172 24.7277724,31.7751095 25.0841629,31.7751095 C25.4405534,31.7751095 25.7577756,31.5492172 25.8743404,31.2124282 L26.840949,28.4296656 Z M7.23618607,25.0849991 L22.1709584,25.0849991 L22.7504218,26.7573324 L8.87674501,26.7573324 C8.54442298,26.7575036 8.24374516,26.9544541 8.11081637,27.2590323 L5.18423314,33.9483654 C5.07144214,34.206802 5.0965027,34.5046803 5.25088732,34.7406393 C5.40527193,34.9765983 5.6681844,35.1188535 5.95016178,35.1189987 L44.2198364,35.1189987 C44.5018138,35.1188535 44.7647262,34.9765983 44.9191109,34.7406393 C45.0734955,34.5046803 45.098556,34.206802 44.985765,33.9483654 L42.0591818,27.2590323 C41.926253,26.9544541 41.6255752,26.7575036 41.2932532,26.7573324 L27.4195763,26.7573324 L27.9990398,25.0849991 L42.9338121,25.0849991 L48.0553327,36.791332 L2.11466542,36.791332 L7.23618607,25.0849991 Z" id="Shape"></path>
                    </g>
                </g>
            </g>
        </g>
    </g>
</svg>