<?xml version="1.0" encoding="UTF-8"?>
<svg width="30px" height="41px" viewBox="0 0 30 41" version="1.1" xmlns="http://www.w3.org/2000/svg" xmlns:xlink="http://www.w3.org/1999/xlink">
    <!-- Generator: Sketch 48.2 (47327) - http://www.bohemiancoding.com/sketch -->
    <title>Group</title>
    <desc>Created with Sketch.</desc>
    <defs></defs>
    <g id="Desktop-HD" stroke="none" stroke-width="1" fill="none" fill-rule="evenodd" transform="translate(-941.000000, -2730.000000)">
        <g id="CONTACT" transform="translate(900.000000, 2585.000000)" fill="#92F4E2" fill-rule="nonzero">
            <g id="tel" transform="translate(41.000000, 145.000000)">
                <g id="Group" transform="translate(0.337095, 0.000000)">
                    <path d="M4.02109218,30.8283734 C4.02109218,30.4582421 3.72104147,30.1581914 3.35091015,30.1581914 C2.98077884,30.1581914 2.68072812,30.4582421 2.68072812,30.8283734 L2.68072812,32.8389195 C2.68263174,34.172559 3.25101881,35.4425984 4.2442628,36.3325784 C4.42125725,36.5005922 4.67559,36.5591149 4.90821703,36.4853562 C5.14084405,36.4115975 5.31498942,36.2172179 5.36283623,35.9779139 C5.41068304,35.73861 5.32466721,35.4922133 5.13828562,35.3346774 C4.42851923,34.6990452 4.02235897,33.7917022 4.02109218,32.8389195 L4.02109218,30.8283734 Z" id="Shape"></path>
                    <path d="M11.3930945,10.7229125 C11.7632258,10.7229125 12.0632765,10.4228618 12.0632765,10.0527305 L12.0632765,0.67018203 C12.0632765,0.300050715 11.7632258,0 11.3930945,0 L7.37200233,0 C3.3025481,0.00480084942 0.00480084942,3.3025481 0,7.37200233 L0,32.8389195 C0.00480084942,36.9083737 3.3025481,40.206121 7.37200233,40.2109218 L11.3930945,40.2109218 C11.7632258,40.2109218 12.0632765,39.9108711 12.0632765,39.5407398 L12.0632765,30.1581914 C12.0632765,29.78806 11.7632258,29.4880093 11.3930945,29.4880093 L8.04218436,29.4880093 L8.04218436,10.7229125 L11.3930945,10.7229125 Z M8.04218436,1.34036406 L10.7229125,1.34036406 L10.7229125,9.38254842 L8.04218436,9.38254842 L8.04218436,1.34036406 Z M6.7018203,38.8336977 C3.65075926,38.4885948 1.34407493,35.9094334 1.34036406,32.8389195 L1.34036406,7.37200233 C1.34407493,4.30148841 3.65075926,1.722327 6.7018203,1.37722407 L6.7018203,38.8336977 Z M10.7229125,30.8283734 L10.7229125,38.8705577 L8.04218436,38.8705577 L8.04218436,30.8283734 L10.7229125,30.8283734 Z" id="Shape"></path>
                    <path d="M2.69078085,28.1476453 C2.69078085,28.5177766 2.99083157,28.8178273 3.36096288,28.8178273 C3.7310942,28.8178273 4.03114491,28.5177766 4.03114491,28.1476453 C4.03114491,27.7775139 3.7310942,27.4774632 3.36096288,27.4774632 L3.35426106,27.4774632 C2.98674963,27.4811385 2.69076247,27.7801155 2.69078085,28.1476453 Z" id="Shape"></path>
                    <path d="M14.0738226,6.03163827 L16.7545508,6.03163827 C17.1246821,6.03163827 17.4247328,5.73158756 17.4247328,5.36145624 C17.4247328,4.99132493 17.1246821,4.69127421 16.7545508,4.69127421 L14.0738226,4.69127421 C13.7036913,4.69127421 13.4036406,4.99132493 13.4036406,5.36145624 C13.4036406,5.73158756 13.7036913,6.03163827 14.0738226,6.03163827 Z" id="Shape"></path>
                    <path d="M14.4759318,3.21687374 L17.15666,1.20632765 C17.3482064,1.06266787 17.448561,0.82773197 17.4199211,0.590018033 C17.3912813,0.352304095 17.2379981,0.147926528 17.0178119,0.0538723892 C16.7976257,-0.0401817501 16.5439879,-0.00962339914 16.3524415,0.134036406 L13.6717134,2.1445825 C13.480167,2.28824228 13.3798125,2.52317818 13.4084523,2.76089211 C13.4370921,2.99860603 13.5903753,3.20298359 13.8105615,3.29703773 C14.0307477,3.39109187 14.2843855,3.36053353 14.4759318,3.21687374 Z" id="Shape"></path>
                    <path d="M14.4759318,7.50603874 C14.1798268,7.28395995 13.7597558,7.34397009 13.537677,7.64007514 C13.3155982,7.93618019 13.3756084,8.3562512 13.6717134,8.57832998 L16.3524415,10.5888761 C16.6485466,10.8109549 17.0686176,10.7509447 17.2906964,10.4548397 C17.5127752,10.1587346 17.452765,9.73866362 17.15666,9.51658483 L14.4759318,7.50603874 Z" id="Shape"></path>
                    <path d="M28.8010727,19.9546699 C28.7924626,19.9329038 28.7826172,19.9116468 28.7715847,19.8910027 C28.7585676,19.8536331 28.742193,19.8175192 28.7226614,19.7831033 C28.6960141,19.7341883 28.662875,19.689101 28.6241447,19.6490669 C28.6087305,19.6323124 28.6013585,19.608856 28.5832636,19.594112 L25.5151702,16.9636475 C24.3307507,15.9409417 22.5945262,15.8793418 21.3406064,16.8155373 L19.4352789,18.2289512 L17.5306215,16.821569 C16.2765698,15.8850122 14.5399247,15.9466171 13.3553875,16.9696792 L10.2872942,19.5967927 C10.2691992,19.6122069 10.2618272,19.6349931 10.2450727,19.6524178 C10.207701,19.6916407 10.1752895,19.7353062 10.1485665,19.7824332 C10.1286649,19.8169865 10.1120605,19.8533367 10.098973,19.8910027 C10.0880666,19.9117094 10.0782244,19.9329595 10.069485,19.9546699 C10.0671416,19.9865723 10.0671416,20.0186036 10.069485,20.050506 C10.0635051,20.074364 10.0588071,20.0985252 10.0554112,20.1228856 C10.0554112,20.13897 10.0654639,20.1517035 10.0668043,20.1671176 C10.0730596,20.22566 10.0877314,20.2829931 10.1103661,20.3373439 C10.1192818,20.3692172 10.131174,20.4001818 10.1458858,20.429829 C10.1811283,20.4916297 10.2264282,20.547122 10.2799222,20.5940236 C10.293996,20.6067571 10.3000276,20.624852 10.3154418,20.6362451 L10.3301858,20.6483083 L17.392564,26.0814741 C18.597914,27.0075975 20.2753244,27.0075975 21.4806744,26.0814741 L28.5403719,20.6483083 L28.5551159,20.6362451 C28.5705301,20.624852 28.5765618,20.6067571 28.5906356,20.5940236 C28.6441296,20.547122 28.6894294,20.4916297 28.724672,20.429829 C28.7393838,20.4001818 28.751276,20.3692172 28.7601916,20.3373439 C28.7828263,20.2829931 28.7974982,20.22566 28.8037535,20.1671176 C28.8037535,20.1517035 28.8144764,20.13897 28.8151466,20.1228856 C28.8117507,20.0985252 28.8070527,20.074364 28.8010727,20.050506 C28.8034161,20.0186036 28.8034161,19.9865723 28.8010727,19.9546699 Z M20.6610418,25.0192355 C19.9383825,25.5750633 18.9321752,25.5750633 18.2095159,25.0192355 L13.5711861,21.4505162 L19.2844879,22.7694345 C19.3837741,22.7917739 19.4867836,22.7917739 19.5860698,22.7694345 L25.2993716,21.4505162 L20.6610418,25.0192355 Z M19.4352789,21.4284002 L12.1664846,19.7529452 L14.2272943,17.9863453 C14.9378149,17.3714207 15.9806884,17.3343247 16.7331049,17.8972111 L19.0365206,19.6034946 C19.2734319,19.7788806 19.5971258,19.7788806 19.8340372,19.6034946 L22.138123,17.8938602 C22.890488,17.331592 23.9327619,17.3686766 24.6432634,17.9829944 L26.7040732,19.7495942 L19.4352789,21.4284002 Z" id="Shape"></path>
                </g>
            </g>
        </g>
    </g>
</svg>