<?xml version="1.0" encoding="UTF-8"?>
<svg width="31px" height="25px" viewBox="0 0 31 25" version="1.1" xmlns="http://www.w3.org/2000/svg" xmlns:xlink="http://www.w3.org/1999/xlink">
    <!-- Generator: Sketch 50.2 (55047) - http://www.bohemiancoding.com/sketch -->
    <title>twitter-logo-silhouette</title>
    <desc>Created with Sketch.</desc>
    <defs></defs>
    <g id="Page-1" stroke="none" stroke-width="1" fill="none" fill-rule="evenodd">
        <g id="PAGE-ARTICLE" transform="translate(-127.000000, -1005.000000)" fill="#9B9B9B" fill-rule="nonzero">
            <g id="social-medias" transform="translate(127.000000, 1005.000000)">
                <g id="twitter-logo-silhouette">
                    <path d="M30.7228916,2.9747992 C29.5921185,3.47585341 28.3788153,3.81566265 27.1040161,3.96736948 C28.4056727,3.18790161 29.4020582,1.95155622 29.8742972,0.482881526 C28.6533133,1.20471888 27.3055723,1.72886546 25.8695281,2.01300201 C24.7195783,0.78624498 23.0838855,0.0221385542 21.2696285,0.0221385542 C17.789006,0.0221385542 14.9668675,2.84427711 14.9668675,6.32299197 C14.9668675,6.81636546 15.0225402,7.29824297 15.1300703,7.75903614 C9.89282129,7.49598394 5.24879518,4.98679719 2.14061245,1.17399598 C1.59728916,2.10321285 1.28820281,3.18594378 1.28820281,4.34171687 C1.28820281,6.52841365 2.40170683,8.45783133 4.09116466,9.58664659 C3.05828313,9.55210843 2.08684739,9.26797189 1.23639558,8.79568273 L1.23639558,8.87439759 C1.23639558,11.9269076 3.40963855,14.474498 6.29126506,15.0543173 C5.76330321,15.1963855 5.20657631,15.2751004 4.63062249,15.2751004 C4.22364458,15.2751004 3.83007028,15.2347892 3.44417671,15.1579819 C4.24663655,17.6633534 6.57349398,19.485241 9.33037149,19.5351908 C7.17439759,21.2246486 4.45592369,22.2287149 1.50326305,22.2287149 C0.994528112,22.2287149 0.493423695,22.197992 5.02008032e-05,22.1423193 C2.78955823,23.9335341 6.10125502,24.9779116 9.66059237,24.9779116 C21.2543675,24.9779116 27.5917169,15.3749498 27.5917169,7.04678715 L27.5705823,6.23087349 C28.8088353,5.34769076 29.8800703,4.23805221 30.7228916,2.9747992 Z" id="Shape"></path>
                </g>
            </g>
        </g>
    </g>
</svg>