<?xml version="1.0" encoding="UTF-8"?>
<svg width="20px" height="24px" viewBox="0 0 20 24" version="1.1" xmlns="http://www.w3.org/2000/svg" xmlns:xlink="http://www.w3.org/1999/xlink">
    <!-- Generator: Sketch 50.2 (55047) - http://www.bohemiancoding.com/sketch -->
    <title>youtube-logo</title>
    <desc>Created with Sketch.</desc>
    <defs></defs>
    <g id="Page-1" stroke="none" stroke-width="1" fill="none" fill-rule="evenodd">
        <g id="PAGE-ARTICLE" transform="translate(-131.000000, -1199.000000)" fill="#9B9B9B" fill-rule="nonzero">
            <g id="social-medias" transform="translate(127.000000, 1005.000000)">
                <g id="youtube-logo" transform="translate(4.000000, 194.000000)">
                    <path d="M19.6204717,12.392625 C19.5039151,11.8660781 19.2455189,11.4245156 18.8461321,11.06775 C18.4464151,10.7109844 17.9863679,10.5012656 17.4654717,10.4387812 C15.8135849,10.260375 13.322217,10.1712187 9.99108491,10.1712187 C6.66004717,10.1712187 4.17311321,10.2604219 2.53004717,10.4387812 C2.0004717,10.5012656 1.53811321,10.7109844 1.14292453,11.06775 C0.747830189,11.4246562 0.48745283,11.8662656 0.361698113,12.392625 C0.128301887,13.4277656 0.0115566038,14.9890781 0.0115566038,17.0768906 C0.0115566038,19.2002812 0.128301887,20.7617344 0.361698113,21.7611094 C0.478584906,22.2872812 0.736745283,22.7292187 1.13627358,23.0858438 C1.53580189,23.44275 1.9959434,23.6479219 2.51660377,23.7015 C4.16877358,23.8888594 6.66033019,23.9825625 9.99117925,23.9825625 C13.3217925,23.9825625 15.8138208,23.8888594 17.4653774,23.7015 C17.9862736,23.6479219 18.4440566,23.44275 18.8392453,23.0858438 C19.2343868,22.7292656 19.4947642,22.2872812 19.6203774,21.7611094 C19.8537736,20.7259687 19.9706604,19.1646563 19.9706604,17.0768906 C19.9706132,14.9534531 19.8537264,13.3919531 19.6204717,12.392625 Z M5.70872642,13.7445938 L4.26773585,13.7445938 L4.26773585,21.3594375 L2.92108491,21.3594375 L2.92108491,13.7445938 L1.50693396,13.7445938 L1.50693396,12.4866094 L5.70877358,12.4866094 L5.70877358,13.7445938 L5.70872642,13.7445938 Z M9.34481132,21.3594375 L8.14622642,21.3594375 L8.14622642,20.6365781 C7.66141509,21.1810313 7.20334906,21.4530938 6.77240566,21.4530938 C6.35948113,21.4530938 6.0990566,21.2879062 5.99146226,20.9579063 C5.91971698,20.7437812 5.88363208,20.4179531 5.88363208,19.9808437 L5.88363208,14.7481406 L7.08221698,14.7481406 L7.08221698,19.6195781 C7.08221698,19.9049531 7.08674528,20.0611875 7.09580189,20.088 C7.12273585,20.2753594 7.21693396,20.3690156 7.37863208,20.3690156 C7.62099057,20.3690156 7.8770283,20.1816563 8.14627358,19.8069375 L8.14627358,14.7481406 L9.34485849,14.7481406 L9.34485849,21.3594375 L9.34481132,21.3594375 Z M13.9237264,19.3786406 C13.9237264,20.0299219 13.8833962,20.4763125 13.8029717,20.7172969 C13.6499528,21.2077031 13.3314623,21.4530938 12.8466981,21.4530938 C12.4157075,21.4530938 11.9983019,21.2077031 11.5940566,20.7172969 L11.5940566,21.3595781 L10.3956604,21.3595781 L10.3956604,12.4866094 L11.5940566,12.4866094 L11.5940566,15.39075 C11.9803302,14.9092031 12.3976415,14.6682656 12.8466981,14.6682656 C13.3314623,14.6682656 13.6499528,14.9181562 13.8029717,15.4177031 C13.8833491,15.6496406 13.9237264,16.09125 13.9237264,16.7425781 L13.9237264,19.3786406 Z M18.4757075,18.2813906 L16.0651415,18.2813906 L16.0651415,19.4457187 C16.0651415,20.061375 16.2714623,20.3690156 16.6845283,20.3690156 C16.9807075,20.3690156 17.1604245,20.2086094 17.2232075,19.8871406 C17.2409434,19.7979844 17.2501415,19.5259219 17.2501415,19.0709531 L18.4756604,19.0709531 L18.4756604,19.2448594 C18.4756604,19.6821562 18.4664623,19.9407656 18.4486792,20.02125 C18.421934,20.2618594 18.3279245,20.5027969 18.1658962,20.7437344 C17.8426887,21.2166562 17.3574528,21.4530938 16.7111321,21.4530938 C16.091934,21.4530938 15.6070283,21.2255156 15.2567453,20.7706875 C14.9965094,20.4405469 14.8664151,19.9230469 14.8664151,19.2181875 L14.8664151,16.90275 C14.8664151,16.1979375 14.9919811,15.6804375 15.2431604,15.3502969 C15.5934906,14.895375 16.0738208,14.6678906 16.6845283,14.6678906 C17.2861792,14.6678906 17.7623585,14.895375 18.1120283,15.3502969 C18.3547642,15.6804375 18.4757075,16.1979375 18.4757075,16.90275 L18.4757075,18.2813906 Z" id="Shape"></path>
                    <path d="M12.199717,15.7520156 C11.9931132,15.7520156 11.7913208,15.8505 11.5937264,16.0465313 L11.5937264,20.0746875 C11.7912736,20.2709063 11.9931132,20.3690156 12.199717,20.3690156 C12.5496698,20.3690156 12.7251887,20.0703281 12.7251887,19.4722969 L12.7251887,16.6487344 C12.7251415,16.0508438 12.5500472,15.7520156 12.199717,15.7520156 Z" id="Shape"></path>
                    <path d="M16.6711321,15.7520156 C16.2671226,15.7520156 16.0651415,16.0555313 16.0651415,16.6618594 L16.0651415,17.2775156 L17.2770755,17.2775156 L17.2770755,16.6618594 C17.2770755,16.0552031 17.075,15.7520156 16.6711321,15.7520156 Z" id="Shape"></path>
                    <path d="M4.9279717,5.33985938 L4.9279717,8.9668125 L6.27462264,8.9668125 L6.27462264,5.33985938 L7.90391509,0 L6.53028302,0 L5.61471698,3.51979688 L4.6584434,0 L3.23099057,0 C3.48240566,0.74953125 3.77419811,1.58367188 4.10641509,2.50270313 C4.5284434,3.733875 4.80212264,4.67976563 4.9279717,5.33985938 Z" id="Shape"></path>
                    <path d="M9.70849057,9.06051563 C10.3280189,9.06051563 10.8037264,8.83298438 11.1359434,8.37796875 C11.3874528,8.04782813 11.5130189,7.521375 11.5130189,6.79879688 L11.5130189,4.45664063 C11.5130189,3.74296875 11.3871226,3.220875 11.1359434,2.89073438 C10.8037264,2.43571875 10.3280189,2.2081875 9.70849057,2.2081875 C9.10679245,2.2081875 8.63537736,2.43571875 8.29433962,2.89073438 C8.04306604,3.220875 7.91735849,3.74296875 7.91735849,4.45664063 L7.91735849,6.79875 C7.91735849,7.51242188 8.04292453,8.03892188 8.29433962,8.37792188 C8.63551887,8.83298438 9.10674528,9.06051563 9.70849057,9.06051563 Z M9.12929245,4.21570312 C9.12929245,3.60004687 9.32235849,3.29221875 9.70849057,3.29221875 C10.0946226,3.29221875 10.2875,3.60004688 10.2875,4.21570312 L10.2875,7.02609375 C10.2875,7.65084375 10.0946226,7.96289062 9.70849057,7.96289062 C9.32235849,7.96289062 9.12929245,7.65065625 9.12929245,7.02609375 L9.12929245,4.21570312 Z" id="Shape"></path>
                    <path d="M13.4116981,9.06051563 C13.8608962,9.06051563 14.3233962,8.78390625 14.7991038,8.23059375 L14.7991038,8.96667188 L16.0246226,8.96667188 L16.0246226,2.28853125 L14.7991038,2.28853125 L14.7991038,7.38745313 C14.5296698,7.77117188 14.2739623,7.96284375 14.0312264,7.96284375 C13.8694811,7.96284375 13.7751887,7.86473438 13.7483962,7.66846875 C13.7393868,7.65060938 13.7348585,7.49432813 13.7348585,7.2 L13.7348585,2.28853125 L12.5093396,2.28853125 L12.5093396,7.56159375 C12.5093396,8.01651563 12.5455189,8.35096875 12.6171698,8.56523438 C12.7340094,8.895375 12.9987736,9.06051563 13.4116981,9.06051563 Z" id="Shape"></path>
                </g>
            </g>
        </g>
    </g>
</svg>