<?xml version="1.0" encoding="UTF-8"?>
<svg width="150px" height="150px" viewBox="0 0 150 150" version="1.1" xmlns="http://www.w3.org/2000/svg" xmlns:xlink="http://www.w3.org/1999/xlink">
    <!-- Generator: Sketch 49 (51002) - http://www.bohemiancoding.com/sketch -->
    <title>logo</title>
    <desc>Created with Sketch.</desc>
    <defs></defs>
    <g id="Page-1" stroke="none" stroke-width="1" fill="none" fill-rule="evenodd">
        <g id="LE-MOOK">
            <g id="menu">
                <g id="logo">
                    <rect id="Rectangle" fill="#FBFBFB" x="0" y="0" width="150" height="150"></rect>
                    <g id="Group-3" transform="translate(25.000000, 38.000000)">
                        <rect id="Rectangle" stroke="#D2A900" x="20" y="8" width="60" height="60"></rect>
                        <g id="Group-2" fill="#000000">
                            <path d="M47.19,29.47 L47.25,29.47 L47.19,29.47 Z M66.27,22.81 C66.33,23.02 66.3,23.23 66.21,23.44 C66.12,23.74 65.55,23.65 65.31,23.41 L65.25,23.47 C65.22,23.5 65.19,23.53 65.16,23.53 L65.13,23.53 L65.13,23.56 L64.74,23.92 C64.26,24.37 63.84,24.85 63.39,25.33 C62.97,25.84 62.46,26.29 62.01,26.77 L60.03,28.87 C58.83,30.19 57.66,31.54 56.55,32.92 C54.33,35.62 52.23,38.44 50.22,41.29 C48.06,44.32 46.05,47.47 44.28,50.77 C44.19,51.01 43.92,51.01 43.68,50.95 C43.53,50.89 43.2,50.71 43.29,50.47 C43.5,49.93 43.62,49.36 43.74,48.79 C43.86,48.25 44.01,47.71 44.16,47.17 C44.52,46.06 44.88,44.95 45.27,43.84 C45.87,42.07 46.5,40.27 47.07,38.47 C47.49,37.12 47.88,35.77 48.15,34.36 C48.24,33.97 48.3,33.55 48.36,33.16 C48.39,33.04 48.39,32.92 48.39,32.8 C48.42,32.74 48.42,32.68 48.42,32.65 L48.42,32.53 L48.48,31.84 C48.48,31.39 48.45,30.97 48.36,30.52 C48.36,30.46 48.33,30.43 48.33,30.37 C48.33,30.34 48.33,30.31 48.3,30.28 L48.3,30.31 C48.3,30.22 48.27,30.13 48.21,30.04 L48.09,29.8 L48.09,29.77 L48.06,29.77 C48.06,29.74 48.03,29.71 48,29.68 C48,29.65 47.97,29.65 47.97,29.65 L47.88,29.56 C47.85,29.53 47.82,29.5 47.79,29.5 L47.76,29.5 L47.7,29.47 L47.61,29.47 C47.55,29.44 47.46,29.44 47.49,29.44 C47.4,29.44 47.31,29.44 47.22,29.47 L47.19,29.47 C47.16,29.47 47.16,29.47 47.16,29.5 C47.1,29.5 47.04,29.5 46.98,29.53 C46.83,29.56 46.68,29.62 46.53,29.68 C46.5,29.68 46.47,29.71 46.47,29.71 C46.44,29.71 46.41,29.74 46.38,29.74 C46.29,29.77 46.23,29.83 46.17,29.86 C44.97,30.52 44.1,31.69 43.38,32.86 C42.81,33.76 42.3,34.75 41.91,35.74 C41.73,36.25 41.55,36.76 41.43,37.27 C41.4,37.39 41.37,37.54 41.37,37.66 C41.37,37.69 41.37,37.72 41.34,37.72 L41.34,38.05 C41.34,38.05 41.37,38.08 41.37,38.11 C41.49,38.2 41.58,38.35 41.46,38.5 C41.31,38.68 40.98,38.62 40.8,38.53 C40.47,38.32 40.32,37.99 40.35,37.6 C40.41,37.18 40.5,36.76 40.62,36.34 C40.83,35.65 41.1,34.99 41.43,34.33 C42.03,33.07 42.72,31.81 43.65,30.76 C44.52,29.77 45.66,28.87 47.01,28.75 C47.97,28.66 48.87,29.14 49.23,30.07 C49.53,30.91 49.53,31.84 49.44,32.71 C49.23,35.26 48.45,37.72 47.64,40.15 C47.04,41.92 46.41,43.69 45.81,45.49 C45.66,45.88 45.54,46.3 45.42,46.69 C45.9,45.88 46.41,45.07 46.92,44.29 C48.93,41.23 51.09,38.29 53.31,35.38 C55.44,32.59 57.69,29.89 60.09,27.34 C62.43,24.97 62.7,24.64 62.97,24.31 C63.39,23.89 63.78,23.44 64.23,23.08 C64.62,22.75 65.07,22.39 65.61,22.39 C65.88,22.39 66.21,22.51 66.27,22.81 Z M61.26,37.87 C61.53,37.69 62.25,38.05 61.89,38.35 C61.35,38.8 60.69,39.1 60.03,39.37 C59.37,39.64 58.68,39.88 57.96,40.03 C57.69,40.06 57.3,40.15 56.94,40.18 C56.79,40.39 56.64,40.6 56.46,40.81 C56.16,41.2 55.86,41.56 55.53,41.92 C55.14,42.34 54.69,42.76 54.15,42.97 C53.64,43.18 53.04,43.3 52.53,43 C52.29,42.85 52.11,42.64 52.05,42.34 C51.99,42.1 52.02,41.83 52.08,41.59 C52.26,40.81 52.68,40.09 53.13,39.46 C53.64,38.8 54.24,38.2 54.96,37.78 C55.14,37.69 55.41,37.75 55.56,37.87 C55.8,38.05 55.68,38.38 55.41,38.38 C54.9,38.8 54.45,39.28 54.03,39.82 C53.61,40.36 53.22,40.99 53.04,41.68 C53.01,41.8 52.95,41.95 52.95,42.1 L52.95,42.34 C52.95,42.49 53.1,42.49 53.19,42.49 C53.25,42.49 53.28,42.46 53.34,42.46 C53.37,42.46 53.52,42.37 53.43,42.43 L53.58,42.34 C54.06,42.1 54.39,41.77 54.78,41.38 C55.11,40.99 55.47,40.6 55.77,40.18 C55.86,40.06 55.95,39.97 56.01,39.88 L55.92,39.79 C55.74,39.58 55.68,39.31 55.68,39.04 C55.68,38.86 55.68,38.62 55.77,38.44 C55.86,38.17 56.07,37.9 56.31,37.75 C56.7,37.54 57.18,37.66 57.42,38.02 C57.72,38.44 57.6,38.92 57.42,39.37 L57.42,39.4 L57.48,39.4 C58.2,39.25 58.89,39.01 59.58,38.74 L60.48,38.32 C60.75,38.17 61.02,38.05 61.26,37.87 Z M56.64,38.2 L56.61,38.2 L56.64,38.2 Z M77.01,38.35 C77.16,38.41 77.4,38.65 77.25,38.77 C76.26,39.64 75.36,40.45 74.25,41.17 C73.74,41.5 73.5,41.68 73.11,41.89 C71.91,42.55 71.49,42.73 71.04,42.82 C70.32,42.91 69.39,42.82 69,42.16 C68.76,41.8 68.82,41.32 68.94,40.9 C68.67,41.23 68.37,41.5 68.04,41.8 C67.74,42.07 67.47,42.43 67.17,42.64 C66.93,42.85 66.66,43 66.33,43.12 C65.97,43.27 65.55,43.27 65.16,43 C64.89,42.79 64.77,42.43 64.77,42.1 C64.8,41.35 65.25,40.75 65.67,40.18 C66.15,39.58 66.69,39.04 67.32,38.59 C67.77,38.26 68.28,38.02 68.91,37.81 C69.12,37.75 69.42,37.69 69.66,37.72 C69.93,37.81 70.32,38.02 70.17,38.35 C70.08,38.56 69.84,38.56 69.66,38.47 C69.6,38.47 69.57,38.44 69.51,38.41 L69.48,38.41 C69.45,38.44 69.39,38.41 69.36,38.44 C69.33,38.44 69.18,38.5 69.24,38.47 C68.76,38.68 68.31,38.95 67.89,39.25 C67.53,39.55 67.08,39.94 66.72,40.39 C66.36,40.81 65.97,41.26 65.79,41.83 C65.7,42.07 65.64,42.34 65.73,42.58 C65.76,42.58 65.79,42.58 65.82,42.55 C66.15,42.37 66.39,42.22 66.63,41.98 C66.96,41.71 67.26,41.41 67.53,41.11 L69.27,39.25 L70.2,38.41 L70.23,38.38 C70.44,38.11 70.71,37.87 70.89,37.6 C71.1,37.36 71.79,37.57 71.79,37.9 L71.79,37.93 C71.79,37.99 71.7,38.11 71.64,38.17 C71.61,38.23 71.55,38.26 71.52,38.32 C71.28,38.62 71.16,38.65 70.59,39.52 C70.5,39.67 70.38,39.82 70.32,39.97 C70.14,40.33 69.96,40.72 69.87,41.05 L69.78,41.35 C69.57,41.89 70.02,42.37 70.74,42.16 C71.34,41.98 71.85,41.68 72.48,41.35 C73.95,40.57 75.15,39.46 76.41,38.35 C76.62,38.23 76.86,38.26 77.01,38.35 Z M78.01512,41.78824 C78.0192,41.782 78.024,41.776 78.03,41.77 C78.0264582,41.7735418 78.0230209,41.7770836 78.0196759,41.7806192 L78.01512,41.78824 Z M83.01,40.84 C82.71,40.99 82.23,41.05 81.87,40.9 L81.81,40.96 C81.75,41.08 81.69,41.2 81.66,41.35 C81.63,41.38 81.63,41.41 81.63,41.44 C81.63,41.47 81.6,41.5 81.6,41.53 L81.57,41.65 C81.57,41.86 81.54,42.07 81.75,42.25 C81.81,42.28 81.87,42.31 81.93,42.31 L82.2,42.31 C82.92,42.25 83.43,42.07 84.06,41.8 C85.53,41.14 86.88,40.27 88.5,39.16 C88.83,38.92 89.25,38.68 89.55,38.44 C89.7,38.35 89.91,38.2 90.12,38.14 C90.18,38.11 90.24,38.11 90.33,38.11 L90.36,38.11 C90.33,38.11 90.45,38.14 90.45,38.14 C90.6,38.17 90.54,38.17 90.63,38.23 L90.72,38.32 C90.75,38.41 90.75,38.44 90.72,38.53 L90.66,38.62 L90.57,38.71 L90.18,39.01 L90.06,39.1 L89.1,39.76 C88.23,40.36 87.21,41.05 86.07,41.65 C85.29,42.07 84.3,42.55 83.46,42.76 C83.01,42.88 82.5,42.94 82.02,42.91 C81.45,42.85 80.88,42.52 80.7,41.95 C80.58,41.41 80.88,40.78 81.15,40.33 C81.48,39.82 81.96,39.25 82.41,38.83 C82.8,38.44 83.31,38.02 83.88,37.69 C84.36,37.39 85.14,37.09 85.71,37.51 C86.19,37.9 85.92,38.5 85.62,38.92 C85.32,39.34 84.93,39.7 84.48,40.03 C84.06,40.33 83.52,40.66 83.01,40.84 Z M82.17,40.39 C82.05,40.57 84.03,39.82 85.02,38.32 C85.02,38.32 85.14,38.11 85.11,37.9 C84.84,37.96 84.57,38.11 84.27,38.32 C84.09,38.44 83.97,38.56 83.82,38.68 C83.79,38.71 83.67,38.8 83.67,38.8 C83.19,39.22 82.71,39.67 82.32,40.18 L82.17,40.39 Z" id="Voyages"></path>
                            <path d="M60.8846939,47.4098694 C60.8797959,47.41 60.874898,47.41 60.87,47.41 C60.57,47.98 60.27,48.52 59.94,49.09 C59.4,50.05 58.83,51.04 58.17,51.94 C57.57,52.72 56.94,53.47 56.01,53.83 C55.35,54.1 54.54,54.1 53.94,53.65 C53.43,53.29 53.22,52.66 53.34,52.03 C53.43,51.37 53.79,50.71 54.15,50.17 C54.54,49.63 54.99,49.18 55.5,48.76 C56.55,47.95 57.81,47.44 59.07,47.05 C59.4,46.96 59.73,46.87 60.09,46.78 L60.45,46.06 C60.45,46.06 60.45,46.03 60.48,46.03 C60.84,45.19 61.26,44.38 61.71,43.57 C61.89,43.15 62.1,42.76 62.28,42.34 C61.95,42.58 61.62,42.82 61.26,43.03 C60.9,43.21 60.45,43.39 60.03,43.33 C59.52,43.21 59.19,42.88 59.1,42.37 C59.04,41.95 59.07,41.62 59.22,41.23 C59.43,40.78 59.64,40.36 59.88,39.91 C60.12,39.46 60.39,39.01 60.66,38.53 C60.69,38.44 60.75,38.35 60.81,38.26 C60.81,38.26 60.81,38.23 60.84,38.2 C60.84,38.17 60.87,38.14 60.9,38.11 C60.93,38.02 60.99,37.93 61.02,37.84 C61.14,37.42 62.13,37.72 62.01,38.14 C61.95,38.29 61.86,38.44 61.8,38.56 C61.65,38.83 61.47,39.13 61.32,39.4 C60.99,39.97 60.69,40.54 60.36,41.2 C60.3,41.38 60.21,41.56 60.15,41.77 C60.12,41.83 60.09,41.92 60.09,41.98 L60.09,42.07 C60.09,42.22 60.09,42.37 60.12,42.52 C60.12,42.52 60.63,42.58 61.2,41.98 C61.38,41.83 61.56,41.65 61.77,41.44 C62.19,41.02 62.58,40.57 62.97,40.15 C63.3,39.76 63.6,39.4 63.93,39.04 C64.23,38.71 64.56,38.38 64.86,38.08 C65.04,37.81 65.22,37.54 65.55,37.48 C65.73,37.45 65.94,37.48 66.09,37.6 C66.21,37.69 66.33,37.87 66.21,37.99 C66.03,38.17 65.85,38.32 65.67,38.5 C65.64,38.59 65.61,38.65 65.55,38.71 C65.37,39.07 65.13,39.4 64.92,39.76 C64.5,40.45 64.08,41.17 63.66,41.86 C63.6,41.95 63.57,42.01 63.51,42.1 C62.94,43.27 62.37,44.47 61.77,45.64 C61.65,45.91 61.5,46.18 61.35,46.45 C61.3537132,46.4491016 61.3574263,46.4482034 61.3611393,46.4473053 L60.8846939,47.4098694 Z M58.74,49.24 C59.01,48.73 59.31,48.22 59.58,47.71 C59.55,47.71 59.55,47.71 59.52,47.74 C58.86,47.92 58.29,48.13 57.72,48.43 C56.55,49 55.56,49.75 54.87,50.86 C54.6,51.34 54.24,52.03 54.27,52.6 C54.27,52.66 54.3,52.75 54.3,52.81 C54.3,52.84 54.3,52.87 54.33,52.87 L54.33,52.93 C54.36,52.96 54.42,53.17 54.48,53.17 C54.48,53.2 54.54,53.23 54.54,53.23 C54.54,53.26 54.54,53.26 54.57,53.26 L54.6,53.29 L54.63,53.29 C54.63,53.32 54.66,53.32 54.66,53.32 L54.69,53.32 C54.72,53.32 54.72,53.32 54.72,53.35 L55.02,53.35 C55.02,53.32 55.08,53.32 55.08,53.32 C55.17,53.32 55.23,53.29 55.32,53.26 C55.41,53.23 55.44,53.23 55.5,53.17 C55.71,53.08 55.89,52.96 56.07,52.84 C56.1,52.81 56.16,52.78 56.19,52.75 C56.46,52.51 56.73,52.21 56.97,51.91 C57.63,51.07 58.2,50.17 58.74,49.24 Z" id="Combined-Shape"></path>
                            <path d="M78.0196759,41.7806192 C77.9663537,41.8369791 77.9364582,41.8917709 77.88,41.92 C77.49,42.31 77.1,42.67 76.65,42.97 C76.23,43.24 75.78,43.39 75.27,43.24 C74.82,43.15 74.43,42.82 74.37,42.34 C74.34,41.92 74.49,41.5 74.67,41.11 C74.88,40.63 75.15,40.18 75.45,39.73 C75.9,39.04 76.41,38.35 77.04,37.81 C77.43,37.48 77.91,37.12 78.45,37.18 C78.72,37.21 79.05,37.39 79.14,37.66 C79.17,37.81 79.2,37.96 79.17,38.11 C79.14,38.29 79.08,38.41 78.99,38.59 C78.9,38.68 78.69,38.68 78.6,38.65 C78.48,38.59 78.33,38.5 78.33,38.38 C78.3,38.23 78.3,38.11 78.3,37.96 L78.3,37.93 C78.15,38.02 78.03,38.11 77.91,38.2 L77.73,38.38 C77.64,38.44 77.58,38.5 77.52,38.56 C77.46,38.65 77.37,38.74 77.31,38.8 C77.1,39.04 76.92,39.25 76.77,39.49 C76.47,39.91 76.17,40.33 75.93,40.75 C75.9,40.78 75.87,40.84 75.87,40.87 L75.84,40.87 L75.84,40.9 C75.81,40.96 75.78,40.99 75.75,41.05 C75.69,41.17 75.66,41.26 75.6,41.38 C75.51,41.59 75.42,41.77 75.39,42.01 C75.36,42.04 75.36,42.1 75.36,42.16 C75.33,42.19 75.33,42.28 75.33,42.25 L75.33,42.46 C75.33,42.49 75.36,42.55 75.36,42.55 C75.36,42.73 75.69,42.58 75.78,42.49 C75.99,42.37 76.17,42.25 76.35,42.1 L76.41,42.04 C76.44,42.04 76.47,42.01 76.5,41.98 C76.56,41.95 76.59,41.89 76.65,41.86 L76.95,41.56 C77.37,41.14 77.76,40.72 78.15,40.27 C78.48,39.91 78.81,39.52 79.11,39.16 C79.41,38.83 79.74,38.53 80.07,38.2 C80.22,37.93 80.4,37.69 80.73,37.6 C80.94,37.57 81.15,37.6 81.3,37.72 C81.42,37.81 81.54,37.99 81.42,38.14 C81.24,38.32 81.06,38.47 80.88,38.65 C80.79,38.83 80.7,38.98 80.61,39.13 C80.46,39.37 80.34,39.58 80.19,39.82 C79.95,40.21 79.71,40.6 79.47,41.02 C79.44,41.11 79.38,41.17 79.35,41.26 C79.32,41.26 79.32,41.29 79.32,41.32 C79.29,41.35 79.26,41.38 79.26,41.44 C79.17,41.59 79.08,41.77 78.99,41.92 C78.84,42.19 78.69,42.46 78.57,42.73 C78.15,43.57 77.73,44.47 77.31,45.31 C77.16,45.58 77.04,45.85 76.89,46.12 C78.72,45.67 80.58,45.25 82.44,44.89 C84.18,44.56 85.92,44.26 87.69,44.02 C89.43,43.81 91.2,43.66 92.97,43.57 C94.95,43.45 96.93,43.48 98.88,43.72 C99.75,43.81 100.65,43.9 101.49,44.17 C102.33,44.41 103.62,44.95 103.32,46.03 C103.17,46.48 102.15,46.18 102.27,45.73 C102.3,45.61 102.3,45.52 102.27,45.4 C102.27,45.37 102.27,45.34 102.24,45.31 L102.24,45.28 L102.21,45.28 C102.21,45.25 102.09,45.16 102.15,45.19 L102.12,45.16 L102.09,45.16 C102,45.1 101.91,45.04 101.82,45.01 C101.79,44.98 101.76,44.98 101.73,44.98 C101.73,44.95 101.73,44.95 101.7,44.95 C101.64,44.92 101.61,44.92 101.55,44.89 C101.46,44.86 101.34,44.83 101.25,44.8 C100.17,44.56 99.18,44.41 98.04,44.35 C96.12,44.2 94.2,44.2 92.25,44.35 C91.41,44.41 90.57,44.47 89.73,44.56 C88.83,44.65 87.96,44.77 87.09,44.89 C83.55,45.4 79.98,46.18 76.47,47.05 C76.44,47.08 76.41,47.08 76.38,47.08 C76.38,47.11 76.38,47.11 76.35,47.14 C76.35,47.17 76.32,47.2 76.32,47.2 C76.05,47.74 75.75,48.25 75.48,48.76 C74.91,49.72 74.34,50.71 73.68,51.61 C73.11,52.39 72.48,53.14 71.55,53.5 C70.89,53.77 70.05,53.77 69.45,53.32 C68.94,52.96 68.76,52.33 68.85,51.7 C68.97,51.04 69.3,50.38 69.69,49.84 C70.05,49.3 70.5,48.85 71.04,48.43 C72.09,47.62 73.35,47.11 74.61,46.72 L75.6,46.45 C75.72,46.21 75.87,45.97 75.99,45.73 L75.99,45.7 C76.29,45.07 76.62,44.5 77.28,43.21 C77.52,42.76 77.73,42.31 77.97,41.89 C77.994,41.842 77.9988,41.8132 78.01512,41.78824 L78.0196759,41.7806192 Z M70.53,53.02 C70.56,52.99 70.59,52.99 70.62,52.99 C70.68,52.99 70.77,52.96 70.83,52.93 C70.92,52.9 70.95,52.9 71.04,52.84 C71.22,52.75 71.43,52.63 71.58,52.51 C71.61,52.48 71.64,52.48 71.67,52.45 L71.7,52.45 L71.7,52.42 C72,52.18 72.24,51.88 72.48,51.58 C73.14,50.74 73.71,49.84 74.25,48.91 C74.55,48.4 74.82,47.89 75.12,47.38 C75.09,47.38 75.06,47.38 75.03,47.41 C74.37,47.59 73.83,47.8 73.23,48.1 C72.09,48.67 71.1,49.42 70.41,50.53 C70.11,51.01 69.78,51.7 69.81,52.27 C69.81,52.33 69.81,52.42 69.84,52.48 L69.84,52.54 C69.84,52.57 69.87,52.6 69.87,52.6 C69.9,52.66 69.9,52.72 69.93,52.78 L69.96,52.78 C69.96,52.81 69.99,52.84 69.99,52.84 L70.05,52.9 C70.08,52.93 70.11,52.96 70.17,52.99 L70.23,52.99 L70.26,53.02 L70.53,53.02 Z" id="Combined-Shape"></path>
                            <path d="M97.56,38.35 C97.68,38.44 97.71,38.56 97.62,38.71 C97.44,38.95 97.23,39.1 96.96,39.34 C96.75,39.52 96.54,39.73 96.3,39.91 C95.82,40.27 95.61,40.48 95.1,40.84 C94.38,41.35 93.63,41.83 92.82,42.28 C91.74,42.85 91.05,43.18 89.85,43.36 C89.61,43.39 89.34,43.42 89.1,43.42 L89.01,43.69 C88.98,43.81 88.89,43.93 88.8,44.02 C88.77,44.08 88.68,44.11 88.59,44.11 C88.38,44.2 88.14,44.11 87.96,44.02 C87.75,43.9 87.57,43.72 87.42,43.54 L86.76,42.94 C86.58,42.7 86.37,42.49 86.16,42.25 C86.07,42.16 85.95,42.04 85.89,41.95 C85.83,41.89 85.77,41.77 85.74,41.68 C85.71,41.65 85.71,41.62 85.71,41.59 C85.65,41.47 85.8,41.38 85.89,41.35 C86.13,41.29 86.52,41.35 86.61,41.59 C86.67,41.65 86.7,41.71 86.76,41.77 C86.82,41.83 86.88,41.89 86.94,41.98 C86.97,41.98 87.03,42.07 87.03,42.07 L87.15,42.16 L87.48,42.4 L87.6,42.46 C87.69,42.52 87.78,42.55 87.87,42.58 C87.9,42.58 87.96,42.61 87.96,42.61 L88.08,42.67 L88.26,42.7 C88.56,41.56 88.8,40.48 89.28,39.4 C89.76,38.35 90.51,37.36 91.65,36.97 C91.92,36.91 92.28,37.03 92.4,37.27 C92.49,37.45 92.37,37.57 92.19,37.63 L92.22,37.63 L92.1,37.69 C92.07,37.69 91.98,37.75 92.07,37.69 L91.86,37.78 L91.5,38.02 C91.47,38.05 91.38,38.11 91.23,38.26 L90.96,38.56 L90.51,39.22 L90.33,39.58 L90.15,39.97 L89.85,40.81 C89.64,41.35 89.49,41.95 89.34,42.52 C89.31,42.58 89.31,42.64 89.28,42.73 C89.82,42.73 90.39,42.52 90.96,42.34 C91.5,42.16 91.62,42.1 91.74,42.04 C92.37,41.71 92.55,41.59 93.09,41.26 C93.72,40.87 94.23,40.48 94.83,40.03 L95.82,39.25 C96.18,38.98 96.57,38.56 96.96,38.29 C97.14,38.17 97.38,38.23 97.56,38.35 Z" id="Path"></path>
                            <path d="M22.742322,45.5272687 C22.7269183,45.6012172 22.7127787,45.6754574 22.7,45.75 C22.7,45.81 22.7,45.87 22.67,45.93 L22.67,46.65 C22.67,46.71 22.7,46.74 22.7,46.77 C22.7,46.8 22.76,46.92 22.73,46.83 C22.73,46.9160978 22.7849099,46.9747407 22.815936,47.0584577 C22.8190763,47.0611074 22.8345382,47.0845382 22.85,47.1 C22.85,47.13 22.88,47.16 22.94,47.22 C22.94,47.22 22.97,47.25 23,47.25 C23,47.25 23.03,47.28 23.06,47.28 L23.3,47.28 C23.3244925,47.28 23.348985,47.28 23.3734776,47.2636748 C23.3605132,47.2665529 23.2997445,47.28 23.36,47.28 C23.42,47.25 23.45,47.25 23.48,47.25 C23.6,47.22 23.69,47.19 23.78,47.16 C24.2,47.04 24.62,46.83 25.01,46.59 C25.97,46.05 26.9,45.39 27.77,44.73 C28.16,44.43 28.52,44.13 28.88,43.86 L29.33,43.5 C29.39,43.47 29.42,43.41 29.48,43.38 L29.51,43.35 C29.5189247,43.3410753 29.5331593,43.3294957 29.5463853,43.3192102 C29.5530233,43.3178047 29.5630662,43.3138982 29.5676134,43.3030404 C29.5801688,43.2936165 29.5848604,43.2902011 29.5683255,43.3011458 C29.5693828,43.2979887 29.57,43.294303 29.57,43.29 C29.72,43.17 29.93,43.2 30.11,43.29 C30.23,43.32 30.44,43.53 30.29,43.68 C30.11,43.83 29.9,44.01 29.72,44.19 L29.63,44.28 C29.6,44.31 29.45,44.43 29.54,44.37 C29.45,44.43 29.36,44.52 29.27,44.58 C29.09,44.7 28.94,44.85 28.76,44.97 C27.92,45.66 27.02,46.32 26.06,46.86 C25.61,47.16 25.16,47.4 24.65,47.61 C24.29,47.76 23.87,47.88 23.45,47.91 C22.97,47.91 22.55,47.76 22.22,47.43 C21.9583911,47.1683911 21.8094394,46.7941252 21.8004337,46.443647 C21.5648673,46.6593743 21.3249019,46.8686363 21.08,47.07 C20.51,47.55 19.82,48.15 19.07,48.24 C18.71,48.27 18.29,48.15 18.08,47.88 C17.81,47.49 17.84,47.01 17.99,46.59 C18.2,46.02 18.5,45.51 18.86,45.03 C19.16,44.58 19.52,44.16 19.88,43.77 C20.27,43.35 20.72,42.93 21.26,42.69 C21.68,42.51 22.79,42.45 22.52,43.14 L22.46,43.26 C22.37,43.44 21.8,43.5 21.74,43.38 C21.7139404,43.3018212 21.7105176,43.2689159 21.710068,43.2616207 C21.6198918,43.29 21.4399369,43.2900541 21.23,43.47 C20.87,43.8 20.54,44.13 20.24,44.52 C19.85,44.97 19.52,45.42 19.22,45.93 C19.07,46.17 18.95,46.41 18.86,46.65 C18.8,46.77 18.77,46.89 18.74,47.01 C18.74,47.07 18.71,47.13 18.71,47.16 L18.71,47.28 C18.68,47.4 18.71,47.49 18.74,47.58 C18.77,47.67 18.77,47.64 18.83,47.64 C18.86,47.64 18.89,47.61 18.95,47.61 C18.95,47.61 19.07,47.55 18.98,47.61 C19.73,47.25 20.36,46.71 21.17,45.9 C21.4146262,45.6682489 21.6537268,45.4323536 21.8884876,45.1929069 C22.0116679,44.6196817 22.2306463,44.0592778 22.46,43.53 C22.85,42.54 23.36,41.58 23.9,40.65 C24.2,40.14 24.5,39.63 24.83,39.15 C25.28,38.49 25.76,37.8 26.27,37.17 C26.84,36.42 27.47,35.64 28.19,35.04 C28.46,34.8 28.76,34.56 29.12,34.44 C29.48,34.35 29.96,34.41 30.2,34.74 C30.47,35.07 30.32,35.55 30.17,35.88 C29.96,36.39 29.66,36.87 29.36,37.32 C27.95,39.39 26.39,41.37 24.77,43.26 C24.1192395,44.0306375 23.4489273,44.801275 22.742322,45.5272687 Z M29.5683255,43.3011458 C29.5621146,43.3052569 29.5529089,43.3113941 29.54,43.32 C29.54,43.32 29.542655,43.32 29.5463853,43.3192102 C29.5542647,43.3130826 29.561786,43.3074143 29.5676134,43.3030404 C29.5678686,43.3024311 29.5681065,43.3017998 29.5683255,43.3011458 Z M23.3892563,47.2576645 C23.403445,47.2532768 23.4098297,47.25 23.39,47.25 C23.3844925,47.2555075 23.378985,47.2600039 23.3734776,47.2636748 L23.3892563,47.2576645 Z M22.8194054,47.0682315 C22.8196049,47.0688197 22.8198031,47.0694092 22.82,47.07 C22.82,47.07 22.85,47.1 22.85,47.13 C22.8339038,47.0978077 22.8242848,47.0785697 22.8194054,47.0682315 Z M23.4255933,43.5238943 C23.7359111,43.1697391 24.0429555,42.8112288 24.35,42.45 C25.52,41.07 26.69,39.66 27.71,38.16 C27.92,37.83 28.16,37.5 28.4,37.2 C28.55,36.96 28.7,36.75 28.85,36.51 C29,36.27 29.12,36.06 29.21,35.85 C29.33,35.64 29.36,35.49 29.45,35.28 C29.48,35.22 29.48,35.13 29.48,35.07 C29.48,35.01 29.33,35.07 29.12,35.28 L28.94,35.46 C28.85,35.52 28.79,35.61 28.7,35.67 C28.37,36 28.04,36.36 27.74,36.72 C26.78,37.83 25.91,39.03 25.13,40.29 C24.92,40.65 24.71,41.01 24.5,41.4 C24.38,41.58 24.26,41.79 24.14,42.03 L23.78,42.75 C23.6601648,43.0056484 23.5403296,43.2634244 23.4255933,43.5238943 Z M21.710068,43.2616207 C21.71,43.2605176 21.71,43.26 21.71,43.26 C21.7099729,43.260009 21.7099459,43.260018 21.7099188,43.260027 L21.710068,43.2616207 Z" id="de"></path>
                            <path d="M29.48,45.84 C29.18,45.99 28.7,46.05 28.34,45.9 L28.28,45.96 C28.22,46.08 28.16,46.2 28.13,46.35 C28.1,46.38 28.1,46.41 28.1,46.44 C28.1,46.47 28.07,46.5 28.07,46.53 L28.04,46.65 C28.04,46.86 28.01,47.07 28.22,47.25 C28.28,47.28 28.34,47.31 28.4,47.31 L28.67,47.31 C29.39,47.25 29.9,47.07 30.53,46.8 C32,46.14 33.35,45.27 34.97,44.16 C35.3,43.92 35.72,43.68 36.02,43.44 C36.17,43.35 36.38,43.2 36.59,43.14 C36.65,43.11 36.71,43.11 36.8,43.11 L36.83,43.11 C36.8,43.11 36.92,43.14 36.92,43.14 C37.07,43.17 37.01,43.17 37.1,43.23 L37.19,43.32 C37.22,43.41 37.22,43.44 37.19,43.53 L37.13,43.62 L37.04,43.71 L36.65,44.01 L36.53,44.1 L35.57,44.76 C34.7,45.36 33.68,46.05 32.54,46.65 C31.76,47.07 30.77,47.55 29.93,47.76 C29.48,47.88 28.97,47.94 28.49,47.91 C27.92,47.85 27.35,47.52 27.17,46.95 C27.05,46.41 27.35,45.78 27.62,45.33 C27.95,44.82 28.43,44.25 28.88,43.83 C29.27,43.44 29.78,43.02 30.35,42.69 C30.83,42.39 31.61,42.09 32.18,42.51 C32.66,42.9 32.39,43.5 32.09,43.92 C31.79,44.34 31.4,44.7 30.95,45.03 C30.53,45.33 29.99,45.66 29.48,45.84 Z M28.64,45.39 C28.52,45.57 30.5,44.82 31.49,43.32 C31.49,43.32 31.61,43.11 31.58,42.9 C31.31,42.96 31.04,43.11 30.74,43.32 C30.56,43.44 30.44,43.56 30.29,43.68 C30.26,43.71 30.14,43.8 30.14,43.8 C29.66,44.22 29.18,44.67 28.79,45.18 L28.64,45.39 Z" id="Combined-Shape"></path>
                            <path d="M68.38,1.54 C68.56,2.02 68.38,2.53 68.17,2.98 C67.87,3.58 67.48,4.12 67.09,4.66 C66.7,5.2 66.31,5.74 65.95,6.31 C65.44,7.15 64.9,7.96 64.36,8.77 C63.28,10.42 62.17,12.04 61.12,13.69 L59.56,16.09 L59.02,16.96 L58.57,17.68 L58.3,18.16 C58.18,18.37 58.03,18.52 57.91,18.73 C57.82,18.91 57.43,18.82 57.28,18.76 C57.1,18.67 56.95,18.49 57.07,18.28 C57.19,18.07 57.28,17.83 57.43,17.62 L57.73,17.11 L58.18,16.36 L58.72,15.49 C59.32,14.59 59.92,13.69 60.49,12.79 L63.76,7.87 C64.27,7.09 64.75,6.28 65.29,5.5 L66.4,3.91 C66.58,3.64 66.79,3.37 66.94,3.07 C67.03,2.92 67.09,2.86 67.15,2.71 L67.33,2.35 C67.36,2.23 67.42,2.11 67.42,1.99 C67.45,1.93 67.45,1.87 67.45,1.84 L67.45,1.75 C67.45,1.69 67.45,1.66 67.42,1.6 L67.45,1.6 C67.42,1.6 67.42,1.6 67.42,1.57 L67.09,1.57 C66.85,1.57 66.61,1.6 66.37,1.63 C66.22,1.66 66.43,1.6 66.31,1.63 C66.28,1.63 66.25,1.66 66.22,1.66 C66.16,1.66 66.1,1.69 66.04,1.69 L65.68,1.78 C65.41,1.84 65.17,1.93 64.9,2.02 C63.91,2.35 62.98,2.8 62.05,3.31 C58.78,5.02 55.75,7.12 52.9,9.4 C52.03,10.12 51.19,10.84 50.32,11.56 C51.28,11.53 52.24,11.53 53.2,11.5 C55.09,11.47 56.98,11.47 58.84,11.68 C59.05,11.71 59.26,11.8 59.35,12.01 C59.44,12.16 59.32,12.34 59.17,12.37 C58.66,12.46 58.12,12.49 57.61,12.31 L57.55,12.25 C55.81,12.16 54.1,12.22 52.33,12.25 C51.4,12.25 50.47,12.28 49.51,12.31 C47.89,13.78 46.33,15.31 44.8,16.87 C43.6,18.1 42.43,19.39 41.29,20.68 L39.79,22.42 C39.49,22.78 39.22,23.11 38.92,23.41 C38.77,23.62 38.59,23.8 38.41,23.98 C38.32,24.1 38.17,24.22 38.02,24.19 C37.9,24.16 37.6,24.04 37.66,23.86 C37.69,23.8 37.75,23.77 37.81,23.74 C37.87,23.68 37.9,23.65 37.9,23.59 C38.02,23.47 38.11,23.35 38.2,23.23 L38.68,22.6 C39.01,22.21 39.28,21.82 39.61,21.46 C41.77,18.79 44.14,16.24 46.6,13.84 C47.11,13.36 47.62,12.85 48.16,12.37 L45.19,12.64 C44.53,12.7 43.84,12.76 43.18,12.85 C42.43,12.97 41.68,13.12 40.9,13.3 C40.81,13.45 40.54,13.45 40.36,13.39 C40.12,13.33 39.79,13.09 39.97,12.82 C40.03,12.7 40.3,12.67 40.42,12.64 C40.72,12.55 41.05,12.49 41.35,12.43 C42.76,12.13 44.17,12.01 45.58,11.89 C46.57,11.8 47.56,11.71 48.55,11.65 C48.7,11.65 48.82,11.65 48.97,11.62 C50.92,9.88 52.93,8.2 55.03,6.67 C56.56,5.56 58.12,4.54 59.71,3.61 C61.15,2.8 62.59,1.99 64.12,1.42 C64.87,1.15 65.62,0.94 66.4,0.88 C67.06,0.85 68.08,0.79 68.38,1.54 Z M38.275,24.11125 C38.2825,24.1075 38.29,24.1 38.29,24.1 L38.275,24.1 L38.275,24.11125 Z M73.42,11.08 C73.57,11.11 73.78,11.35 73.63,11.5 C72.97,12.1 72.25,12.61 71.5,13.15 C70.6,13.78 69.67,14.38 68.68,14.98 C68.26,15.22 67.87,15.46 67.45,15.64 C67.12,15.82 66.73,15.97 66.37,16.03 C65.89,16.12 65.53,15.94 65.29,15.55 C65.02,15.07 65.17,14.53 65.38,14.05 C65.59,13.51 65.92,13 66.25,12.46 C66.37,12.22 66.52,11.98 66.61,11.68 C65.83,12.13 65.14,12.82 64.54,13.45 C63.76,14.32 63.07,15.31 62.26,16.21 C62.23,16.21 62.2,16.24 62.17,16.27 C62.05,16.45 61.78,16.39 61.6,16.3 C61.48,16.27 61.3,16.12 61.36,15.97 C61.9,14.71 62.59,13.6 63.34,12.52 C63.61,12.13 63.76,11.71 64.06,11.26 C64.24,10.9 64.51,10.36 64.99,10.36 C65.17,10.36 65.44,10.45 65.53,10.63 C65.62,10.84 65.47,10.96 65.29,10.96 C65.26,10.96 65.26,10.99 65.2,11.02 L65.02,11.26 L64.75,11.83 L64.51,12.37 C65.17,11.68 65.98,11.05 66.91,10.78 C67.12,10.69 67.54,10.84 67.6,11.11 C67.63,11.65 67.39,12.16 67.15,12.64 C66.88,13.15 66.55,13.63 66.34,14.17 C66.22,14.44 66.13,14.65 66.1,14.95 C66.07,15.07 66.07,15.25 66.13,15.4 C66.28,15.37 66.4,15.31 66.55,15.25 L67.12,14.95 L68.44,14.17 C69.37,13.57 70.27,13 71.17,12.34 L72.28,11.53 C72.4,11.41 72.52,11.32 72.67,11.23 L72.82,11.14 C72.88,11.11 72.94,11.02 72.88,11.11 C73.03,10.96 73.24,10.99 73.42,11.08 Z M81.07,13.24 C81.07,13.24 81.07,13.21 81.1,13.21 L81.07,13.21 L81.07,13.24 Z M81.61,9.85 C81.43,9.82 81.16,9.67 81.22,9.43 C81.25,9.34 81.4,9.25 81.49,9.19 C81.7,9.07 81.91,8.98 82.15,8.89 C82.39,8.8 82.63,8.74 82.87,8.65 C82.93,8.65 82.99,8.62 83.05,8.59 C83.08,8.59 83.14,8.56 83.17,8.56 C83.26,8.5 83.38,8.44 83.47,8.41 C83.65,8.32 83.92,8.41 84.07,8.53 C84.19,8.62 84.34,8.83 84.19,8.95 C84.01,9.1 83.74,9.16 83.53,9.25 C83.29,9.31 83.08,9.37 82.84,9.43 C82.72,9.46 82.63,9.49 82.51,9.55 C82.45,9.55 82.39,9.58 82.33,9.58 C82.33,9.61 82.21,9.64 82.24,9.61 C82.03,9.73 81.85,9.88 81.61,9.85 Z" id="Année"></path>
                            <path d="M82.09,11.08 C82.24,11.11 82.45,11.35 82.3,11.5 C81.64,12.1 80.92,12.61 80.17,13.15 C79.27,13.78 78.34,14.38 77.35,14.98 C76.93,15.22 76.54,15.46 76.12,15.64 C75.79,15.82 75.4,15.97 75.04,16.03 C74.56,16.12 74.2,15.94 73.96,15.55 C73.69,15.07 73.84,14.53 74.05,14.05 C74.26,13.51 74.59,13 74.92,12.46 C75.04,12.22 75.19,11.98 75.28,11.68 C74.5,12.13 73.81,12.82 73.21,13.45 C72.43,14.32 71.74,15.31 70.93,16.21 C70.9,16.21 70.87,16.24 70.84,16.27 C70.72,16.45 70.45,16.39 70.27,16.3 C70.15,16.27 69.97,16.12 70.03,15.97 C70.57,14.71 71.26,13.6 72.01,12.52 C72.28,12.13 72.43,11.71 72.73,11.26 C72.91,10.9 73.18,10.36 73.66,10.36 C73.84,10.36 74.11,10.45 74.2,10.63 C74.29,10.84 74.14,10.96 73.96,10.96 C73.93,10.96 73.93,10.99 73.87,11.02 L73.69,11.26 L73.42,11.83 L73.18,12.37 C73.84,11.68 74.65,11.05 75.58,10.78 C75.79,10.69 76.21,10.84 76.27,11.11 C76.3,11.65 76.06,12.16 75.82,12.64 C75.55,13.15 75.22,13.63 75.01,14.17 C74.89,14.44 74.8,14.65 74.77,14.95 C74.74,15.07 74.74,15.25 74.8,15.4 C74.95,15.37 75.07,15.31 75.22,15.25 L75.79,14.95 L77.11,14.17 C78.04,13.57 78.94,13 79.84,12.34 L80.95,11.53 C81.07,11.41 81.19,11.32 81.34,11.23 L81.49,11.14 C81.55,11.11 81.61,11.02 81.55,11.11 C81.7,10.96 81.91,10.99 82.09,11.08 Z" id="Path"></path>
                            <path d="M81.25,13.84 C80.95,13.99 80.47,14.05 80.11,13.9 C80.11,13.93 80.08,13.93 80.05,13.96 C79.99,14.08 79.93,14.2 79.9,14.35 C79.87,14.38 79.87,14.41 79.87,14.44 C79.87,14.47 79.84,14.5 79.84,14.53 L79.81,14.65 C79.81,14.8 79.81,14.92 79.87,15.07 C79.87,15.1 79.87,15.13 79.9,15.16 L79.99,15.25 C80.05,15.28 80.11,15.31 80.17,15.31 L80.44,15.31 C80.5,15.31 80.56,15.28 80.62,15.28 L80.77,15.28 C80.74,15.28 80.74,15.28 80.89,15.25 C80.89,15.25 80.92,15.25 81.01,15.22 C81.04,15.22 81.1,15.19 81.13,15.19 C81.16,15.19 81.19,15.19 81.22,15.16 C81.34,15.16 81.37,15.13 81.46,15.1 L81.7,15.04 C81.79,14.98 81.97,14.95 82.03,14.92 C82.06,14.92 82.18,14.86 82.21,14.83 L82.3,14.8 C82.75,14.59 83.38,14.29 83.8,14.05 L83.77,14.05 C84.79,13.45 85.78,12.82 86.74,12.16 C87.07,11.92 87.49,11.68 87.79,11.44 C87.94,11.35 88.15,11.2 88.36,11.14 C88.42,11.11 88.48,11.11 88.57,11.11 L88.6,11.11 C88.57,11.11 88.69,11.14 88.69,11.14 C88.84,11.17 88.78,11.17 88.87,11.23 L88.96,11.32 C88.99,11.41 88.99,11.44 88.96,11.53 L88.9,11.62 L88.81,11.71 L88.42,12.01 L88.3,12.1 L87.34,12.76 C86.47,13.36 85.45,14.05 84.31,14.65 C83.53,15.07 82.54,15.55 81.7,15.76 C81.25,15.88 80.74,15.94 80.26,15.91 C79.69,15.85 79.12,15.52 78.94,14.95 C78.82,14.41 79.12,13.78 79.39,13.33 C79.72,12.82 80.2,12.25 80.65,11.83 C81.04,11.44 81.55,11.02 82.12,10.69 L82.09,10.69 C82.6,10.39 83.38,10.09 83.95,10.51 C84.43,10.9 84.16,11.5 83.86,11.92 C83.56,12.34 83.17,12.7 82.72,13.03 C82.3,13.33 81.76,13.66 81.25,13.84 Z M80.41,13.39 C80.41,13.45 80.44,13.48 80.47,13.48 C80.47,13.48 80.5,13.48 80.53,13.45 C80.62,13.45 80.71,13.42 80.8,13.39 C80.8,13.39 80.83,13.36 80.89,13.33 L80.95,13.27 C80.95,13.27 81.01,13.27 81.07,13.24 L81.25,13.15 L81.67,12.85 L81.94,12.67 L82.15,12.52 L82.27,12.46 L82.24,12.46 L82.33,12.37 C82.39,12.31 82.3,12.37 82.42,12.28 C82.72,12.01 83.02,11.68 83.2,11.32 C83.2,11.32 83.29,11.05 83.35,10.9 C83.08,10.96 82.81,11.11 82.51,11.32 C82.33,11.44 82.21,11.56 82.06,11.68 C82.03,11.71 81.91,11.8 81.91,11.8 C81.43,12.22 80.95,12.67 80.56,13.18 L80.41,13.39 Z" id="Combined-Shape"></path>
                            <path d="M88,13.84 C87.7,13.99 87.22,14.05 86.86,13.9 L86.8,13.96 C86.74,14.08 86.68,14.2 86.65,14.35 C86.62,14.38 86.62,14.41 86.62,14.44 C86.62,14.47 86.59,14.5 86.59,14.53 L86.56,14.65 C86.56,14.86 86.53,15.07 86.74,15.25 C86.8,15.28 86.86,15.31 86.92,15.31 L87.19,15.31 C87.91,15.25 88.42,15.07 89.05,14.8 C90.52,14.14 91.87,13.27 93.49,12.16 C93.82,11.92 94.24,11.68 94.54,11.44 C94.69,11.35 94.9,11.2 95.11,11.14 C95.17,11.11 95.23,11.11 95.32,11.11 L95.35,11.11 C95.32,11.11 95.44,11.14 95.44,11.14 C95.59,11.17 95.53,11.17 95.62,11.23 L95.71,11.32 C95.74,11.41 95.74,11.44 95.71,11.53 L95.65,11.62 L95.56,11.71 L95.17,12.01 L95.05,12.1 L94.09,12.76 C93.22,13.36 92.2,14.05 91.06,14.65 C90.28,15.07 89.29,15.55 88.45,15.76 C88,15.88 87.49,15.94 87.01,15.91 C86.44,15.85 85.87,15.52 85.69,14.95 C85.57,14.41 85.87,13.78 86.14,13.33 C86.47,12.82 86.95,12.25 87.4,11.83 C87.79,11.44 88.3,11.02 88.87,10.69 C89.35,10.39 90.13,10.09 90.7,10.51 C91.18,10.9 90.91,11.5 90.61,11.92 C90.31,12.34 89.92,12.7 89.47,13.03 C89.05,13.33 88.51,13.66 88,13.84 Z M87.16,13.39 C87.04,13.57 89.02,12.82 90.01,11.32 C90.01,11.32 90.13,11.11 90.1,10.9 C89.83,10.96 89.56,11.11 89.26,11.32 C89.08,11.44 88.96,11.56 88.81,11.68 C88.78,11.71 88.66,11.8 88.66,11.8 C88.18,12.22 87.7,12.67 87.31,13.18 L87.16,13.39 Z" id="Combined-Shape"></path>
                            <path d="M2.88,25.8 L2.91,25.8 L2.88,25.8 Z M22.68,6.27 C22.8,6.33 23.01,6.51 22.95,6.69 C22.74,7.29 22.35,7.8 21.96,8.28 C21.54,8.79 21.09,9.27 20.64,9.78 C20.31,10.11 19.98,10.47 19.65,10.86 C19.32,11.37 18.99,11.85 18.66,12.39 C18.18,13.11 17.76,13.86 17.37,14.61 C16.59,16.14 15.9,17.73 15.24,19.32 C14.58,20.97 13.8,22.62 13.44,24.39 C13.32,24.96 13.23,25.59 13.26,26.19 C13.26,26.28 13.26,26.37 13.29,26.46 C13.41,26.43 13.53,26.46 13.65,26.55 C13.77,26.61 14.04,26.85 13.86,27 L13.74,27.09 L13.74,27.06 C13.74,27.09 13.71,27.09 13.71,27.12 L13.62,27.21 L13.29,27.3 C13.05,27.33 12.78,27.24 12.63,27.09 C12.39,26.91 12.27,26.61 12.24,26.28 C12.18,25.59 12.27,24.81 12.42,24.12 C12.78,22.35 13.53,20.73 14.22,19.05 C14.73,17.82 15.24,16.59 15.81,15.39 L13.83,17.73 C12.15,19.62 10.38,21.42 8.55,23.19 C7.62,24.09 6.6,24.99 5.46,25.65 C4.86,26.01 4.23,26.34 3.54,26.46 C2.94,26.58 2.34,26.55 1.89,26.13 C1.62,25.86 1.56,25.44 1.56,25.08 C1.59,24.6 1.68,24.15 1.83,23.7 C2.07,22.89 2.4,22.11 2.76,21.33 C3.06,20.76 3.3,20.13 3.6,19.56 C3.99,18.75 4.44,17.94 4.89,17.16 C5.79,15.6 6.78,14.07 7.8,12.57 L10.95,8.04 C11.34,7.5 11.73,6.9 12.09,6.33 C12.39,5.91 12.66,5.52 12.84,5.07 C12.96,4.86 13.05,4.62 13.05,4.38 L13.05,4.29 C13.05,4.26 13.05,4.23 12.99,4.23 C12.96,4.26 12.96,4.26 12.93,4.26 C12.87,4.26 12.81,4.29 12.78,4.29 L12.45,4.41 L12.33,4.47 C12.24,4.5 12.42,4.41 12.3,4.47 C12.24,4.5 12.18,4.53 12.12,4.53 L11.76,4.71 L10.98,5.16 C10.56,5.4 10.11,5.67 9.69,5.97 L9.48,6.15 L9.39,6.21 C9.39,6.21 9.36,6.24 9.33,6.24 C9.03,6.48 8.7,6.75 8.43,7.05 C7.77,7.65 7.14,8.25 6.54,8.91 C5.34,10.17 4.26,11.55 3.33,13.02 C2.67,14.13 2.07,15.3 1.68,16.53 C1.53,17.04 1.41,17.55 1.35,18.06 L1.35,18.36 C1.35,18.75 1.68,18.66 1.74,19.05 C1.77,19.29 1.47,19.35 1.29,19.32 C0.72,19.26 0.36,18.84 0.33,18.3 C0.3,17.79 0.42,17.28 0.54,16.83 C0.63,16.41 0.75,16.02 0.87,15.63 C0.96,15.3 1.14,14.94 1.32,14.61 C1.47,14.22 1.68,13.86 1.89,13.5 C2.7,12 3.72,10.59 4.83,9.3 C5.97,7.98 7.23,6.78 8.58,5.67 C8.88,5.4 9.21,5.19 9.54,4.98 C10.02,4.68 10.5,4.38 11.01,4.11 C11.49,3.87 11.97,3.66 12.48,3.57 C12.78,3.51 13.05,3.51 13.32,3.57 C13.59,3.66 13.89,3.87 14.01,4.14 C14.19,4.62 13.98,5.13 13.77,5.55 C13.53,6.03 13.26,6.45 12.96,6.9 C12.06,8.25 11.13,9.6 10.17,10.95 C9.12,12.45 8.07,13.98 7.08,15.51 C6.15,17.01 5.22,18.54 4.47,20.13 C4.2,20.67 3.99,21.21 3.75,21.75 C3.57,22.08 3.42,22.44 3.27,22.8 C3.09,23.25 2.91,23.7 2.79,24.18 C2.73,24.39 2.67,24.63 2.64,24.84 C2.61,24.9 2.61,24.96 2.61,25.02 C2.61,25.02 2.61,25.05 2.58,25.08 L2.58,25.38 C2.58,25.47 2.61,25.56 2.61,25.65 C2.61,25.65 2.64,25.68 2.64,25.65 C2.64,25.77 2.67,25.8 2.82,25.83 C2.85,25.83 2.85,25.8 2.88,25.8 L2.94,25.8 L3.42,25.68 L3.63,25.59 C3.66,25.59 3.72,25.56 3.75,25.56 C3.87,25.5 3.66,25.59 3.78,25.53 C4.44,25.26 5.04,24.87 5.61,24.45 C6.18,24.06 6.63,23.67 7.11,23.22 C8.13,22.29 9.09,21.3 10.02,20.34 C11.91,18.42 13.68,16.38 15.42,14.34 L18.75,10.38 C18.84,10.23 18.96,10.05 19.08,9.9 C19.98,8.61 20.79,7.23 22.05,6.24 C22.23,6.12 22.53,6.18 22.68,6.27 Z M2.58,25.08 L2.58,25.11 L2.58,25.08 Z M27.99,16.08 C28.14,16.11 28.35,16.35 28.2,16.5 C27.54,17.1 26.82,17.61 26.07,18.15 C25.17,18.78 24.24,19.38 23.25,19.98 C22.83,20.22 22.44,20.46 22.02,20.64 C21.69,20.82 21.3,20.97 20.94,21.03 C20.46,21.12 20.1,20.94 19.86,20.55 C19.59,20.07 19.74,19.53 19.95,19.05 C20.16,18.51 20.49,18 20.82,17.46 C20.94,17.22 21.09,16.98 21.18,16.68 C20.4,17.13 19.71,17.82 19.11,18.45 C18.33,19.32 17.64,20.31 16.83,21.21 C16.8,21.21 16.77,21.24 16.74,21.27 C16.62,21.45 16.35,21.39 16.17,21.3 C16.05,21.27 15.87,21.12 15.93,20.97 C16.47,19.71 17.16,18.6 17.91,17.52 C18.18,17.13 18.33,16.71 18.63,16.26 C18.81,15.9 19.08,15.36 19.56,15.36 C19.74,15.36 20.01,15.45 20.1,15.63 C20.19,15.84 20.04,15.96 19.86,15.96 C19.83,15.96 19.83,15.99 19.77,16.02 L19.59,16.26 L19.32,16.83 L19.08,17.37 C19.74,16.68 20.55,16.05 21.48,15.78 C21.69,15.69 22.11,15.84 22.17,16.11 C22.2,16.65 21.96,17.16 21.72,17.64 C21.45,18.15 21.12,18.63 20.91,19.17 C20.79,19.44 20.7,19.65 20.67,19.95 C20.64,20.07 20.64,20.25 20.7,20.4 C20.85,20.37 20.97,20.31 21.12,20.25 L21.69,19.95 L23.01,19.17 C23.94,18.57 24.84,18 25.74,17.34 L26.85,16.53 C26.97,16.41 27.09,16.32 27.24,16.23 L27.39,16.14 C27.45,16.11 27.51,16.02 27.45,16.11 C27.6,15.96 27.81,15.99 27.99,16.08 Z" id="Une"></path>
                            <path d="M27.15,18.84 C26.85,18.99 26.37,19.05 26.01,18.9 L25.95,18.96 C25.89,19.08 25.83,19.2 25.8,19.35 C25.77,19.38 25.77,19.41 25.77,19.44 C25.77,19.47 25.74,19.5 25.74,19.53 L25.71,19.65 C25.71,19.86 25.68,20.07 25.89,20.25 C25.95,20.28 26.01,20.31 26.07,20.31 L26.34,20.31 C27.06,20.25 27.57,20.07 28.2,19.8 C29.67,19.14 31.02,18.27 32.64,17.16 C32.97,16.92 33.39,16.68 33.69,16.44 C33.84,16.35 34.05,16.2 34.26,16.14 C34.32,16.11 34.38,16.11 34.47,16.11 L34.5,16.11 C34.47,16.11 34.59,16.14 34.59,16.14 C34.74,16.17 34.68,16.17 34.77,16.23 L34.86,16.32 C34.89,16.41 34.89,16.44 34.86,16.53 L34.8,16.62 L34.71,16.71 L34.32,17.01 L34.2,17.1 L33.24,17.76 C32.37,18.36 31.35,19.05 30.21,19.65 C29.43,20.07 28.44,20.55 27.6,20.76 C27.15,20.88 26.64,20.94 26.16,20.91 C25.59,20.85 25.02,20.52 24.84,19.95 C24.72,19.41 25.02,18.78 25.29,18.33 C25.62,17.82 26.1,17.25 26.55,16.83 C26.94,16.44 27.45,16.02 28.02,15.69 C28.5,15.39 29.28,15.09 29.85,15.51 C30.33,15.9 30.06,16.5 29.76,16.92 C29.46,17.34 29.07,17.7 28.62,18.03 C28.2,18.33 27.66,18.66 27.15,18.84 Z M26.31,18.39 C26.19,18.57 28.17,17.82 29.16,16.32 C29.16,16.32 29.28,16.11 29.25,15.9 C28.98,15.96 28.71,16.11 28.41,16.32 C28.23,16.44 28.11,16.56 27.96,16.68 C27.93,16.71 27.81,16.8 27.81,16.8 C27.33,17.22 26.85,17.67 26.46,18.18 L26.31,18.39 Z" id="Combined-Shape"></path>
                        </g>
                        <text id="LE-SITE" font-family="HelveticaNeue-CondensedBold, Helvetica Neue" font-size="8" font-style="condensed" font-weight="bold" fill="#D2A900">
                            <tspan x="54.624" y="65">LE SITE</tspan>
                        </text>
                    </g>
                </g>
            </g>
        </g>
    </g>
</svg>